AwamiNastaliq-Regular.ufo
<glyph name="quotedbl" format="1">
  <advance width="835"/>
  <unicode hex="0022"/>
  <outline>
    <contour>
      <point x="703" y="1281" type="curve"/>
      <point x="703" y="1340"/>
      <point x="665" y="1389"/>
      <point x="601" y="1389" type="curve" smooth="yes"/>
      <point x="536" y="1389"/>
      <point x="499" y="1352"/>
      <point x="499" y="1267" type="curve" smooth="yes"/>
      <point x="499" y="1236"/>
      <point x="506" y="1181"/>
      <point x="523" y="1097" type="curve" smooth="yes"/>
      <point x="576" y="805" type="line"/>
      <point x="626" y="805" type="line"/>
      <point x="681" y="1097" type="line" smooth="yes"/>
      <point x="698" y="1195"/>
      <point x="703" y="1255"/>
    </contour>
    <contour>
      <point x="335" y="1280" type="curve"/>
      <point x="335" y="1344"/>
      <point x="292" y="1389"/>
      <point x="233" y="1389" type="curve" smooth="yes"/>
      <point x="175" y="1389"/>
      <point x="135" y="1358"/>
      <point x="135" y="1267" type="curve" smooth="yes"/>
      <point x="135" y="1236"/>
      <point x="140" y="1181"/>
      <point x="156" y="1101" type="curve" smooth="yes"/>
      <point x="212" y="805" type="line"/>
      <point x="252" y="805" type="line"/>
      <point x="307" y="1098" type="line" smooth="yes"/>
      <point x="325" y="1193"/>
      <point x="335" y="1255"/>
    </contour>
  </outline>
</glyph>
<glyph name="numbersign" format="2">
  <advance width="1026"/>
  <unicode hex="0023"/>
  <outline>
    <contour>
      <point x="715" y="427" type="line"/>
      <point x="989" y="427" type="line"/>
      <point x="989" y="511" type="line"/>
      <point x="734" y="511" type="line"/>
      <point x="805" y="854" type="line"/>
      <point x="989" y="854" type="line"/>
      <point x="989" y="934" type="line"/>
      <point x="819" y="934" type="line"/>
      <point x="912" y="1389" type="line"/>
      <point x="830" y="1389" type="line"/>
      <point x="734" y="934" type="line"/>
      <point x="397" y="934" type="line"/>
      <point x="485" y="1389" type="line"/>
      <point x="404" y="1389" type="line"/>
      <point x="314" y="934" type="line"/>
      <point x="36" y="934" type="line"/>
      <point x="36" y="854" type="line"/>
      <point x="294" y="854" type="line"/>
      <point x="222" y="511" type="line"/>
      <point x="36" y="511" type="line"/>
      <point x="36" y="427" type="line"/>
      <point x="207" y="427" type="line"/>
      <point x="115" y="-30" type="line"/>
      <point x="199" y="-30" type="line"/>
      <point x="294" y="427" type="line"/>
      <point x="632" y="427" type="line"/>
      <point x="543" y="-30" type="line"/>
      <point x="623" y="-30" type="line"/>
    </contour>
    <contour>
      <point x="378" y="854" type="line"/>
      <point x="720" y="854" type="line"/>
      <point x="650" y="511" type="line"/>
      <point x="307" y="511" type="line"/>
    </contour>
  </outline>
</glyph>
<glyph name="dollar" format="1">
  <advance width="1026"/>
  <unicode hex="0024"/>
  <outline>
    <contour>
      <point x="922" y="337" type="curve"/>
      <point x="922" y="520"/>
      <point x="822" y="593"/>
      <point x="527" y="805" type="curve"/>
      <point x="527" y="1313" type="line"/>
      <point x="728" y="1294"/>
      <point x="804" y="1180"/>
      <point x="819" y="991" type="curve"/>
      <point x="858" y="991" type="line"/>
      <point x="858" y="1291" type="line"/>
      <point x="750" y="1333"/>
      <point x="682" y="1357"/>
      <point x="665" y="1363" type="curve"/>
      <point x="627" y="1370"/>
      <point x="580" y="1379"/>
      <point x="527" y="1381" type="curve"/>
      <point x="527" y="1473" type="line"/>
      <point x="463" y="1473" type="line"/>
      <point x="463" y="1381" type="line"/>
      <point x="327" y="1372"/>
      <point x="109" y="1283"/>
      <point x="109" y="1056" type="curve" smooth="yes"/>
      <point x="109" y="858"/>
      <point x="239" y="767"/>
      <point x="463" y="621" type="curve"/>
      <point x="463" y="38" type="line"/>
      <point x="269" y="55"/>
      <point x="166" y="146"/>
      <point x="152" y="335" type="curve"/>
      <point x="109" y="335" type="line"/>
      <point x="109" y="51" type="line"/>
      <point x="204" y="10"/>
      <point x="346" y="-24"/>
      <point x="463" y="-30" type="curve"/>
      <point x="463" y="-156" type="line"/>
      <point x="527" y="-156" type="line"/>
      <point x="527" y="-30" type="line"/>
      <point x="731" y="-17"/>
      <point x="922" y="120"/>
    </contour>
    <contour>
      <point x="463" y="1313" type="curve"/>
      <point x="463" y="849" type="line"/>
      <point x="391" y="894"/>
      <point x="264" y="979"/>
      <point x="264" y="1118" type="curve" smooth="yes"/>
      <point x="264" y="1272"/>
      <point x="398" y="1304"/>
    </contour>
    <contour>
      <point x="764" y="289" type="curve"/>
      <point x="764" y="107"/>
      <point x="600" y="43"/>
      <point x="527" y="38" type="curve"/>
      <point x="527" y="577" type="line"/>
      <point x="678" y="471"/>
      <point x="764" y="406"/>
    </contour>
  </outline>
</glyph>
<glyph name="ampersand" format="2">
  <advance width="1596"/>
  <unicode hex="0026"/>
  <outline>
    <contour>
      <point x="1532" y="244" type="curve"/>
      <point x="1495" y="270" type="line"/>
      <point x="1482" y="220"/>
      <point x="1440" y="122"/>
      <point x="1312" y="122" type="curve" smooth="yes"/>
      <point x="1172" y="122"/>
      <point x="1071" y="243"/>
      <point x="1012" y="310" type="curve"/>
      <point x="1084" y="402"/>
      <point x="1153" y="500"/>
      <point x="1211" y="607" type="curve" smooth="yes"/>
      <point x="1328" y="822"/>
      <point x="1355" y="822"/>
      <point x="1467" y="835" type="curve"/>
      <point x="1467" y="874" type="line"/>
      <point x="1044" y="874" type="line"/>
      <point x="1044" y="835" type="line"/>
      <point x="1063" y="835"/>
      <point x="1140" y="819"/>
      <point x="1140" y="724" type="curve" smooth="yes"/>
      <point x="1140" y="627"/>
      <point x="1081" y="508"/>
      <point x="964" y="369" type="curve"/>
      <point x="869" y="496"/>
      <point x="781" y="632"/>
      <point x="698" y="782" type="curve"/>
      <point x="820" y="849"/>
      <point x="1027" y="950"/>
      <point x="1027" y="1143" type="curve" smooth="yes"/>
      <point x="1027" y="1270"/>
      <point x="934" y="1389"/>
      <point x="757" y="1389" type="curve" smooth="yes"/>
      <point x="593" y="1389"/>
      <point x="408" y="1288"/>
      <point x="408" y="1058" type="curve" smooth="yes"/>
      <point x="408" y="935"/>
      <point x="459" y="828"/>
      <point x="491" y="758" type="curve"/>
      <point x="327" y="673"/>
      <point x="75" y="517"/>
      <point x="75" y="269" type="curve" smooth="yes"/>
      <point x="75" y="122"/>
      <point x="195" y="-32"/>
      <point x="435" y="-32" type="curve" smooth="yes"/>
      <point x="654" y="-32"/>
      <point x="789" y="92"/>
      <point x="872" y="164" type="curve"/>
      <point x="944" y="85"/>
      <point x="1065" y="-32"/>
      <point x="1222" y="-32" type="curve" smooth="yes"/>
      <point x="1432" y="-32"/>
      <point x="1511" y="144"/>
    </contour>
    <contour>
      <point x="911" y="1148" type="curve"/>
      <point x="911" y="976"/>
      <point x="747" y="888"/>
      <point x="665" y="850" type="curve"/>
      <point x="628" y="927"/>
      <point x="580" y="1043"/>
      <point x="580" y="1136" type="curve" smooth="yes"/>
      <point x="580" y="1175"/>
      <point x="612" y="1318"/>
      <point x="757" y="1318" type="curve" smooth="yes"/>
      <point x="837" y="1318"/>
      <point x="911" y="1250"/>
    </contour>
    <contour>
      <point x="819" y="220" type="curve"/>
      <point x="751" y="166"/>
      <point x="660" y="90"/>
      <point x="536" y="90" type="curve" smooth="yes"/>
      <point x="371" y="90"/>
      <point x="284" y="227"/>
      <point x="284" y="359" type="curve" smooth="yes"/>
      <point x="284" y="550"/>
      <point x="444" y="647"/>
      <point x="523" y="690" type="curve"/>
      <point x="566" y="609"/>
      <point x="601" y="543"/>
      <point x="635" y="485" type="curve" smooth="yes"/>
      <point x="668" y="427"/>
      <point x="729" y="343"/>
    </contour>
  </outline>
</glyph>
<glyph name="quotesingle" format="2">
  <advance width="371"/>
  <unicode hex="0027"/>
  <outline>
    <contour>
      <point x="286" y="1281" type="curve"/>
      <point x="286" y="1328"/>
      <point x="254" y="1389"/>
      <point x="179" y="1389" type="curve" smooth="yes"/>
      <point x="116" y="1389"/>
      <point x="85" y="1350"/>
      <point x="85" y="1267" type="curve" smooth="yes"/>
      <point x="85" y="1239"/>
      <point x="90" y="1183"/>
      <point x="107" y="1101" type="curve" smooth="yes"/>
      <point x="160" y="805" type="line"/>
      <point x="205" y="805" type="line"/>
      <point x="258" y="1098" type="line" smooth="yes"/>
      <point x="276" y="1197"/>
      <point x="286" y="1258"/>
    </contour>
  </outline>
</glyph>
<glyph name="parenright" format="2">
  <advance width="682"/>
  <unicode hex="0029"/>
  <outline>
    <contour>
      <point x="600" y="489" type="curve"/>
      <point x="600" y="894"/>
      <point x="398" y="1248"/>
      <point x="45" y="1424" type="curve"/>
      <point x="45" y="1385" type="line"/>
      <point x="396" y="1158"/>
      <point x="408" y="724"/>
      <point x="408" y="463" type="curve" smooth="yes"/>
      <point x="408" y="17"/>
      <point x="274" y="-281"/>
      <point x="45" y="-402" type="curve"/>
      <point x="45" y="-440" type="line"/>
      <point x="369" y="-297"/>
      <point x="600" y="80"/>
    </contour>
  </outline>
</glyph>
<glyph name="plus" format="1">
  <advance width="1972"/>
  <unicode hex="002B"/>
  <outline>
    <contour>
      <point x="1046" y="530" type="line"/>
      <point x="1577" y="530" type="line"/>
      <point x="1577" y="653" type="line"/>
      <point x="1046" y="653" type="line"/>
      <point x="1046" y="1183" type="line"/>
      <point x="926" y="1183" type="line"/>
      <point x="926" y="653" type="line"/>
      <point x="396" y="653" type="line"/>
      <point x="396" y="530" type="line"/>
      <point x="926" y="530" type="line"/>
      <point x="926" y="0" type="line"/>
      <point x="1046" y="0" type="line"/>
    </contour>
  </outline>
</glyph>
<glyph name="period" format="2">
  <advance width="512"/>
  <unicode hex="002E"/>
  <outline>
    <contour>
      <point x="367" y="85" type="curve"/>
      <point x="367" y="149"/>
      <point x="316" y="195"/>
      <point x="256" y="195" type="curve" smooth="yes"/>
      <point x="193" y="195"/>
      <point x="146" y="148"/>
      <point x="146" y="85" type="curve" smooth="yes"/>
      <point x="146" y="24"/>
      <point x="189" y="-30"/>
      <point x="256" y="-30" type="curve" smooth="yes"/>
      <point x="321" y="-30"/>
      <point x="367" y="24"/>
    </contour>
  </outline>
</glyph>
<glyph name="slash" format="1">
  <advance width="570"/>
  <unicode hex="002F"/>
  <outline>
    <contour>
      <point x="95" y="-30" type="line"/>
      <point x="584" y="1424" type="line"/>
      <point x="505" y="1424" type="line"/>
      <point x="11" y="-30" type="line"/>
    </contour>
  </outline>
</glyph>
<glyph name="zero" format="1">
  <advance width="1026"/>
  <unicode hex="0030"/>
  <outline>
    <contour>
      <point x="952" y="690" type="curve" smooth="yes"/>
      <point x="952" y="325"/>
      <point x="796" y="-24"/>
      <point x="506" y="-24" type="curve" smooth="yes"/>
      <point x="240" y="-24"/>
      <point x="74" y="320"/>
      <point x="74" y="670" type="curve" smooth="yes"/>
      <point x="74" y="1104"/>
      <point x="283" y="1387"/>
      <point x="517" y="1387" type="curve" smooth="yes"/>
      <point x="747" y="1387"/>
      <point x="952" y="1120"/>
    </contour>
    <contour>
      <point x="757" y="735" type="curve" smooth="yes"/>
      <point x="757" y="1099"/>
      <point x="673" y="1320"/>
      <point x="515" y="1320" type="curve" smooth="yes"/>
      <point x="403" y="1320"/>
      <point x="270" y="1192"/>
      <point x="270" y="647" type="curve" smooth="yes"/>
      <point x="270" y="244"/>
      <point x="365" y="39"/>
      <point x="511" y="39" type="curve" smooth="yes"/>
      <point x="653" y="39"/>
      <point x="757" y="210"/>
    </contour>
    <contour>
      <point x="513" y="-100" type="move" name="L"/>
    </contour>
    <contour>
      <point x="513" y="1435" type="move" name="U"/>
    </contour>
  </outline>
</glyph>
<glyph name="one" format="1">
  <advance width="1026"/>
  <unicode hex="0031"/>
  <outline>
    <contour>
      <point x="775" y="0" type="line"/>
      <point x="264" y="0" type="line"/>
      <point x="264" y="38" type="line"/>
      <point x="435" y="38"/>
      <point x="440" y="69"/>
      <point x="440" y="241" type="curve" smooth="yes"/>
      <point x="440" y="973" type="line"/>
      <point x="440" y="1058" type="line" smooth="yes"/>
      <point x="440" y="1188"/>
      <point x="422" y="1270"/>
      <point x="254" y="1193" type="curve"/>
      <point x="241" y="1225" type="line"/>
      <point x="570" y="1387" type="line"/>
      <point x="605" y="1387" type="line"/>
      <point x="605" y="241" type="line" smooth="yes"/>
      <point x="605" y="69"/>
      <point x="607" y="38"/>
      <point x="775" y="38" type="curve"/>
    </contour>
    <contour>
      <point x="508" y="-100" type="move" name="L"/>
    </contour>
    <contour>
      <point x="508" y="1435" type="move" name="U"/>
    </contour>
  </outline>
</glyph>
<glyph name="two" format="1">
  <advance width="1026"/>
  <unicode hex="0032"/>
  <outline>
    <contour>
      <point x="941" y="260" type="line"/>
      <point x="844" y="0" type="line"/>
      <point x="45" y="0" type="line"/>
      <point x="45" y="38" type="line"/>
      <point x="280" y="253"/>
      <point x="446" y="424"/>
      <point x="543" y="565" type="curve"/>
      <point x="639" y="702"/>
      <point x="687" y="825"/>
      <point x="687" y="936" type="curve" smooth="yes"/>
      <point x="687" y="1167"/>
      <point x="503" y="1233"/>
      <point x="419" y="1233" type="curve" smooth="yes"/>
      <point x="226" y="1233"/>
      <point x="147" y="1079"/>
      <point x="120" y="1004" type="curve"/>
      <point x="85" y="1004" type="line"/>
      <point x="101" y="1123"/>
      <point x="171" y="1387"/>
      <point x="469" y="1387" type="curve" smooth="yes"/>
      <point x="662" y="1387"/>
      <point x="858" y="1250"/>
      <point x="858" y="1029" type="curve"/>
      <point x="856" y="817"/>
      <point x="683" y="602"/>
      <point x="568" y="480" type="curve"/>
      <point x="401" y="297"/>
      <point x="299" y="191"/>
      <point x="258" y="152" type="curve"/>
      <point x="613" y="152" type="line" smooth="yes"/>
      <point x="817" y="152"/>
      <point x="843" y="172"/>
      <point x="904" y="260" type="curve"/>
    </contour>
    <contour>
      <point x="493" y="-100" type="move" name="L"/>
    </contour>
    <contour>
      <point x="493" y="1435" type="move" name="U"/>
    </contour>
  </outline>
</glyph>
<glyph name="three" format="1">
  <advance width="1026"/>
  <unicode hex="0033"/>
  <outline>
    <contour>
      <point x="857" y="450" type="curve" smooth="yes"/>
      <point x="857" y="171"/>
      <point x="651" y="-24"/>
      <point x="320" y="-24" type="curve" smooth="yes"/>
      <point x="92" y="-24"/>
      <point x="85" y="55"/>
      <point x="85" y="85" type="curve" smooth="yes"/>
      <point x="85" y="124"/>
      <point x="122" y="156"/>
      <point x="164" y="156" type="curve"/>
      <point x="262" y="154"/>
      <point x="318" y="65"/>
      <point x="453" y="64" type="curve" smooth="yes"/>
      <point x="573" y="64"/>
      <point x="707" y="167"/>
      <point x="707" y="327" type="curve" smooth="yes"/>
      <point x="707" y="509"/>
      <point x="610" y="594"/>
      <point x="511" y="635" type="curve" smooth="yes"/>
      <point x="452" y="660"/>
      <point x="386" y="672"/>
      <point x="312" y="673" type="curve"/>
      <point x="312" y="704" type="line"/>
      <point x="364" y="708"/>
      <point x="621" y="770"/>
      <point x="621" y="1020" type="curve" smooth="yes"/>
      <point x="621" y="1195"/>
      <point x="486" y="1248"/>
      <point x="398" y="1248" type="curve" smooth="yes"/>
      <point x="295" y="1248"/>
      <point x="208" y="1193"/>
      <point x="138" y="1082" type="curve"/>
      <point x="105" y="1098" type="line"/>
      <point x="144" y="1183"/>
      <point x="224" y="1387"/>
      <point x="471" y="1387" type="curve" smooth="yes"/>
      <point x="733" y="1387"/>
      <point x="787" y="1179"/>
      <point x="787" y="1111" type="curve" smooth="yes"/>
      <point x="787" y="1012"/>
      <point x="728" y="910"/>
      <point x="604" y="805" type="curve"/>
      <point x="689" y="773"/>
      <point x="857" y="678"/>
    </contour>
    <contour>
      <point x="471" y="-100" type="move" name="L"/>
    </contour>
    <contour>
      <point x="471" y="1435" type="move" name="U"/>
    </contour>
  </outline>
</glyph>
<glyph name="four" format="2">
  <advance width="1026"/>
  <unicode hex="0034"/>
  <anchor x="492" y="-100" name="L"/>
  <anchor x="492" y="1435" name="U"/>
  <outline>
    <contour>
      <point x="952" y="359" type="line"/>
      <point x="952" y="500" type="line"/>
      <point x="774" y="500" type="line"/>
      <point x="774" y="1387" type="line"/>
      <point x="662" y="1387" type="line"/>
      <point x="32" y="485" type="line"/>
      <point x="32" y="359" type="line"/>
      <point x="607" y="359" type="line"/>
      <point x="607" y="0" type="line"/>
      <point x="774" y="0" type="line"/>
      <point x="774" y="359" type="line"/>
    </contour>
    <contour>
      <point x="607" y="500" type="line"/>
      <point x="130" y="500" type="line"/>
      <point x="607" y="1175" type="line"/>
    </contour>
  </outline>
</glyph>
<glyph name="five" format="2">
  <advance width="1026"/>
  <unicode hex="0035"/>
  <anchor x="494" y="-100" name="L"/>
  <anchor x="494" y="1435" name="U"/>
  <outline>
    <contour>
      <point x="889" y="1357" type="line"/>
      <point x="812" y="1188" type="line"/>
      <point x="404" y="1188" type="line"/>
      <point x="314" y="1005" type="line"/>
      <point x="443" y="997"/>
      <point x="867" y="872"/>
      <point x="867" y="489" type="curve" smooth="yes"/>
      <point x="867" y="149"/>
      <point x="557" y="-24"/>
      <point x="331" y="-24" type="curve" smooth="yes"/>
      <point x="175" y="-24"/>
      <point x="98" y="38"/>
      <point x="98" y="109" type="curve" smooth="yes"/>
      <point x="98" y="129"/>
      <point x="110" y="181"/>
      <point x="177" y="181" type="curve" smooth="yes"/>
      <point x="272" y="180"/>
      <point x="309" y="81"/>
      <point x="444" y="79" type="curve"/>
      <point x="599" y="79"/>
      <point x="737" y="206"/>
      <point x="737" y="382" type="curve" smooth="yes"/>
      <point x="737" y="465"/>
      <point x="703" y="590"/>
      <point x="588" y="689" type="curve"/>
      <point x="440" y="811"/>
      <point x="270" y="827"/>
      <point x="144" y="830" type="curve"/>
      <point x="404" y="1357" type="line"/>
    </contour>
  </outline>
</glyph>
<glyph name="six" format="2">
  <advance width="1026"/>
  <unicode hex="0036"/>
  <anchor x="519" y="-100" name="L"/>
  <anchor x="519" y="1435" name="U"/>
  <outline>
    <contour>
      <point x="946" y="458" type="curve" smooth="yes"/>
      <point x="946" y="217"/>
      <point x="781" y="-24"/>
      <point x="515" y="-24" type="curve" smooth="yes"/>
      <point x="264" y="-24"/>
      <point x="89" y="232"/>
      <point x="89" y="532" type="curve" smooth="yes"/>
      <point x="89" y="830"/>
      <point x="234" y="1043"/>
      <point x="369" y="1172" type="curve"/>
      <point x="542" y="1332"/>
      <point x="724" y="1387"/>
      <point x="861" y="1387" type="curve" smooth="yes"/>
      <point x="919" y="1387" type="line"/>
      <point x="919" y="1349" type="line"/>
      <point x="760" y="1341"/>
      <point x="637" y="1275"/>
      <point x="536" y="1175" type="curve" smooth="yes"/>
      <point x="470" y="1109"/>
      <point x="365" y="974"/>
      <point x="314" y="757" type="curve"/>
      <point x="410" y="824"/>
      <point x="507" y="858"/>
      <point x="604" y="858" type="curve" smooth="yes"/>
      <point x="726" y="858"/>
      <point x="946" y="755"/>
    </contour>
    <contour>
      <point x="767" y="348" type="curve" smooth="yes"/>
      <point x="767" y="559"/>
      <point x="690" y="772"/>
      <point x="506" y="772" type="curve" smooth="yes"/>
      <point x="426" y="772"/>
      <point x="356" y="720"/>
      <point x="297" y="684" type="curve"/>
      <point x="286" y="596"/>
      <point x="278" y="523"/>
      <point x="278" y="467" type="curve" smooth="yes"/>
      <point x="278" y="282"/>
      <point x="375" y="28"/>
      <point x="544" y="32" type="curve"/>
      <point x="663" y="37"/>
      <point x="767" y="144"/>
    </contour>
  </outline>
</glyph>
<glyph name="seven" format="1">
  <advance width="1026"/>
  <unicode hex="0037"/>
  <outline>
    <contour>
      <point x="931" y="1320" type="line"/>
      <point x="480" y="-30" type="line"/>
      <point x="369" y="-30" type="line"/>
      <point x="775" y="1193" type="line"/>
      <point x="402" y="1193" type="line" smooth="yes"/>
      <point x="184" y="1193"/>
      <point x="143" y="1098"/>
      <point x="105" y="1027" type="curve"/>
      <point x="75" y="1037" type="line"/>
      <point x="207" y="1357" type="line"/>
      <point x="931" y="1357" type="line"/>
    </contour>
    <contour>
      <point x="504" y="-100" type="move" name="L"/>
    </contour>
    <contour>
      <point x="504" y="1435" type="move" name="U"/>
    </contour>
  </outline>
</glyph>
<glyph name="eight" format="2">
  <advance width="1026"/>
  <unicode hex="0038"/>
  <anchor x="515" y="-100" name="L"/>
  <anchor x="515" y="1435" name="U"/>
  <outline>
    <contour>
      <point x="907" y="321" type="curve" smooth="yes"/>
      <point x="907" y="200"/>
      <point x="828" y="-24"/>
      <point x="512" y="-24" type="curve" smooth="yes"/>
      <point x="258" y="-24"/>
      <point x="122" y="155"/>
      <point x="122" y="310" type="curve" smooth="yes"/>
      <point x="122" y="481"/>
      <point x="294" y="615"/>
      <point x="396" y="682" type="curve"/>
      <point x="288" y="772"/>
      <point x="140" y="882"/>
      <point x="140" y="1063" type="curve" smooth="yes"/>
      <point x="140" y="1264"/>
      <point x="316" y="1387"/>
      <point x="512" y="1387" type="curve" smooth="yes"/>
      <point x="810" y="1387"/>
      <point x="877" y="1172"/>
      <point x="877" y="1092" type="curve" smooth="yes"/>
      <point x="877" y="931"/>
      <point x="711" y="827"/>
      <point x="598" y="753" type="curve"/>
      <point x="717" y="663"/>
      <point x="906" y="524"/>
    </contour>
    <contour>
      <point x="734" y="1104" type="curve" smooth="yes"/>
      <point x="734" y="1276"/>
      <point x="625" y="1327"/>
      <point x="515" y="1327" type="curve" smooth="yes"/>
      <point x="391" y="1327"/>
      <point x="286" y="1256"/>
      <point x="286" y="1130" type="curve" smooth="yes"/>
      <point x="286" y="991"/>
      <point x="384" y="930"/>
      <point x="551" y="790" type="curve"/>
      <point x="653" y="889"/>
      <point x="734" y="946"/>
    </contour>
    <contour>
      <point x="766" y="241" type="curve" smooth="yes"/>
      <point x="766" y="412"/>
      <point x="564" y="546"/>
      <point x="443" y="647" type="curve"/>
      <point x="387" y="601"/>
      <point x="276" y="496"/>
      <point x="276" y="314" type="curve" smooth="yes"/>
      <point x="276" y="133"/>
      <point x="386" y="32"/>
      <point x="527" y="32" type="curve" smooth="yes"/>
      <point x="655" y="32"/>
      <point x="766" y="108"/>
    </contour>
  </outline>
</glyph>
<glyph name="nine" format="1">
  <advance width="1026"/>
  <unicode hex="0039"/>
  <outline>
    <contour>
      <point x="936" y="827" type="curve" smooth="yes"/>
      <point x="936" y="603"/>
      <point x="860" y="407"/>
      <point x="707" y="239" type="curve"/>
      <point x="657" y="177"/>
      <point x="452" y="-30"/>
      <point x="166" y="-30" type="curve" smooth="yes"/>
      <point x="109" y="-30" type="line"/>
      <point x="109" y="8" type="line"/>
      <point x="179" y="11"/>
      <point x="349" y="31"/>
      <point x="480" y="167" type="curve"/>
      <point x="579" y="278"/>
      <point x="665" y="411"/>
      <point x="712" y="598" type="curve"/>
      <point x="609" y="527"/>
      <point x="515" y="496"/>
      <point x="427" y="496" type="curve" smooth="yes"/>
      <point x="204" y="496"/>
      <point x="83" y="695"/>
      <point x="83" y="899" type="curve" smooth="yes"/>
      <point x="83" y="1185"/>
      <point x="282" y="1387"/>
      <point x="504" y="1387" type="curve" smooth="yes"/>
      <point x="782" y="1387"/>
      <point x="936" y="1086"/>
    </contour>
    <contour>
      <point x="747" y="877" type="curve" smooth="yes"/>
      <point x="747" y="1171"/>
      <point x="601" y="1325"/>
      <point x="481" y="1320" type="curve"/>
      <point x="362" y="1317"/>
      <point x="260" y="1209"/>
      <point x="260" y="1004" type="curve" smooth="yes"/>
      <point x="260" y="756"/>
      <point x="360" y="585"/>
      <point x="508" y="585" type="curve" smooth="yes"/>
      <point x="587" y="585"/>
      <point x="702" y="635"/>
      <point x="728" y="670" type="curve"/>
      <point x="739" y="757"/>
      <point x="747" y="826"/>
    </contour>
    <contour>
      <point x="511" y="-100" type="move" name="L"/>
    </contour>
    <contour>
      <point x="511" y="1435" type="move" name="U"/>
    </contour>
  </outline>
</glyph>
<glyph name="semicolon" format="1">
  <advance width="573"/>
  <unicode hex="003B"/>
  <outline>
    <contour>
      <point x="423" y="835" type="curve"/>
      <point x="423" y="899"/>
      <point x="373" y="946"/>
      <point x="314" y="946" type="curve" smooth="yes"/>
      <point x="252" y="946"/>
      <point x="201" y="899"/>
      <point x="201" y="835" type="curve" smooth="yes"/>
      <point x="201" y="775"/>
      <point x="252" y="727"/>
      <point x="314" y="727" type="curve" smooth="yes"/>
      <point x="367" y="727"/>
      <point x="423" y="769"/>
    </contour>
    <contour>
      <point x="469" y="-10" type="curve"/>
      <point x="469" y="128"/>
      <point x="378" y="199"/>
      <point x="301" y="199" type="curve" smooth="yes"/>
      <point x="233" y="199"/>
      <point x="171" y="154"/>
      <point x="171" y="83" type="curve" smooth="yes"/>
      <point x="171" y="3"/>
      <point x="222" y="-30"/>
      <point x="278" y="-30" type="curve" smooth="yes"/>
      <point x="310" y="-30"/>
      <point x="333" y="0"/>
      <point x="366" y="0" type="curve" smooth="yes"/>
      <point x="382" y="0"/>
      <point x="386" y="-24"/>
      <point x="386" y="-39" type="curve" smooth="yes"/>
      <point x="386" y="-171"/>
      <point x="273" y="-269"/>
      <point x="171" y="-297" type="curve"/>
      <point x="171" y="-343" type="line"/>
      <point x="329" y="-289"/>
      <point x="469" y="-181"/>
    </contour>
  </outline>
</glyph>
<glyph name="less" format="2">
  <advance width="1972"/>
  <unicode hex="003C"/>
  <outline>
    <contour>
      <point x="396" y="530" type="line"/>
      <point x="1577" y="77" type="line"/>
      <point x="1577" y="199" type="line"/>
      <point x="521" y="591" type="line"/>
      <point x="1577" y="984" type="line"/>
      <point x="1577" y="1106" type="line"/>
      <point x="396" y="653" type="line"/>
    </contour>
  </outline>
</glyph>
<glyph name="equal" format="2">
  <advance width="1972"/>
  <unicode hex="003D"/>
  <outline>
    <contour>
      <point x="396" y="710" type="line"/>
      <point x="1577" y="710" type="line"/>
      <point x="1577" y="833" type="line"/>
      <point x="396" y="833" type="line"/>
    </contour>
    <contour>
      <point x="396" y="351" type="line"/>
      <point x="1577" y="351" type="line"/>
      <point x="1577" y="474" type="line"/>
      <point x="396" y="474" type="line"/>
    </contour>
  </outline>
</glyph>
<glyph name="question" format="2">
  <advance width="911"/>
  <unicode hex="003F"/>
  <outline>
    <contour>
      <point x="828" y="1073" type="curve"/>
      <point x="828" y="1270"/>
      <point x="670" y="1389"/>
      <point x="453" y="1389" type="curve" smooth="yes"/>
      <point x="220" y="1389"/>
      <point x="92" y="1250"/>
      <point x="92" y="1101" type="curve" smooth="yes"/>
      <point x="92" y="971"/>
      <point x="175" y="943"/>
      <point x="204" y="943" type="curve" smooth="yes"/>
      <point x="239" y="943"/>
      <point x="284" y="973"/>
      <point x="284" y="1029" type="curve" smooth="yes"/>
      <point x="284" y="1074"/>
      <point x="220" y="1145"/>
      <point x="220" y="1201" type="curve" smooth="yes"/>
      <point x="220" y="1260"/>
      <point x="282" y="1333"/>
      <point x="411" y="1333" type="curve" smooth="yes"/>
      <point x="515" y="1333"/>
      <point x="643" y="1258"/>
      <point x="643" y="1058" type="curve" smooth="yes"/>
      <point x="643" y="952"/>
      <point x="589" y="828"/>
      <point x="549" y="758" type="curve" smooth="yes"/>
      <point x="459" y="612"/>
      <point x="420" y="480"/>
      <point x="412" y="320" type="curve"/>
      <point x="455" y="320" type="line"/>
      <point x="463" y="506"/>
      <point x="530" y="581"/>
      <point x="673" y="742" type="curve" smooth="yes"/>
      <point x="734" y="811"/>
      <point x="828" y="920"/>
    </contour>
    <contour>
      <point x="551" y="85" type="curve"/>
      <point x="551" y="152"/>
      <point x="497" y="197"/>
      <point x="443" y="197" type="curve" smooth="yes"/>
      <point x="382" y="197"/>
      <point x="327" y="149"/>
      <point x="327" y="85" type="curve" smooth="yes"/>
      <point x="327" y="13"/>
      <point x="384" y="-28"/>
      <point x="443" y="-28" type="curve" smooth="yes"/>
      <point x="493" y="-28"/>
      <point x="551" y="11"/>
    </contour>
  </outline>
</glyph>
<glyph name="A" format="1">
  <advance width="1473"/>
  <unicode hex="0041"/>
  <outline>
    <contour>
      <point x="1457" y="-3" type="line"/>
      <point x="922" y="0" type="line"/>
      <point x="922" y="38" type="line"/>
      <point x="1112" y="41"/>
      <point x="1064" y="151"/>
      <point x="1020" y="260" type="curve"/>
      <point x="938" y="455" type="line"/>
      <point x="412" y="455" type="line"/>
      <point x="320" y="239" type="line"/>
      <point x="269" y="116"/>
      <point x="255" y="54"/>
      <point x="444" y="38" type="curve"/>
      <point x="444" y="0" type="line"/>
      <point x="15" y="0" type="line"/>
      <point x="15" y="38" type="line"/>
      <point x="131" y="46"/>
      <point x="176" y="122"/>
      <point x="241" y="270" type="curve"/>
      <point x="718" y="1389" type="line"/>
      <point x="753" y="1389" type="line"/>
      <point x="1225" y="260" type="line"/>
      <point x="1306" y="69"/>
      <point x="1343" y="46"/>
      <point x="1457" y="38" type="curve"/>
    </contour>
    <contour>
      <point x="911" y="528" type="line"/>
      <point x="681" y="1079" type="line"/>
      <point x="444" y="528" type="line"/>
    </contour>
    <contour>
      <point x="744" y="-112" type="move" name="L"/>
    </contour>
    <contour>
      <point x="735" y="1435" type="move" name="U"/>
    </contour>
  </outline>
</glyph>
<glyph name="C" format="2">
  <advance width="1368"/>
  <unicode hex="0043"/>
  <anchor x="684" y="0" name="H"/>
  <anchor x="741" y="-100" name="L"/>
  <anchor x="741" y="1435" name="U"/>
  <outline>
    <contour>
      <point x="1296" y="319" type="curve"/>
      <point x="1266" y="339" type="line"/>
      <point x="1106" y="113"/>
      <point x="988" y="57"/>
      <point x="811" y="57" type="curve" smooth="yes"/>
      <point x="505" y="57"/>
      <point x="301" y="268"/>
      <point x="301" y="657" type="curve" smooth="yes"/>
      <point x="301" y="1107"/>
      <point x="503" y="1318"/>
      <point x="781" y="1318" type="curve" smooth="yes"/>
      <point x="991" y="1318"/>
      <point x="1152" y="1206"/>
      <point x="1235" y="927" type="curve"/>
      <point x="1266" y="927" type="line"/>
      <point x="1235" y="1389" type="line"/>
      <point x="1198" y="1389" type="line"/>
      <point x="1184" y="1325"/>
      <point x="1152" y="1294"/>
      <point x="1115" y="1294" type="curve" smooth="yes"/>
      <point x="1074" y="1294"/>
      <point x="971" y="1389"/>
      <point x="766" y="1389" type="curve" smooth="yes"/>
      <point x="347" y="1389"/>
      <point x="74" y="1053"/>
      <point x="74" y="658" type="curve" smooth="yes"/>
      <point x="74" y="289"/>
      <point x="316" y="-32"/>
      <point x="734" y="-32" type="curve" smooth="yes"/>
      <point x="989" y="-32"/>
      <point x="1163" y="82"/>
    </contour>
  </outline>
</glyph>
<glyph name="D" format="1">
  <advance width="1481"/>
  <unicode hex="0044"/>
  <outline>
    <contour>
      <point x="1402" y="687" type="curve" smooth="yes"/>
      <point x="1402" y="304"/>
      <point x="1167" y="0"/>
      <point x="643" y="0" type="curve" smooth="yes"/>
      <point x="36" y="0" type="line"/>
      <point x="36" y="38" type="line"/>
      <point x="87" y="38" type="line" smooth="yes"/>
      <point x="144" y="38"/>
      <point x="186" y="55"/>
      <point x="207" y="92" type="curve" smooth="yes"/>
      <point x="220" y="115"/>
      <point x="229" y="164"/>
      <point x="229" y="241" type="curve" smooth="yes"/>
      <point x="229" y="1118" type="line" smooth="yes"/>
      <point x="229" y="1201"/>
      <point x="221" y="1255"/>
      <point x="204" y="1278" type="curve"/>
      <point x="175" y="1305"/>
      <point x="138" y="1320"/>
      <point x="87" y="1320" type="curve" smooth="yes"/>
      <point x="36" y="1320" type="line"/>
      <point x="36" y="1357" type="line"/>
      <point x="588" y="1357" type="line" smooth="yes"/>
      <point x="888" y="1357"/>
      <point x="1063" y="1309"/>
      <point x="1193" y="1197" type="curve"/>
      <point x="1318" y="1085"/>
      <point x="1402" y="898"/>
    </contour>
    <contour>
      <point x="1175" y="676" type="curve" smooth="yes"/>
      <point x="1175" y="1053"/>
      <point x="948" y="1281"/>
      <point x="627" y="1281" type="curve" smooth="yes"/>
      <point x="567" y="1281"/>
      <point x="501" y="1274"/>
      <point x="422" y="1251" type="curve"/>
      <point x="422" y="98" type="line"/>
      <point x="506" y="81"/>
      <point x="576" y="69"/>
      <point x="635" y="69" type="curve" smooth="yes"/>
      <point x="942" y="66"/>
      <point x="1175" y="298"/>
    </contour>
    <contour>
      <point x="719" y="-100" type="move" name="L"/>
    </contour>
    <contour>
      <point x="719" y="1435" type="move" name="U"/>
    </contour>
  </outline>
</glyph>
<glyph name="E" format="1">
  <advance width="1251"/>
  <unicode hex="0045"/>
  <outline>
    <contour>
      <point x="1206" y="342" type="line"/>
      <point x="1089" y="0" type="line"/>
      <point x="43" y="0" type="line"/>
      <point x="43" y="38" type="line"/>
      <point x="90" y="38" type="line" smooth="yes"/>
      <point x="113" y="38"/>
      <point x="171" y="45"/>
      <point x="197" y="69" type="curve" smooth="yes"/>
      <point x="223" y="93"/>
      <point x="237" y="122"/>
      <point x="237" y="241" type="curve" smooth="yes"/>
      <point x="237" y="1121" type="line" smooth="yes"/>
      <point x="237" y="1210"/>
      <point x="227" y="1261"/>
      <point x="212" y="1280" type="curve"/>
      <point x="187" y="1307"/>
      <point x="147" y="1320"/>
      <point x="90" y="1320" type="curve" smooth="yes"/>
      <point x="43" y="1320" type="line"/>
      <point x="43" y="1357" type="line"/>
      <point x="1089" y="1357" type="line"/>
      <point x="1104" y="1061" type="line"/>
      <point x="1065" y="1061" type="line"/>
      <point x="1037" y="1178"/>
      <point x="1040" y="1283"/>
      <point x="804" y="1283" type="curve" smooth="yes"/>
      <point x="427" y="1283" type="line"/>
      <point x="427" y="747" type="line"/>
      <point x="727" y="747" type="line" smooth="yes"/>
      <point x="910" y="747"/>
      <point x="923" y="806"/>
      <point x="941" y="943" type="curve"/>
      <point x="979" y="943" type="line"/>
      <point x="979" y="471" type="line"/>
      <point x="941" y="471" type="line"/>
      <point x="922" y="612"/>
      <point x="908" y="673"/>
      <point x="727" y="673" type="curve" smooth="yes"/>
      <point x="427" y="673" type="line"/>
      <point x="427" y="224" type="line"/>
      <point x="427" y="164" type="line" smooth="yes"/>
      <point x="427" y="111"/>
      <point x="447" y="74"/>
      <point x="543" y="74" type="curve" smooth="yes"/>
      <point x="772" y="74" type="line" smooth="yes"/>
      <point x="992" y="74"/>
      <point x="1039" y="115"/>
      <point x="1166" y="342" type="curve"/>
    </contour>
    <contour>
      <point x="624" y="-100" type="move" name="L"/>
    </contour>
    <contour>
      <point x="624" y="1435" type="move" name="U"/>
    </contour>
  </outline>
</glyph>
<glyph name="F" format="2">
  <advance width="1140"/>
  <unicode hex="0046"/>
  <anchor x="545" y="-100" name="L"/>
  <anchor x="545" y="1435" name="U"/>
  <outline>
    <contour>
      <point x="1058" y="1061" type="line"/>
      <point x="1043" y="1357" type="line"/>
      <point x="34" y="1357" type="line"/>
      <point x="34" y="1320" type="line"/>
      <point x="83" y="1320" type="line" smooth="yes"/>
      <point x="126" y="1320"/>
      <point x="171" y="1304"/>
      <point x="199" y="1275" type="curve" smooth="yes"/>
      <point x="219" y="1255"/>
      <point x="227" y="1215"/>
      <point x="227" y="1118" type="curve" smooth="yes"/>
      <point x="227" y="241" type="line" smooth="yes"/>
      <point x="227" y="160"/>
      <point x="219" y="109"/>
      <point x="204" y="87" type="curve"/>
      <point x="177" y="54"/>
      <point x="136" y="38"/>
      <point x="83" y="38" type="curve" smooth="yes"/>
      <point x="34" y="38" type="line"/>
      <point x="34" y="0" type="line"/>
      <point x="615" y="0" type="line"/>
      <point x="615" y="38" type="line"/>
      <point x="566" y="38" type="line" smooth="yes"/>
      <point x="519" y="38"/>
      <point x="468" y="54"/>
      <point x="443" y="89" type="curve"/>
      <point x="422" y="108"/>
      <point x="420" y="153"/>
      <point x="420" y="241" type="curve" smooth="yes"/>
      <point x="420" y="666" type="line"/>
      <point x="666" y="666" type="line" smooth="yes"/>
      <point x="805" y="666"/>
      <point x="844" y="605"/>
      <point x="844" y="475" type="curve"/>
      <point x="881" y="475" type="line"/>
      <point x="881" y="935" type="line"/>
      <point x="844" y="935" type="line"/>
      <point x="825" y="795"/>
      <point x="784" y="751"/>
      <point x="666" y="751" type="curve" smooth="yes"/>
      <point x="420" y="751" type="line"/>
      <point x="420" y="1283" type="line"/>
      <point x="720" y="1283" type="line" smooth="yes"/>
      <point x="917" y="1283"/>
      <point x="976" y="1228"/>
      <point x="1021" y="1061" type="curve"/>
    </contour>
  </outline>
</glyph>
<glyph name="G" format="2">
  <advance width="1481"/>
  <unicode hex="0047"/>
  <anchor x="760" y="-100" name="L"/>
  <anchor x="760" y="1435" name="U"/>
  <outline>
    <contour>
      <point x="1450" y="704" type="line"/>
      <point x="1427" y="704" type="line" smooth="yes"/>
      <point x="1374" y="704"/>
      <point x="1340" y="686"/>
      <point x="1320" y="651" type="curve" smooth="yes"/>
      <point x="1307" y="628"/>
      <point x="1299" y="577"/>
      <point x="1299" y="504" type="curve" smooth="yes"/>
      <point x="1299" y="90" type="line"/>
      <point x="1150" y="3"/>
      <point x="993" y="-32"/>
      <point x="822" y="-32" type="curve" smooth="yes"/>
      <point x="352" y="-32"/>
      <point x="71" y="271"/>
      <point x="71" y="658" type="curve" smooth="yes"/>
      <point x="71" y="990"/>
      <point x="321" y="1389"/>
      <point x="790" y="1389" type="curve" smooth="yes"/>
      <point x="1018" y="1389"/>
      <point x="1124" y="1302"/>
      <point x="1174" y="1302" type="curve" smooth="yes"/>
      <point x="1190" y="1302"/>
      <point x="1217" y="1317"/>
      <point x="1222" y="1389" type="curve"/>
      <point x="1260" y="1389" type="line"/>
      <point x="1294" y="960" type="line"/>
      <point x="1260" y="960" type="line"/>
      <point x="1172" y="1220"/>
      <point x="1013" y="1319"/>
      <point x="811" y="1319" type="curve" smooth="yes"/>
      <point x="480" y="1319"/>
      <point x="304" y="1051"/>
      <point x="301" y="703" type="curve" smooth="yes"/>
      <point x="297" y="314"/>
      <point x="526" y="38"/>
      <point x="825" y="38" type="curve" smooth="yes"/>
      <point x="921" y="38"/>
      <point x="1015" y="58"/>
      <point x="1104" y="113" type="curve"/>
      <point x="1104" y="504" type="line" smooth="yes"/>
      <point x="1104" y="674"/>
      <point x="1074" y="701"/>
      <point x="927" y="704" type="curve"/>
      <point x="927" y="739" type="line"/>
      <point x="1450" y="739" type="line"/>
    </contour>
  </outline>
</glyph>
<glyph name="H" format="2">
  <advance width="1481"/>
  <unicode hex="0048"/>
  <anchor x="737" y="-100" name="L"/>
  <anchor x="737" y="1435" name="U"/>
  <outline>
    <contour>
      <point x="1440" y="0" type="line"/>
      <point x="1440" y="38" type="line"/>
      <point x="1390" y="38" type="line" smooth="yes"/>
      <point x="1345" y="38"/>
      <point x="1292" y="52"/>
      <point x="1267" y="87" type="curve" smooth="yes"/>
      <point x="1246" y="116"/>
      <point x="1243" y="153"/>
      <point x="1243" y="241" type="curve" smooth="yes"/>
      <point x="1243" y="1118" type="line" smooth="yes"/>
      <point x="1243" y="1225"/>
      <point x="1244" y="1245"/>
      <point x="1274" y="1278" type="curve"/>
      <point x="1302" y="1305"/>
      <point x="1350" y="1320"/>
      <point x="1390" y="1320" type="curve" smooth="yes"/>
      <point x="1440" y="1320" type="line"/>
      <point x="1440" y="1357" type="line"/>
      <point x="858" y="1357" type="line"/>
      <point x="858" y="1320" type="line"/>
      <point x="907" y="1320" type="line" smooth="yes"/>
      <point x="954" y="1320"/>
      <point x="998" y="1303"/>
      <point x="1023" y="1278" type="curve" smooth="yes"/>
      <point x="1042" y="1259"/>
      <point x="1053" y="1215"/>
      <point x="1053" y="1118" type="curve" smooth="yes"/>
      <point x="1053" y="728" type="line"/>
      <point x="420" y="728" type="line"/>
      <point x="420" y="1118" type="line" smooth="yes"/>
      <point x="420" y="1222"/>
      <point x="432" y="1256"/>
      <point x="451" y="1278" type="curve" smooth="yes"/>
      <point x="480" y="1310"/>
      <point x="524" y="1320"/>
      <point x="568" y="1320" type="curve" smooth="yes"/>
      <point x="618" y="1320" type="line"/>
      <point x="618" y="1357" type="line"/>
      <point x="36" y="1357" type="line"/>
      <point x="36" y="1320" type="line"/>
      <point x="85" y="1320" type="line" smooth="yes"/>
      <point x="125" y="1320"/>
      <point x="183" y="1301"/>
      <point x="201" y="1275" type="curve"/>
      <point x="223" y="1250"/>
      <point x="229" y="1212"/>
      <point x="229" y="1118" type="curve" smooth="yes"/>
      <point x="229" y="241" type="line" smooth="yes"/>
      <point x="229" y="160"/>
      <point x="221" y="109"/>
      <point x="205" y="87" type="curve" smooth="yes"/>
      <point x="179" y="54"/>
      <point x="139" y="38"/>
      <point x="85" y="38" type="curve" smooth="yes"/>
      <point x="36" y="38" type="line"/>
      <point x="36" y="0" type="line"/>
      <point x="618" y="0" type="line"/>
      <point x="618" y="38" type="line"/>
      <point x="568" y="38" type="line" smooth="yes"/>
      <point x="523" y="38"/>
      <point x="469" y="57"/>
      <point x="446" y="85" type="curve" smooth="yes"/>
      <point x="427" y="108"/>
      <point x="420" y="149"/>
      <point x="420" y="241" type="curve" smooth="yes"/>
      <point x="420" y="654" type="line"/>
      <point x="1053" y="654" type="line"/>
      <point x="1053" y="241" type="line" smooth="yes"/>
      <point x="1053" y="157"/>
      <point x="1042" y="107"/>
      <point x="1027" y="87" type="curve" smooth="yes"/>
      <point x="1002" y="54"/>
      <point x="962" y="38"/>
      <point x="907" y="38" type="curve" smooth="yes"/>
      <point x="858" y="38" type="line"/>
      <point x="858" y="0" type="line"/>
    </contour>
  </outline>
</glyph>
<glyph name="I" format="2">
  <advance width="682"/>
  <unicode hex="0049"/>
  <anchor x="342" y="-100" name="L"/>
  <anchor x="342" y="1435" name="U"/>
  <outline>
    <contour>
      <point x="632" y="0" type="line"/>
      <point x="51" y="0" type="line"/>
      <point x="51" y="38" type="line"/>
      <point x="100" y="38" type="line" smooth="yes"/>
      <point x="157" y="38"/>
      <point x="193" y="52"/>
      <point x="220" y="87" type="curve" smooth="yes"/>
      <point x="236" y="106"/>
      <point x="244" y="157"/>
      <point x="244" y="241" type="curve" smooth="yes"/>
      <point x="244" y="1118" type="line" smooth="yes"/>
      <point x="244" y="1211"/>
      <point x="243" y="1243"/>
      <point x="222" y="1270" type="curve" smooth="yes"/>
      <point x="198" y="1302"/>
      <point x="147" y="1320"/>
      <point x="100" y="1320" type="curve" smooth="yes"/>
      <point x="51" y="1320" type="line"/>
      <point x="51" y="1357" type="line"/>
      <point x="632" y="1357" type="line"/>
      <point x="632" y="1320" type="line"/>
      <point x="583" y="1320" type="line" smooth="yes"/>
      <point x="530" y="1320"/>
      <point x="490" y="1304"/>
      <point x="463" y="1272" type="curve"/>
      <point x="448" y="1249"/>
      <point x="438" y="1199"/>
      <point x="438" y="1118" type="curve" smooth="yes"/>
      <point x="438" y="241" type="line" smooth="yes"/>
      <point x="438" y="153"/>
      <point x="446" y="109"/>
      <point x="461" y="85" type="curve" smooth="yes"/>
      <point x="474" y="64"/>
      <point x="537" y="38"/>
      <point x="583" y="38" type="curve" smooth="yes"/>
      <point x="632" y="38" type="line"/>
    </contour>
  </outline>
</glyph>
<glyph name="J" format="2">
  <advance width="798"/>
  <unicode hex="004A"/>
  <anchor x="413" y="-100" name="L"/>
  <anchor x="496" y="1435" name="U"/>
  <outline>
    <contour>
      <point x="784" y="1320" type="line"/>
      <point x="784" y="1357" type="line"/>
      <point x="205" y="1357" type="line"/>
      <point x="205" y="1320" type="line"/>
      <point x="252" y="1320" type="line" smooth="yes"/>
      <point x="309" y="1320"/>
      <point x="361" y="1295"/>
      <point x="381" y="1266" type="curve" smooth="yes"/>
      <point x="397" y="1241"/>
      <point x="400" y="1198"/>
      <point x="400" y="1118" type="curve" smooth="yes"/>
      <point x="400" y="192" type="line" smooth="yes"/>
      <point x="400" y="78"/>
      <point x="360" y="39"/>
      <point x="325" y="39" type="curve" smooth="yes"/>
      <point x="244" y="39"/>
      <point x="266" y="227"/>
      <point x="144" y="227" type="curve" smooth="yes"/>
      <point x="93" y="227"/>
      <point x="43" y="195"/>
      <point x="43" y="122" type="curve" smooth="yes"/>
      <point x="43" y="45"/>
      <point x="112" y="-32"/>
      <point x="244" y="-32" type="curve" smooth="yes"/>
      <point x="369" y="-32"/>
      <point x="591" y="39"/>
      <point x="591" y="453" type="curve" smooth="yes"/>
      <point x="591" y="1118" type="line" smooth="yes"/>
      <point x="591" y="1197"/>
      <point x="599" y="1248"/>
      <point x="615" y="1272" type="curve"/>
      <point x="643" y="1304"/>
      <point x="679" y="1320"/>
      <point x="735" y="1320" type="curve" smooth="yes"/>
    </contour>
  </outline>
</glyph>
<glyph name="L" format="1">
  <advance width="1251"/>
  <unicode hex="004C"/>
  <outline>
    <contour>
      <point x="1211" y="369" type="line"/>
      <point x="1092" y="0" type="line"/>
      <point x="38" y="0" type="line"/>
      <point x="38" y="38" type="line"/>
      <point x="156" y="38"/>
      <point x="237" y="53"/>
      <point x="237" y="207" type="curve" smooth="yes"/>
      <point x="237" y="1150" type="line" smooth="yes"/>
      <point x="237" y="1303"/>
      <point x="156" y="1319"/>
      <point x="38" y="1319" type="curve"/>
      <point x="38" y="1357" type="line"/>
      <point x="627" y="1357" type="line"/>
      <point x="627" y="1319" type="line"/>
      <point x="509" y="1319"/>
      <point x="427" y="1303"/>
      <point x="427" y="1150" type="curve" smooth="yes"/>
      <point x="427" y="256" type="line" smooth="yes"/>
      <point x="427" y="102"/>
      <point x="479" y="87"/>
      <point x="598" y="87" type="curve" smooth="yes"/>
      <point x="735" y="87" type="line" smooth="yes"/>
      <point x="898" y="87"/>
      <point x="969" y="92"/>
      <point x="1023" y="146" type="curve"/>
      <point x="1093" y="203"/>
      <point x="1127" y="255"/>
      <point x="1175" y="374" type="curve"/>
    </contour>
    <contour>
      <point x="624" y="-100" type="move" name="L"/>
    </contour>
    <contour>
      <point x="624" y="1435" type="move" name="U"/>
    </contour>
  </outline>
</glyph>
<glyph name="M" format="2">
  <advance width="1824"/>
  <unicode hex="004D"/>
  <anchor x="907" y="-100" name="L"/>
  <anchor x="907" y="1435" name="U"/>
  <outline>
    <contour>
      <point x="1780" y="0" type="line"/>
      <point x="1780" y="38" type="line"/>
      <point x="1733" y="38" type="line" smooth="yes"/>
      <point x="1678" y="38"/>
      <point x="1640" y="52"/>
      <point x="1617" y="79" type="curve" smooth="yes"/>
      <point x="1598" y="101"/>
      <point x="1588" y="154"/>
      <point x="1588" y="237" type="curve" smooth="yes"/>
      <point x="1588" y="1121" type="line" smooth="yes"/>
      <point x="1588" y="1200"/>
      <point x="1594" y="1245"/>
      <point x="1609" y="1270" type="curve"/>
      <point x="1635" y="1303"/>
      <point x="1676" y="1320"/>
      <point x="1733" y="1320" type="curve" smooth="yes"/>
      <point x="1780" y="1320" type="line"/>
      <point x="1780" y="1357" type="line"/>
      <point x="1396" y="1357" type="line"/>
      <point x="911" y="296" type="line"/>
      <point x="419" y="1357" type="line"/>
      <point x="36" y="1357" type="line"/>
      <point x="36" y="1320" type="line"/>
      <point x="117" y="1320"/>
      <point x="152" y="1307"/>
      <point x="181" y="1283" type="curve"/>
      <point x="217" y="1258"/>
      <point x="224" y="1208"/>
      <point x="224" y="1121" type="curve" smooth="yes"/>
      <point x="224" y="237" type="line" smooth="yes"/>
      <point x="224" y="157"/>
      <point x="217" y="111"/>
      <point x="205" y="90" type="curve"/>
      <point x="177" y="53"/>
      <point x="140" y="38"/>
      <point x="83" y="38" type="curve" smooth="yes"/>
      <point x="36" y="38" type="line"/>
      <point x="36" y="0" type="line"/>
      <point x="506" y="0" type="line"/>
      <point x="506" y="38" type="line"/>
      <point x="459" y="38" type="line" smooth="yes"/>
      <point x="403" y="38"/>
      <point x="364" y="52"/>
      <point x="343" y="79" type="curve"/>
      <point x="324" y="99"/>
      <point x="314" y="152"/>
      <point x="314" y="237" type="curve" smooth="yes"/>
      <point x="314" y="1142" type="line"/>
      <point x="837" y="0" type="line"/>
      <point x="872" y="0" type="line"/>
      <point x="1396" y="1142" type="line"/>
      <point x="1396" y="237" type="line" smooth="yes"/>
      <point x="1396" y="160"/>
      <point x="1389" y="111"/>
      <point x="1374" y="90" type="curve" smooth="yes"/>
      <point x="1349" y="53"/>
      <point x="1313" y="38"/>
      <point x="1250" y="38" type="curve" smooth="yes"/>
      <point x="1203" y="38" type="line"/>
      <point x="1203" y="0" type="line"/>
    </contour>
  </outline>
</glyph>
<glyph name="N" format="2">
  <advance width="1481"/>
  <unicode hex="004E"/>
  <anchor x="731" y="-100" name="L"/>
  <anchor x="731" y="1435" name="U"/>
  <outline>
    <contour>
      <point x="1450" y="1320" type="line"/>
      <point x="1450" y="1357" type="line"/>
      <point x="981" y="1357" type="line"/>
      <point x="981" y="1320" type="line"/>
      <point x="1026" y="1320" type="line" smooth="yes"/>
      <point x="1079" y="1320"/>
      <point x="1118" y="1306"/>
      <point x="1143" y="1278" type="curve"/>
      <point x="1162" y="1259"/>
      <point x="1172" y="1207"/>
      <point x="1172" y="1121" type="curve" smooth="yes"/>
      <point x="1172" y="339" type="line"/>
      <point x="343" y="1357" type="line"/>
      <point x="11" y="1357" type="line"/>
      <point x="11" y="1320" type="line"/>
      <point x="174" y="1320"/>
      <point x="213" y="1208"/>
      <point x="241" y="1180" type="curve"/>
      <point x="241" y="237" type="line" smooth="yes"/>
      <point x="241" y="157"/>
      <point x="233" y="111"/>
      <point x="217" y="90" type="curve"/>
      <point x="194" y="53"/>
      <point x="154" y="38"/>
      <point x="94" y="38" type="curve" smooth="yes"/>
      <point x="47" y="38" type="line"/>
      <point x="47" y="0" type="line"/>
      <point x="521" y="0" type="line"/>
      <point x="521" y="38" type="line"/>
      <point x="474" y="38" type="line" smooth="yes"/>
      <point x="419" y="38"/>
      <point x="380" y="52"/>
      <point x="355" y="79" type="curve" smooth="yes"/>
      <point x="336" y="101"/>
      <point x="327" y="154"/>
      <point x="327" y="237" type="curve" smooth="yes"/>
      <point x="327" y="1071" type="line"/>
      <point x="1225" y="-22" type="line"/>
      <point x="1260" y="-22" type="line"/>
      <point x="1260" y="1121" type="line" smooth="yes"/>
      <point x="1260" y="1197"/>
      <point x="1267" y="1247"/>
      <point x="1281" y="1270" type="curve" smooth="yes"/>
      <point x="1304" y="1305"/>
      <point x="1345" y="1320"/>
      <point x="1404" y="1320" type="curve" smooth="yes"/>
    </contour>
  </outline>
</glyph>
<glyph name="O" format="1">
  <advance width="1481"/>
  <unicode hex="004F"/>
  <outline>
    <contour>
      <point x="1400" y="687" type="curve" smooth="yes"/>
      <point x="1400" y="275"/>
      <point x="1111" y="-32"/>
      <point x="734" y="-32" type="curve" smooth="yes"/>
      <point x="365" y="-32"/>
      <point x="71" y="255"/>
      <point x="71" y="682" type="curve" smooth="yes"/>
      <point x="71" y="1089"/>
      <point x="365" y="1389"/>
      <point x="751" y="1389" type="curve" smooth="yes"/>
      <point x="1106" y="1389"/>
      <point x="1400" y="1092"/>
    </contour>
    <contour>
      <point x="1174" y="660" type="curve"/>
      <point x="1174" y="1073"/>
      <point x="1032" y="1315"/>
      <point x="729" y="1318" type="curve"/>
      <point x="457" y="1318"/>
      <point x="301" y="1076"/>
      <point x="301" y="689" type="curve" smooth="yes"/>
      <point x="301" y="303"/>
      <point x="453" y="42"/>
      <point x="731" y="39" type="curve"/>
      <point x="990" y="39"/>
      <point x="1171" y="233"/>
    </contour>
    <contour>
      <point x="735" y="-100" type="move" name="L"/>
    </contour>
    <contour>
      <point x="735" y="1435" type="move" name="U"/>
    </contour>
  </outline>
</glyph>
<glyph name="Q" format="2">
  <advance width="1481"/>
  <unicode hex="0051"/>
  <anchor x="736" y="-270" name="L"/>
  <anchor x="736" y="1435" name="U"/>
  <outline>
    <contour>
      <point x="1402" y="678" type="curve" smooth="yes"/>
      <point x="1402" y="346"/>
      <point x="1200" y="78"/>
      <point x="904" y="-13" type="curve"/>
      <point x="1034" y="-244"/>
      <point x="1188" y="-353"/>
      <point x="1395" y="-369" type="curve"/>
      <point x="1395" y="-402" type="line"/>
      <point x="1071" y="-388"/>
      <point x="733" y="-205"/>
      <point x="558" y="-13" type="curve"/>
      <point x="199" y="112"/>
      <point x="71" y="389"/>
      <point x="71" y="681" type="curve" smooth="yes"/>
      <point x="71" y="1089"/>
      <point x="367" y="1389"/>
      <point x="747" y="1389" type="curve" smooth="yes"/>
      <point x="1107" y="1389"/>
      <point x="1402" y="1093"/>
    </contour>
    <contour>
      <point x="1174" y="653" type="curve" smooth="yes"/>
      <point x="1174" y="1057"/>
      <point x="1019" y="1313"/>
      <point x="734" y="1313" type="curve" smooth="yes"/>
      <point x="466" y="1313"/>
      <point x="301" y="1094"/>
      <point x="301" y="681" type="curve" smooth="yes"/>
      <point x="301" y="299"/>
      <point x="453" y="38"/>
      <point x="734" y="38" type="curve"/>
      <point x="1013" y="35"/>
      <point x="1174" y="270"/>
    </contour>
  </outline>
</glyph>
<glyph name="R" format="2">
  <advance width="1368"/>
  <unicode hex="0052"/>
  <anchor x="712" y="-100" name="L"/>
  <anchor x="612" y="1435" name="U"/>
  <outline>
    <contour>
      <point x="1387" y="0" type="line"/>
      <point x="1387" y="38" type="line"/>
      <point x="1238" y="54"/>
      <point x="1162" y="98"/>
      <point x="1038" y="270" type="curve"/>
      <point x="761" y="660" type="line"/>
      <point x="988" y="714"/>
      <point x="1095" y="840"/>
      <point x="1095" y="1011" type="curve" smooth="yes"/>
      <point x="1095" y="1163"/>
      <point x="989" y="1280"/>
      <point x="850" y="1325" type="curve" smooth="yes"/>
      <point x="781" y="1348"/>
      <point x="673" y="1357"/>
      <point x="528" y="1357" type="curve" smooth="yes"/>
      <point x="36" y="1357" type="line"/>
      <point x="36" y="1320" type="line"/>
      <point x="87" y="1320" type="line" smooth="yes"/>
      <point x="138" y="1320"/>
      <point x="175" y="1305"/>
      <point x="204" y="1278" type="curve"/>
      <point x="221" y="1255"/>
      <point x="229" y="1201"/>
      <point x="229" y="1118" type="curve" smooth="yes"/>
      <point x="229" y="241" type="line" smooth="yes"/>
      <point x="229" y="163"/>
      <point x="222" y="113"/>
      <point x="209" y="92" type="curve" smooth="yes"/>
      <point x="186" y="56"/>
      <point x="146" y="38"/>
      <point x="87" y="38" type="curve" smooth="yes"/>
      <point x="36" y="38" type="line"/>
      <point x="36" y="0" type="line"/>
      <point x="618" y="0" type="line"/>
      <point x="618" y="38" type="line"/>
      <point x="565" y="38" type="line" smooth="yes"/>
      <point x="514" y="38"/>
      <point x="475" y="53"/>
      <point x="450" y="83" type="curve"/>
      <point x="430" y="102"/>
      <point x="420" y="155"/>
      <point x="420" y="241" type="curve" smooth="yes"/>
      <point x="420" y="635" type="line"/>
      <point x="443" y="630"/>
      <point x="461" y="630"/>
      <point x="481" y="630" type="curve" smooth="yes"/>
      <point x="502" y="630"/>
      <point x="528" y="634"/>
      <point x="565" y="635" type="curve"/>
      <point x="1023" y="0" type="line"/>
    </contour>
    <contour>
      <point x="869" y="994" type="curve" smooth="yes"/>
      <point x="869" y="823"/>
      <point x="743" y="698"/>
      <point x="477" y="698" type="curve" smooth="yes"/>
      <point x="420" y="698" type="line"/>
      <point x="420" y="1265" type="line"/>
      <point x="491" y="1276"/>
      <point x="542" y="1281"/>
      <point x="577" y="1281" type="curve" smooth="yes"/>
      <point x="756" y="1281"/>
      <point x="869" y="1162"/>
    </contour>
  </outline>
</glyph>
<glyph name="T" format="2">
  <advance width="1248"/>
  <unicode hex="0054"/>
  <anchor x="624" y="-100" name="L"/>
  <anchor x="624" y="1435" name="U"/>
  <outline>
    <contour>
      <point x="1201" y="1038" type="line"/>
      <point x="1158" y="1038" type="line"/>
      <point x="1145" y="1137"/>
      <point x="1126" y="1175"/>
      <point x="1095" y="1206" type="curve"/>
      <point x="1052" y="1253"/>
      <point x="999" y="1274"/>
      <point x="910" y="1274" type="curve" smooth="yes"/>
      <point x="718" y="1274" type="line"/>
      <point x="718" y="237" type="line" smooth="yes"/>
      <point x="718" y="153"/>
      <point x="729" y="100"/>
      <point x="745" y="79" type="curve"/>
      <point x="769" y="52"/>
      <point x="808" y="38"/>
      <point x="861" y="38" type="curve" smooth="yes"/>
      <point x="910" y="38" type="line"/>
      <point x="910" y="0" type="line"/>
      <point x="333" y="0" type="line"/>
      <point x="333" y="38" type="line"/>
      <point x="382" y="38" type="line" smooth="yes"/>
      <point x="442" y="38"/>
      <point x="477" y="53"/>
      <point x="504" y="90" type="curve"/>
      <point x="517" y="111"/>
      <point x="526" y="157"/>
      <point x="526" y="237" type="curve" smooth="yes"/>
      <point x="526" y="1274" type="line"/>
      <point x="363" y="1274" type="line" smooth="yes"/>
      <point x="256" y="1274"/>
      <point x="216" y="1264"/>
      <point x="179" y="1230" type="curve"/>
      <point x="130" y="1194"/>
      <point x="102" y="1130"/>
      <point x="94" y="1038" type="curve"/>
      <point x="49" y="1038" type="line"/>
      <point x="64" y="1357" type="line"/>
      <point x="1189" y="1357" type="line"/>
    </contour>
  </outline>
</glyph>
<glyph name="U" format="1">
  <advance width="1481"/>
  <unicode hex="0055"/>
  <outline>
    <contour>
      <point x="1459" y="1320" type="line"/>
      <point x="1408" y="1320" type="line" smooth="yes"/>
      <point x="1352" y="1320"/>
      <point x="1317" y="1299"/>
      <point x="1286" y="1251" type="curve"/>
      <point x="1270" y="1232"/>
      <point x="1265" y="1186"/>
      <point x="1265" y="1111" type="curve" smooth="yes"/>
      <point x="1265" y="558" type="line" smooth="yes"/>
      <point x="1265" y="371"/>
      <point x="1240" y="219"/>
      <point x="1145" y="118" type="curve" smooth="yes"/>
      <point x="1049" y="14"/>
      <point x="938" y="-32"/>
      <point x="739" y="-32" type="curve" smooth="yes"/>
      <point x="184" y="-32"/>
      <point x="207" y="371"/>
      <point x="207" y="585" type="curve" smooth="yes"/>
      <point x="207" y="1118" type="line" smooth="yes"/>
      <point x="207" y="1202"/>
      <point x="197" y="1256"/>
      <point x="174" y="1281" type="curve"/>
      <point x="153" y="1310"/>
      <point x="116" y="1320"/>
      <point x="61" y="1320" type="curve" smooth="yes"/>
      <point x="30" y="1320" type="line"/>
      <point x="30" y="1357" type="line"/>
      <point x="577" y="1357" type="line"/>
      <point x="577" y="1320" type="line"/>
      <point x="527" y="1320" type="line" smooth="yes"/>
      <point x="471" y="1320"/>
      <point x="449" y="1304"/>
      <point x="425" y="1267" type="curve" smooth="yes"/>
      <point x="410" y="1242"/>
      <point x="400" y="1193"/>
      <point x="400" y="1118" type="curve" smooth="yes"/>
      <point x="400" y="526" type="line" smooth="yes"/>
      <point x="400" y="348"/>
      <point x="408" y="53"/>
      <point x="753" y="53" type="curve" smooth="yes"/>
      <point x="917" y="53"/>
      <point x="1028" y="130"/>
      <point x="1079" y="175" type="curve"/>
      <point x="1163" y="255"/>
      <point x="1174" y="425"/>
      <point x="1174" y="520" type="curve" smooth="yes"/>
      <point x="1174" y="568" type="line"/>
      <point x="1174" y="1118" type="line" smooth="yes"/>
      <point x="1174" y="1202"/>
      <point x="1165" y="1254"/>
      <point x="1145" y="1278" type="curve"/>
      <point x="1118" y="1306"/>
      <point x="1080" y="1320"/>
      <point x="1029" y="1320" type="curve" smooth="yes"/>
      <point x="979" y="1320" type="line"/>
      <point x="979" y="1357" type="line"/>
      <point x="1459" y="1357" type="line"/>
    </contour>
    <contour>
      <point x="744" y="-100" type="move" name="L"/>
    </contour>
    <contour>
      <point x="744" y="1435" type="move" name="U"/>
    </contour>
  </outline>
</glyph>
<glyph name="V" format="1">
  <advance width="1481"/>
  <unicode hex="0056"/>
  <outline>
    <contour>
      <point x="1455" y="1357" type="line"/>
      <point x="1455" y="1320" type="line"/>
      <point x="1408" y="1315"/>
      <point x="1370" y="1300"/>
      <point x="1347" y="1275" type="curve"/>
      <point x="1312" y="1243"/>
      <point x="1280" y="1193"/>
      <point x="1251" y="1126" type="curve"/>
      <point x="780" y="-32" type="line"/>
      <point x="742" y="-32" type="line"/>
      <point x="235" y="1140" type="line"/>
      <point x="187" y="1255"/>
      <point x="170" y="1262"/>
      <point x="146" y="1280" type="curve" smooth="yes"/>
      <point x="115" y="1303"/>
      <point x="82" y="1316"/>
      <point x="17" y="1320" type="curve"/>
      <point x="17" y="1357" type="line"/>
      <point x="573" y="1357" type="line"/>
      <point x="573" y="1320" type="line"/>
      <point x="492" y="1315"/>
      <point x="451" y="1300"/>
      <point x="435" y="1272" type="curve"/>
      <point x="410" y="1236"/>
      <point x="423" y="1176"/>
      <point x="467" y="1073" type="curve"/>
      <point x="814" y="276" type="line"/>
      <point x="1135" y="1065" type="line"/>
      <point x="1174" y="1165"/>
      <point x="1193" y="1223"/>
      <point x="1172" y="1258" type="curve"/>
      <point x="1157" y="1280"/>
      <point x="1135" y="1304"/>
      <point x="1037" y="1320" type="curve"/>
      <point x="1037" y="1357" type="line"/>
    </contour>
    <contour>
      <point x="735" y="-100" type="move" name="L"/>
    </contour>
    <contour>
      <point x="735" y="1435" type="move" name="U"/>
    </contour>
  </outline>
</glyph>
<glyph name="W" format="2">
  <advance width="1935"/>
  <unicode hex="0057"/>
  <anchor x="974" y="-100" name="L"/>
  <anchor x="974" y="1435" name="U"/>
  <outline>
    <contour>
      <point x="1919" y="1357" type="line"/>
      <point x="1515" y="1357" type="line"/>
      <point x="1515" y="1320" type="line"/>
      <point x="1578" y="1320"/>
      <point x="1624" y="1313"/>
      <point x="1649" y="1278" type="curve" smooth="yes"/>
      <point x="1677" y="1238"/>
      <point x="1661" y="1187"/>
      <point x="1620" y="1065" type="curve"/>
      <point x="1363" y="316" type="line"/>
      <point x="1101" y="1056" type="line"/>
      <point x="1070" y="1140"/>
      <point x="1058" y="1196"/>
      <point x="1058" y="1233" type="curve" smooth="yes"/>
      <point x="1058" y="1291"/>
      <point x="1094" y="1320"/>
      <point x="1166" y="1320" type="curve" smooth="yes"/>
      <point x="1201" y="1320" type="line"/>
      <point x="1201" y="1357" type="line"/>
      <point x="673" y="1357" type="line"/>
      <point x="673" y="1320" type="line"/>
      <point x="729" y="1320"/>
      <point x="755" y="1309"/>
      <point x="782" y="1288" type="curve" smooth="yes"/>
      <point x="820" y="1258"/>
      <point x="856" y="1179"/>
      <point x="885" y="1104" type="curve" smooth="yes"/>
      <point x="903" y="1060"/>
      <point x="919" y="1013"/>
      <point x="934" y="964" type="curve"/>
      <point x="707" y="316" type="line"/>
      <point x="443" y="1079" type="line"/>
      <point x="390" y="1228"/>
      <point x="396" y="1249"/>
      <point x="408" y="1275" type="curve" smooth="yes"/>
      <point x="423" y="1305"/>
      <point x="455" y="1320"/>
      <point x="504" y="1320" type="curve" smooth="yes"/>
      <point x="528" y="1320" type="line"/>
      <point x="528" y="1357" type="line"/>
      <point x="28" y="1357" type="line"/>
      <point x="28" y="1320" type="line"/>
      <point x="89" y="1320"/>
      <point x="126" y="1309"/>
      <point x="149" y="1278" type="curve"/>
      <point x="175" y="1262"/>
      <point x="179" y="1245"/>
      <point x="233" y="1097" type="curve"/>
      <point x="635" y="-32" type="line"/>
      <point x="673" y="-32" type="line"/>
      <point x="981" y="835" type="line"/>
      <point x="1288" y="-32" type="line"/>
      <point x="1328" y="-32" type="line"/>
      <point x="1705" y="1065" type="line"/>
      <point x="1734" y="1152"/>
      <point x="1759" y="1207"/>
      <point x="1771" y="1230" type="curve" smooth="yes"/>
      <point x="1812" y="1306"/>
      <point x="1857" y="1320"/>
      <point x="1919" y="1320" type="curve"/>
    </contour>
  </outline>
</glyph>
<glyph name="X" format="2">
  <advance width="1481"/>
  <unicode hex="0058"/>
  <anchor x="734" y="-100" name="L"/>
  <anchor x="734" y="1435" name="U"/>
  <outline>
    <contour>
      <point x="1455" y="0" type="line"/>
      <point x="1455" y="38" type="line"/>
      <point x="1337" y="46"/>
      <point x="1291" y="75"/>
      <point x="1127" y="319" type="curve" smooth="yes"/>
      <point x="835" y="753" type="line"/>
      <point x="1109" y="1097" type="line"/>
      <point x="1224" y="1244"/>
      <point x="1279" y="1315"/>
      <point x="1426" y="1320" type="curve"/>
      <point x="1426" y="1357" type="line"/>
      <point x="943" y="1357" type="line"/>
      <point x="943" y="1320" type="line"/>
      <point x="1040" y="1320"/>
      <point x="1061" y="1306"/>
      <point x="1079" y="1281" type="curve" smooth="yes"/>
      <point x="1104" y="1248"/>
      <point x="1086" y="1202"/>
      <point x="1027" y="1130" type="curve"/>
      <point x="787" y="825" type="line"/>
      <point x="577" y="1136" type="line"/>
      <point x="515" y="1232"/>
      <point x="520" y="1259"/>
      <point x="560" y="1294" type="curve"/>
      <point x="581" y="1310"/>
      <point x="618" y="1319"/>
      <point x="670" y="1320" type="curve"/>
      <point x="670" y="1357" type="line"/>
      <point x="43" y="1357" type="line"/>
      <point x="43" y="1320" type="line"/>
      <point x="176" y="1315"/>
      <point x="264" y="1266"/>
      <point x="402" y="1061" type="curve"/>
      <point x="670" y="668" type="line"/>
      <point x="348" y="262" type="line"/>
      <point x="256" y="149"/>
      <point x="133" y="41"/>
      <point x="13" y="38" type="curve"/>
      <point x="13" y="0" type="line"/>
      <point x="497" y="0" type="line"/>
      <point x="497" y="38" type="line"/>
      <point x="392" y="41"/>
      <point x="367" y="73"/>
      <point x="367" y="115" type="curve" smooth="yes"/>
      <point x="367" y="147"/>
      <point x="374" y="165"/>
      <point x="427" y="233" type="curve" smooth="yes"/>
      <point x="713" y="598" type="line"/>
      <point x="943" y="248" type="line" smooth="yes"/>
      <point x="1018" y="133"/>
      <point x="1021" y="116"/>
      <point x="994" y="75" type="curve" smooth="yes"/>
      <point x="975" y="47"/>
      <point x="942" y="38"/>
      <point x="874" y="38" type="curve"/>
      <point x="874" y="0" type="line"/>
    </contour>
  </outline>
</glyph>
<glyph name="Y" format="2">
  <advance width="1481"/>
  <unicode hex="0059"/>
  <anchor x="734" y="-100" name="L"/>
  <anchor x="734" y="1435" name="U"/>
  <outline>
    <contour>
      <point x="1450" y="1320" type="line"/>
      <point x="1450" y="1357" type="line"/>
      <point x="979" y="1357" type="line"/>
      <point x="979" y="1320" type="line"/>
      <point x="1054" y="1320"/>
      <point x="1083" y="1301"/>
      <point x="1098" y="1274" type="curve"/>
      <point x="1136" y="1225"/>
      <point x="1114" y="1175"/>
      <point x="1056" y="1082" type="curve"/>
      <point x="787" y="665" type="line"/>
      <point x="504" y="1101" type="line"/>
      <point x="464" y="1166"/>
      <point x="444" y="1210"/>
      <point x="444" y="1233" type="curve" smooth="yes"/>
      <point x="444" y="1306"/>
      <point x="534" y="1320"/>
      <point x="570" y="1320" type="curve" smooth="yes"/>
      <point x="600" y="1320" type="line"/>
      <point x="600" y="1357" type="line"/>
      <point x="17" y="1357" type="line"/>
      <point x="17" y="1320" type="line"/>
      <point x="70" y="1320"/>
      <point x="121" y="1293"/>
      <point x="156" y="1266" type="curve"/>
      <point x="193" y="1235"/>
      <point x="220" y="1190"/>
      <point x="264" y="1126" type="curve"/>
      <point x="635" y="558" type="line"/>
      <point x="635" y="237" type="line" smooth="yes"/>
      <point x="635" y="157"/>
      <point x="627" y="111"/>
      <point x="615" y="90" type="curve"/>
      <point x="588" y="53"/>
      <point x="550" y="38"/>
      <point x="493" y="38" type="curve" smooth="yes"/>
      <point x="446" y="38" type="line"/>
      <point x="446" y="0" type="line"/>
      <point x="1021" y="0" type="line"/>
      <point x="1021" y="38" type="line"/>
      <point x="979" y="38" type="line" smooth="yes"/>
      <point x="921" y="38"/>
      <point x="881" y="52"/>
      <point x="858" y="79" type="curve"/>
      <point x="838" y="99"/>
      <point x="828" y="152"/>
      <point x="828" y="237" type="curve" smooth="yes"/>
      <point x="828" y="576" type="line"/>
      <point x="1158" y="1090" type="line"/>
      <point x="1199" y="1157"/>
      <point x="1230" y="1202"/>
      <point x="1258" y="1233" type="curve" smooth="yes"/>
      <point x="1316" y="1296"/>
      <point x="1392" y="1320"/>
      <point x="1426" y="1320" type="curve" smooth="yes"/>
    </contour>
  </outline>
</glyph>
<glyph name="Z" format="1">
  <advance width="1251"/>
  <unicode hex="005A"/>
  <outline>
    <contour>
      <point x="1195" y="359" type="line"/>
      <point x="1133" y="0" type="line"/>
      <point x="28" y="0" type="line"/>
      <point x="28" y="38" type="line"/>
      <point x="896" y="1278" type="line"/>
      <point x="463" y="1278" type="line" smooth="yes"/>
      <point x="359" y="1278"/>
      <point x="306" y="1264"/>
      <point x="266" y="1228" type="curve" smooth="yes"/>
      <point x="232" y="1199"/>
      <point x="207" y="1147"/>
      <point x="186" y="1018" type="curve"/>
      <point x="148" y="1018" type="line"/>
      <point x="175" y="1357" type="line"/>
      <point x="1180" y="1357" type="line"/>
      <point x="289" y="83" type="line"/>
      <point x="844" y="83" type="line" smooth="yes"/>
      <point x="929" y="83"/>
      <point x="993" y="99"/>
      <point x="1038" y="138" type="curve"/>
      <point x="1086" y="175"/>
      <point x="1125" y="249"/>
      <point x="1164" y="366" type="curve"/>
    </contour>
    <contour>
      <point x="612" y="-100" type="move" name="L"/>
    </contour>
    <contour>
      <point x="612" y="1435" type="move" name="U"/>
    </contour>
  </outline>
</glyph>
<glyph name="bracketleft" format="2">
  <advance width="682"/>
  <unicode hex="005B"/>
  <outline>
    <contour>
      <point x="166" y="-406" type="line"/>
      <point x="607" y="-406" type="line"/>
      <point x="607" y="-327" type="line"/>
      <point x="316" y="-327" type="line"/>
      <point x="316" y="1312" type="line"/>
      <point x="607" y="1312" type="line"/>
      <point x="607" y="1389" type="line"/>
      <point x="166" y="1389" type="line"/>
    </contour>
  </outline>
</glyph>
<glyph name="backslash" format="1">
  <advance width="570"/>
  <unicode hex="005C"/>
  <outline>
    <contour>
      <point x="496" y="-30" type="line"/>
      <point x="577" y="-30" type="line"/>
      <point x="89" y="1424" type="line"/>
      <point x="2" y="1424" type="line"/>
    </contour>
  </outline>
</glyph>
<glyph name="bracketright" format="1">
  <advance width="682"/>
  <unicode hex="005D"/>
  <outline>
    <contour>
      <point x="77" y="-408" type="line"/>
      <point x="517" y="-408" type="line"/>
      <point x="517" y="1389" type="line"/>
      <point x="77" y="1389" type="line"/>
      <point x="77" y="1312" type="line"/>
      <point x="367" y="1312" type="line"/>
      <point x="367" y="-327" type="line"/>
      <point x="77" y="-327" type="line"/>
    </contour>
  </outline>
</glyph>
<glyph name="asciicircum" format="1">
  <advance width="643"/>
  <unicode hex="005E"/>
  <outline>
    <contour>
      <point x="643" y="1043" type="line"/>
      <point x="573" y="1043" type="line"/>
      <point x="321" y="1257" type="line"/>
      <point x="71" y="1043" type="line"/>
      <point x="0" y="1043" type="line"/>
      <point x="258" y="1387" type="line"/>
      <point x="386" y="1387" type="line"/>
    </contour>
    <contour>
      <point x="321" y="1375" type="move" name="U"/>
    </contour>
  </outline>
</glyph>
<glyph name="grave" format="1">
  <advance width="703"/>
  <unicode hex="0060"/>
  <outline>
    <contour>
      <point x="384" y="1043" type="line"/>
      <point x="467" y="1043" type="line"/>
      <point x="183" y="1328" type="line" smooth="yes"/>
      <point x="146" y="1366"/>
      <point x="98" y="1396"/>
      <point x="64" y="1396" type="curve" smooth="yes"/>
      <point x="24" y="1396"/>
      <point x="0" y="1366"/>
      <point x="0" y="1319" type="curve" smooth="yes"/>
      <point x="0" y="1283"/>
      <point x="55" y="1251"/>
      <point x="89" y="1230" type="curve" smooth="yes"/>
    </contour>
    <contour>
      <point x="233" y="1375" type="move" name="U"/>
    </contour>
  </outline>
</glyph>
<glyph name="a" format="2">
  <advance width="911"/>
  <unicode hex="0061"/>
  <anchor x="445" y="-100" name="L"/>
  <anchor x="445" y="1000" name="U"/>
  <outline>
    <contour>
      <point x="910" y="190" type="line"/>
      <point x="834" y="116"/>
      <point x="828" y="109"/>
      <point x="800" y="109" type="curve" smooth="yes"/>
      <point x="775" y="109"/>
      <point x="762" y="122"/>
      <point x="757" y="158" type="curve"/>
      <point x="756" y="177"/>
      <point x="751" y="232"/>
      <point x="751" y="319" type="curve" smooth="yes"/>
      <point x="751" y="630" type="line" smooth="yes"/>
      <point x="751" y="824"/>
      <point x="710" y="943"/>
      <point x="444" y="943" type="curve" smooth="yes"/>
      <point x="269" y="943"/>
      <point x="109" y="857"/>
      <point x="109" y="713" type="curve" smooth="yes"/>
      <point x="109" y="653"/>
      <point x="140" y="618"/>
      <point x="193" y="618" type="curve" smooth="yes"/>
      <point x="244" y="618"/>
      <point x="279" y="653"/>
      <point x="276" y="712" type="curve"/>
      <point x="274" y="772" type="line"/>
      <point x="278" y="835"/>
      <point x="329" y="883"/>
      <point x="412" y="883" type="curve" smooth="yes"/>
      <point x="529" y="883"/>
      <point x="583" y="822"/>
      <point x="583" y="645" type="curve" smooth="yes"/>
      <point x="583" y="607" type="line"/>
      <point x="147" y="457"/>
      <point x="74" y="352"/>
      <point x="74" y="217" type="curve" smooth="yes"/>
      <point x="74" y="75"/>
      <point x="161" y="-17"/>
      <point x="292" y="-17" type="curve" smooth="yes"/>
      <point x="389" y="-17"/>
      <point x="422" y="6"/>
      <point x="583" y="132" type="curve"/>
      <point x="583" y="16"/>
      <point x="631" y="-17"/>
      <point x="690" y="-17" type="curve" smooth="yes"/>
      <point x="761" y="-17"/>
      <point x="835" y="33"/>
      <point x="910" y="132" type="curve"/>
    </contour>
    <contour>
      <point x="583" y="197" type="line"/>
      <point x="499" y="129"/>
      <point x="434" y="93"/>
      <point x="382" y="97" type="curve"/>
      <point x="305" y="97"/>
      <point x="243" y="170"/>
      <point x="243" y="264" type="curve" smooth="yes"/>
      <point x="243" y="351"/>
      <point x="274" y="429"/>
      <point x="583" y="549" type="curve"/>
    </contour>
  </outline>
</glyph>
<glyph name="b" format="2">
  <advance width="1026"/>
  <unicode hex="0062"/>
  <anchor x="540" y="-100" name="L"/>
  <anchor x="540" y="1435" name="U"/>
  <outline>
    <contour>
      <point x="954" y="496" type="curve" smooth="yes"/>
      <point x="954" y="773"/>
      <point x="790" y="943"/>
      <point x="604" y="943" type="curve" smooth="yes"/>
      <point x="500" y="943"/>
      <point x="404" y="881"/>
      <point x="316" y="758" type="curve"/>
      <point x="316" y="1424" type="line"/>
      <point x="269" y="1424" type="line"/>
      <point x="-8" y="1313" type="line"/>
      <point x="6" y="1278" type="line"/>
      <point x="69" y="1298"/>
      <point x="95" y="1299"/>
      <point x="116" y="1280" type="curve"/>
      <point x="140" y="1261"/>
      <point x="148" y="1242"/>
      <point x="148" y="1037" type="curve" smooth="yes"/>
      <point x="148" y="89" type="line"/>
      <point x="267" y="8"/>
      <point x="376" y="-30"/>
      <point x="481" y="-30" type="curve" smooth="yes"/>
      <point x="733" y="-30"/>
      <point x="954" y="192"/>
    </contour>
    <contour>
      <point x="781" y="438" type="curve" smooth="yes"/>
      <point x="781" y="177"/>
      <point x="652" y="45"/>
      <point x="532" y="45" type="curve" smooth="yes"/>
      <point x="455" y="45"/>
      <point x="381" y="81"/>
      <point x="316" y="146" type="curve"/>
      <point x="316" y="697" type="line"/>
      <point x="419" y="789"/>
      <point x="472" y="804"/>
      <point x="523" y="804" type="curve" smooth="yes"/>
      <point x="662" y="804"/>
      <point x="781" y="667"/>
    </contour>
  </outline>
</glyph>
<glyph name="c" format="2">
  <advance width="911"/>
  <unicode hex="0063"/>
  <anchor x="455" y="0" name="H"/>
  <anchor x="481" y="-100" name="L"/>
  <anchor x="481" y="1000" name="U"/>
  <outline>
    <contour>
      <point x="842" y="348" type="curve"/>
      <point x="814" y="363" type="line"/>
      <point x="735" y="174"/>
      <point x="644" y="130"/>
      <point x="530" y="130" type="curve" smooth="yes"/>
      <point x="339" y="130"/>
      <point x="233" y="327"/>
      <point x="233" y="544" type="curve" smooth="yes"/>
      <point x="233" y="734"/>
      <point x="321" y="877"/>
      <point x="474" y="877" type="curve" smooth="yes"/>
      <point x="566" y="877"/>
      <point x="607" y="829"/>
      <point x="613" y="757" type="curve" smooth="yes"/>
      <point x="622" y="646"/>
      <point x="684" y="639"/>
      <point x="724" y="639" type="curve" smooth="yes"/>
      <point x="788" y="639"/>
      <point x="819" y="677"/>
      <point x="819" y="724" type="curve" smooth="yes"/>
      <point x="819" y="775"/>
      <point x="788" y="825"/>
      <point x="729" y="872" type="curve" smooth="yes"/>
      <point x="672" y="919"/>
      <point x="597" y="943"/>
      <point x="506" y="943" type="curve" smooth="yes"/>
      <point x="268" y="943"/>
      <point x="69" y="747"/>
      <point x="69" y="458" type="curve" smooth="yes"/>
      <point x="69" y="160"/>
      <point x="243" y="-30"/>
      <point x="459" y="-30" type="curve" smooth="yes"/>
      <point x="641" y="-30"/>
      <point x="805" y="128"/>
    </contour>
  </outline>
</glyph>
<glyph name="d" format="2">
  <advance width="1026"/>
  <unicode hex="0064"/>
  <anchor x="550" y="-100" name="L"/>
  <anchor x="547" y="1435" name="U"/>
  <outline>
    <contour>
      <point x="1034" y="85" type="line"/>
      <point x="757" y="-30" type="line"/>
      <point x="712" y="-30" type="line"/>
      <point x="712" y="102" type="line"/>
      <point x="629" y="17"/>
      <point x="551" y="-30"/>
      <point x="444" y="-30" type="curve" smooth="yes"/>
      <point x="241" y="-30"/>
      <point x="67" y="161"/>
      <point x="67" y="420" type="curve" smooth="yes"/>
      <point x="67" y="658"/>
      <point x="228" y="944"/>
      <point x="512" y="944" type="curve" smooth="yes"/>
      <point x="593" y="944"/>
      <point x="659" y="920"/>
      <point x="712" y="867" type="curve"/>
      <point x="712" y="1037" type="line" smooth="yes"/>
      <point x="712" y="1241"/>
      <point x="702" y="1256"/>
      <point x="681" y="1280" type="curve"/>
      <point x="658" y="1303"/>
      <point x="625" y="1295"/>
      <point x="573" y="1278" type="curve"/>
      <point x="558" y="1313" type="line"/>
      <point x="834" y="1424" type="line"/>
      <point x="880" y="1424" type="line"/>
      <point x="880" y="363" type="line" smooth="yes"/>
      <point x="880" y="168"/>
      <point x="881" y="136"/>
      <point x="911" y="116" type="curve"/>
      <point x="934" y="96"/>
      <point x="968" y="100"/>
      <point x="1021" y="120" type="curve"/>
    </contour>
    <contour>
      <point x="712" y="174" type="curve"/>
      <point x="712" y="647" type="line" smooth="yes"/>
      <point x="712" y="747"/>
      <point x="632" y="880"/>
      <point x="500" y="883" type="curve"/>
      <point x="365" y="888"/>
      <point x="252" y="738"/>
      <point x="252" y="500" type="curve" smooth="yes"/>
      <point x="252" y="203"/>
      <point x="405" y="86"/>
      <point x="535" y="83" type="curve"/>
      <point x="598" y="83"/>
      <point x="653" y="113"/>
    </contour>
  </outline>
</glyph>
<glyph name="e" format="1">
  <advance width="911"/>
  <unicode hex="0065"/>
  <outline>
    <contour>
      <point x="820" y="355" type="curve"/>
      <point x="852" y="335" type="line"/>
      <point x="828" y="156"/>
      <point x="684" y="-30"/>
      <point x="475" y="-30" type="curve" smooth="yes"/>
      <point x="258" y="-30"/>
      <point x="75" y="156"/>
      <point x="75" y="448" type="curve" smooth="yes"/>
      <point x="75" y="759"/>
      <point x="252" y="944"/>
      <point x="500" y="944" type="curve" smooth="yes"/>
      <point x="703" y="944"/>
      <point x="852" y="804"/>
      <point x="852" y="573" type="curve"/>
      <point x="217" y="573" type="line"/>
      <point x="217" y="298"/>
      <point x="372" y="139"/>
      <point x="551" y="136" type="curve"/>
      <point x="670" y="133"/>
      <point x="758" y="186"/>
    </contour>
    <contour>
      <point x="217" y="628" type="curve"/>
      <point x="643" y="628" type="line"/>
      <point x="643" y="829"/>
      <point x="510" y="874"/>
      <point x="444" y="874" type="curve" smooth="yes"/>
      <point x="337" y="874"/>
      <point x="233" y="788"/>
    </contour>
    <contour>
      <point x="485" y="-100" type="move" name="L"/>
    </contour>
    <contour>
      <point x="485" y="1000" type="move" name="U"/>
    </contour>
  </outline>
</glyph>
<glyph name="f" format="2">
  <advance width="682"/>
  <unicode hex="0066"/>
  <anchor x="338" y="-100" name="L"/>
  <anchor x="570" y="1375" name="U"/>
  <outline>
    <contour>
      <point x="80" y="0" type="line"/>
      <point x="632" y="0" type="line"/>
      <point x="632" y="38" type="line"/>
      <point x="550" y="38" type="line" smooth="yes"/>
      <point x="506" y="38"/>
      <point x="473" y="52"/>
      <point x="451" y="80" type="curve"/>
      <point x="430" y="103"/>
      <point x="422" y="158"/>
      <point x="422" y="243" type="curve" smooth="yes"/>
      <point x="422" y="844" type="line"/>
      <point x="658" y="844" type="line"/>
      <point x="658" y="917" type="line"/>
      <point x="422" y="917" type="line"/>
      <point x="422" y="982" type="line" smooth="yes"/>
      <point x="422" y="1241"/>
      <point x="433" y="1349"/>
      <point x="560" y="1349" type="curve"/>
      <point x="701" y="1347"/>
      <point x="705" y="1168"/>
      <point x="811" y="1168" type="curve" smooth="yes"/>
      <point x="858" y="1168"/>
      <point x="891" y="1218"/>
      <point x="891" y="1251" type="curve" smooth="yes"/>
      <point x="891" y="1345"/>
      <point x="756" y="1424"/>
      <point x="639" y="1424" type="curve" smooth="yes"/>
      <point x="575" y="1424"/>
      <point x="254" y="1392"/>
      <point x="254" y="979" type="curve" smooth="yes"/>
      <point x="254" y="917" type="line"/>
      <point x="75" y="917" type="line"/>
      <point x="75" y="844" type="line"/>
      <point x="254" y="844" type="line"/>
      <point x="254" y="243" type="line" smooth="yes"/>
      <point x="254" y="126"/>
      <point x="244" y="98"/>
      <point x="213" y="69" type="curve"/>
      <point x="182" y="42"/>
      <point x="154" y="38"/>
      <point x="122" y="38" type="curve" smooth="yes"/>
      <point x="80" y="38" type="line"/>
    </contour>
  </outline>
</glyph>
<glyph name="g" format="2">
  <advance width="1026"/>
  <unicode hex="0067"/>
  <anchor x="524" y="-500" name="L"/>
  <anchor x="511" y="1000" name="U"/>
  <outline>
    <contour>
      <point x="463" y="-444" type="curve" smooth="yes"/>
      <point x="756" y="-444"/>
      <point x="976" y="-269"/>
      <point x="976" y="-85" type="curve" smooth="yes"/>
      <point x="976" y="127"/>
      <point x="728" y="132"/>
      <point x="657" y="132" type="curve"/>
      <point x="359" y="144"/>
      <point x="325" y="141"/>
      <point x="299" y="167" type="curve"/>
      <point x="258" y="205"/>
      <point x="305" y="276"/>
      <point x="359" y="316" type="curve"/>
      <point x="406" y="301"/>
      <point x="454" y="296"/>
      <point x="499" y="296" type="curve" smooth="yes"/>
      <point x="728" y="296"/>
      <point x="862" y="438"/>
      <point x="859" y="605" type="curve"/>
      <point x="859" y="681"/>
      <point x="840" y="741"/>
      <point x="805" y="789" type="curve"/>
      <point x="922" y="789" type="line"/>
      <point x="931" y="788"/>
      <point x="939" y="788"/>
      <point x="946" y="789" type="curve"/>
      <point x="961" y="789"/>
      <point x="972" y="790"/>
      <point x="979" y="797" type="curve"/>
      <point x="984" y="806"/>
      <point x="988" y="828"/>
      <point x="988" y="835" type="curve" smooth="yes"/>
      <point x="988" y="860"/>
      <point x="983" y="874"/>
      <point x="974" y="875" type="curve"/>
      <point x="965" y="878"/>
      <point x="956" y="879"/>
      <point x="948" y="879" type="curve" smooth="yes"/>
      <point x="920" y="879"/>
      <point x="896" y="874"/>
      <point x="834" y="874" type="curve" smooth="yes"/>
      <point x="707" y="874"/>
      <point x="658" y="943"/>
      <point x="500" y="943" type="curve" smooth="yes"/>
      <point x="272" y="943"/>
      <point x="136" y="785"/>
      <point x="136" y="613" type="curve" smooth="yes"/>
      <point x="136" y="504"/>
      <point x="193" y="385"/>
      <point x="310" y="335" type="curve"/>
      <point x="172" y="218"/>
      <point x="149" y="165"/>
      <point x="149" y="118" type="curve" smooth="yes"/>
      <point x="149" y="71"/>
      <point x="183" y="47"/>
      <point x="244" y="8" type="curve"/>
      <point x="101" y="-135"/>
      <point x="61" y="-199"/>
      <point x="61" y="-252" type="curve" smooth="yes"/>
      <point x="61" y="-348"/>
      <point x="262" y="-444"/>
    </contour>
    <contour>
      <point x="551" y="-321" type="curve" smooth="yes"/>
      <point x="346" y="-321"/>
      <point x="205" y="-259"/>
      <point x="205" y="-175" type="curve" smooth="yes"/>
      <point x="205" y="-114"/>
      <point x="242" y="-68"/>
      <point x="299" y="0" type="curve"/>
      <point x="380" y="-12"/>
      <point x="498" y="-15"/>
      <point x="647" y="-22" type="curve" smooth="yes"/>
      <point x="858" y="-33"/>
      <point x="904" y="-57"/>
      <point x="904" y="-122" type="curve" smooth="yes"/>
      <point x="904" y="-218"/>
      <point x="791" y="-321"/>
    </contour>
    <contour>
      <point x="511" y="345" type="curve" smooth="yes"/>
      <point x="383" y="345"/>
      <point x="310" y="475"/>
      <point x="310" y="657" type="curve" smooth="yes"/>
      <point x="310" y="824"/>
      <point x="387" y="896"/>
      <point x="483" y="896" type="curve" smooth="yes"/>
      <point x="608" y="896"/>
      <point x="682" y="767"/>
      <point x="682" y="580" type="curve" smooth="yes"/>
      <point x="682" y="415"/>
      <point x="607" y="345"/>
    </contour>
  </outline>
</glyph>
<glyph name="h" format="1">
  <advance width="1026"/>
  <unicode hex="0068"/>
  <outline>
    <contour>
      <point x="1015" y="0" type="line"/>
      <point x="562" y="0" type="line"/>
      <point x="562" y="38" type="line"/>
      <point x="678" y="38"/>
      <point x="710" y="64"/>
      <point x="710" y="189" type="curve" smooth="yes"/>
      <point x="710" y="530" type="line" smooth="yes"/>
      <point x="710" y="650"/>
      <point x="721" y="822"/>
      <point x="562" y="822" type="curve" smooth="yes"/>
      <point x="500" y="822"/>
      <point x="435" y="805"/>
      <point x="335" y="690" type="curve"/>
      <point x="335" y="189" type="line" smooth="yes"/>
      <point x="335" y="64"/>
      <point x="350" y="38"/>
      <point x="481" y="38" type="curve"/>
      <point x="481" y="0" type="line"/>
      <point x="28" y="0" type="line"/>
      <point x="28" y="38" type="line"/>
      <point x="150" y="38"/>
      <point x="167" y="76"/>
      <point x="167" y="189" type="curve" smooth="yes"/>
      <point x="167" y="1156" type="line" smooth="yes"/>
      <point x="167" y="1251"/>
      <point x="155" y="1294"/>
      <point x="100" y="1294" type="curve" smooth="yes"/>
      <point x="83" y="1294"/>
      <point x="56" y="1290"/>
      <point x="28" y="1278" type="curve"/>
      <point x="11" y="1313" type="line"/>
      <point x="289" y="1424" type="line"/>
      <point x="335" y="1424" type="line"/>
      <point x="335" y="753" type="line"/>
      <point x="442" y="913"/>
      <point x="544" y="943"/>
      <point x="639" y="943" type="curve" smooth="yes"/>
      <point x="871" y="943"/>
      <point x="877" y="709"/>
      <point x="877" y="530" type="curve" smooth="yes"/>
      <point x="877" y="189" type="line" smooth="yes"/>
      <point x="877" y="70"/>
      <point x="894" y="38"/>
      <point x="1015" y="38" type="curve"/>
    </contour>
    <contour>
      <point x="513" y="-100" type="move" name="L"/>
    </contour>
    <contour>
      <point x="513" y="1435" type="move" name="U"/>
    </contour>
  </outline>
</glyph>
<glyph name="i" format="2">
  <advance width="570"/>
  <unicode hex="0069"/>
  <anchor x="300" y="-100" name="L"/>
  <anchor x="294" y="1000" name="U"/>
  <outline>
    <contour>
      <point x="77" y="0" type="line"/>
      <point x="526" y="0" type="line"/>
      <point x="526" y="38" type="line"/>
      <point x="410" y="38"/>
      <point x="384" y="64"/>
      <point x="384" y="189" type="curve" smooth="yes"/>
      <point x="384" y="943" type="line"/>
      <point x="342" y="943" type="line"/>
      <point x="64" y="833" type="line"/>
      <point x="77" y="797" type="line"/>
      <point x="108" y="806"/>
      <point x="131" y="812"/>
      <point x="148" y="812" type="curve" smooth="yes"/>
      <point x="203" y="812"/>
      <point x="217" y="766"/>
      <point x="217" y="678" type="curve" smooth="yes"/>
      <point x="217" y="189" type="line" smooth="yes"/>
      <point x="217" y="64"/>
      <point x="193" y="38"/>
      <point x="77" y="38" type="curve"/>
    </contour>
    <contour>
      <point x="301" y="1126" type="curve" smooth="yes"/>
      <point x="360" y="1126"/>
      <point x="402" y="1172"/>
      <point x="402" y="1228" type="curve" smooth="yes"/>
      <point x="402" y="1285"/>
      <point x="357" y="1328"/>
      <point x="301" y="1328" type="curve" smooth="yes"/>
      <point x="246" y="1328"/>
      <point x="199" y="1288"/>
      <point x="199" y="1228" type="curve" smooth="yes"/>
      <point x="199" y="1168"/>
      <point x="244" y="1126"/>
    </contour>
  </outline>
</glyph>
<glyph name="j" format="2">
  <advance width="570"/>
  <unicode hex="006A"/>
  <anchor x="121" y="-500" name="L"/>
  <anchor x="300" y="1000" name="U"/>
  <outline>
    <contour>
      <point x="22" y="-444" type="curve" smooth="yes"/>
      <point x="231" y="-444"/>
      <point x="384" y="-299"/>
      <point x="384" y="20" type="curve" smooth="yes"/>
      <point x="384" y="943" type="line"/>
      <point x="342" y="943" type="line"/>
      <point x="64" y="833" type="line"/>
      <point x="75" y="797" type="line"/>
      <point x="132" y="817"/>
      <point x="161" y="818"/>
      <point x="189" y="798" type="curve" smooth="yes"/>
      <point x="209" y="783"/>
      <point x="217" y="732"/>
      <point x="217" y="558" type="curve" smooth="yes"/>
      <point x="217" y="-94" type="line" smooth="yes"/>
      <point x="217" y="-218"/>
      <point x="220" y="-363"/>
      <point x="124" y="-363" type="curve" smooth="yes"/>
      <point x="101" y="-363"/>
      <point x="74" y="-349"/>
      <point x="43" y="-320" type="curve"/>
      <point x="0" y="-277"/>
      <point x="-28" y="-256"/>
      <point x="-75" y="-256" type="curve" smooth="yes"/>
      <point x="-120" y="-256"/>
      <point x="-158" y="-294"/>
      <point x="-158" y="-343" type="curve" smooth="yes"/>
      <point x="-158" y="-384"/>
      <point x="-104" y="-444"/>
    </contour>
    <contour>
      <point x="297" y="1126" type="curve" smooth="yes"/>
      <point x="358" y="1126"/>
      <point x="400" y="1174"/>
      <point x="400" y="1228" type="curve" smooth="yes"/>
      <point x="400" y="1285"/>
      <point x="348" y="1331"/>
      <point x="297" y="1331" type="curve" smooth="yes"/>
      <point x="244" y="1331"/>
      <point x="195" y="1285"/>
      <point x="195" y="1228" type="curve" smooth="yes"/>
      <point x="195" y="1168"/>
      <point x="238" y="1126"/>
    </contour>
  </outline>
</glyph>
<glyph name="k" format="2">
  <advance width="1026"/>
  <unicode hex="006B"/>
  <anchor x="526" y="-100" name="L"/>
  <anchor x="526" y="1435" name="U"/>
  <outline>
    <contour>
      <point x="13" y="0" type="line"/>
      <point x="483" y="0" type="line"/>
      <point x="483" y="38" type="line"/>
      <point x="398" y="38"/>
      <point x="383" y="44"/>
      <point x="359" y="71" type="curve" smooth="yes"/>
      <point x="341" y="92"/>
      <point x="337" y="121"/>
      <point x="337" y="207" type="curve" smooth="yes"/>
      <point x="337" y="506" type="line"/>
      <point x="618" y="152" type="line"/>
      <point x="647" y="113"/>
      <point x="657" y="96"/>
      <point x="657" y="77" type="curve" smooth="yes"/>
      <point x="657" y="72"/>
      <point x="656" y="66"/>
      <point x="653" y="61" type="curve"/>
      <point x="648" y="42"/>
      <point x="630" y="38"/>
      <point x="591" y="38" type="curve"/>
      <point x="591" y="0" type="line"/>
      <point x="1037" y="0" type="line"/>
      <point x="1037" y="38" type="line"/>
      <point x="993" y="38"/>
      <point x="963" y="38"/>
      <point x="950" y="45" type="curve"/>
      <point x="886" y="85"/>
      <point x="890" y="66"/>
      <point x="734" y="262" type="curve" smooth="yes"/>
      <point x="493" y="562" type="line"/>
      <point x="734" y="777" type="line" smooth="yes"/>
      <point x="779" y="818"/>
      <point x="818" y="846"/>
      <point x="854" y="859" type="curve"/>
      <point x="889" y="874"/>
      <point x="934" y="883"/>
      <point x="989" y="885" type="curve"/>
      <point x="989" y="917" type="line"/>
      <point x="591" y="917" type="line"/>
      <point x="591" y="885" type="line"/>
      <point x="643" y="881"/>
      <point x="662" y="861"/>
      <point x="662" y="834" type="curve" smooth="yes"/>
      <point x="662" y="814"/>
      <point x="655" y="797"/>
      <point x="568" y="724" type="curve" smooth="yes"/>
      <point x="337" y="528" type="line"/>
      <point x="337" y="1424" type="line"/>
      <point x="290" y="1424" type="line"/>
      <point x="13" y="1313" type="line"/>
      <point x="34" y="1278" type="line"/>
      <point x="97" y="1305"/>
      <point x="123" y="1293"/>
      <point x="138" y="1280" type="curve" smooth="yes"/>
      <point x="162" y="1261"/>
      <point x="166" y="1244"/>
      <point x="166" y="1035" type="curve" smooth="yes"/>
      <point x="166" y="201" type="line" smooth="yes"/>
      <point x="166" y="128"/>
      <point x="159" y="87"/>
      <point x="140" y="67" type="curve" smooth="yes"/>
      <point x="117" y="43"/>
      <point x="77" y="38"/>
      <point x="13" y="38" type="curve"/>
    </contour>
  </outline>
</glyph>
<glyph name="l" format="1">
  <advance width="570"/>
  <unicode hex="006C"/>
  <outline>
    <contour>
      <point x="527" y="0" type="line"/>
      <point x="77" y="0" type="line"/>
      <point x="77" y="38" type="line"/>
      <point x="138" y="38"/>
      <point x="162" y="41"/>
      <point x="183" y="69" type="curve" smooth="yes"/>
      <point x="198" y="89"/>
      <point x="212" y="122"/>
      <point x="212" y="207" type="curve" smooth="yes"/>
      <point x="212" y="1038" type="line" smooth="yes"/>
      <point x="212" y="1246"/>
      <point x="203" y="1263"/>
      <point x="183" y="1280" type="curve"/>
      <point x="171" y="1288"/>
      <point x="158" y="1293"/>
      <point x="143" y="1293" type="curve" smooth="yes"/>
      <point x="126" y="1293"/>
      <point x="105" y="1289"/>
      <point x="77" y="1278" type="curve"/>
      <point x="59" y="1313" type="line"/>
      <point x="335" y="1424" type="line"/>
      <point x="378" y="1424" type="line"/>
      <point x="378" y="207" type="line" smooth="yes"/>
      <point x="378" y="129"/>
      <point x="386" y="94"/>
      <point x="404" y="74" type="curve"/>
      <point x="424" y="49"/>
      <point x="447" y="38"/>
      <point x="527" y="38" type="curve"/>
    </contour>
    <contour>
      <point x="292" y="-100" type="move" name="L"/>
    </contour>
    <contour>
      <point x="292" y="1475" type="move" name="U"/>
    </contour>
  </outline>
</glyph>
<glyph name="m" format="2">
  <advance width="1596"/>
  <unicode hex="006D"/>
  <anchor x="800" y="-100" name="L"/>
  <anchor x="800" y="1000" name="U"/>
  <outline>
    <contour>
      <point x="30" y="0" type="line"/>
      <point x="483" y="0" type="line"/>
      <point x="483" y="38" type="line"/>
      <point x="365" y="38"/>
      <point x="335" y="53"/>
      <point x="335" y="207" type="curve" smooth="yes"/>
      <point x="335" y="700" type="line"/>
      <point x="391" y="759"/>
      <point x="475" y="827"/>
      <point x="570" y="827" type="curve" smooth="yes"/>
      <point x="666" y="827"/>
      <point x="727" y="767"/>
      <point x="727" y="604" type="curve" smooth="yes"/>
      <point x="727" y="207" type="line" smooth="yes"/>
      <point x="727" y="91"/>
      <point x="733" y="38"/>
      <point x="576" y="38" type="curve"/>
      <point x="576" y="0" type="line"/>
      <point x="1041" y="0" type="line"/>
      <point x="1041" y="38" type="line"/>
      <point x="900" y="38"/>
      <point x="894" y="76"/>
      <point x="894" y="207" type="curve" smooth="yes"/>
      <point x="894" y="700" type="line"/>
      <point x="989" y="798"/>
      <point x="1073" y="825"/>
      <point x="1130" y="825" type="curve" smooth="yes"/>
      <point x="1234" y="825"/>
      <point x="1281" y="768"/>
      <point x="1281" y="604" type="curve" smooth="yes"/>
      <point x="1281" y="207" type="line" smooth="yes"/>
      <point x="1281" y="84"/>
      <point x="1278" y="38"/>
      <point x="1135" y="38" type="curve"/>
      <point x="1135" y="0" type="line"/>
      <point x="1588" y="0" type="line"/>
      <point x="1588" y="38" type="line"/>
      <point x="1476" y="38"/>
      <point x="1449" y="67"/>
      <point x="1449" y="207" type="curve" smooth="yes"/>
      <point x="1449" y="604" type="line" smooth="yes"/>
      <point x="1449" y="851"/>
      <point x="1354" y="943"/>
      <point x="1206" y="943" type="curve" smooth="yes"/>
      <point x="1105" y="943"/>
      <point x="1021" y="904"/>
      <point x="885" y="750" type="curve"/>
      <point x="855" y="883"/>
      <point x="762" y="943"/>
      <point x="653" y="943" type="curve" smooth="yes"/>
      <point x="563" y="943"/>
      <point x="483" y="909"/>
      <point x="335" y="750" type="curve"/>
      <point x="335" y="943" type="line"/>
      <point x="292" y="943" type="line"/>
      <point x="13" y="833" type="line"/>
      <point x="30" y="797" type="line"/>
      <point x="179" y="848"/>
      <point x="167" y="763"/>
      <point x="167" y="558" type="curve" smooth="yes"/>
      <point x="167" y="207" type="line" smooth="yes"/>
      <point x="167" y="64"/>
      <point x="146" y="38"/>
      <point x="30" y="38" type="curve"/>
    </contour>
  </outline>
</glyph>
<glyph name="n" format="2">
  <advance width="1026"/>
  <unicode hex="006E"/>
  <anchor x="515" y="-100" name="L"/>
  <anchor x="515" y="1000" name="U"/>
  <outline>
    <contour>
      <point x="26" y="0" type="line"/>
      <point x="481" y="0" type="line"/>
      <point x="481" y="38" type="line"/>
      <point x="349" y="38"/>
      <point x="331" y="64"/>
      <point x="331" y="207" type="curve" smooth="yes"/>
      <point x="331" y="690" type="line"/>
      <point x="411" y="779"/>
      <point x="492" y="820"/>
      <point x="568" y="820" type="curve" smooth="yes"/>
      <point x="676" y="820"/>
      <point x="712" y="749"/>
      <point x="712" y="581" type="curve" smooth="yes"/>
      <point x="712" y="207" type="line" smooth="yes"/>
      <point x="712" y="67"/>
      <point x="699" y="38"/>
      <point x="562" y="38" type="curve"/>
      <point x="562" y="0" type="line"/>
      <point x="1021" y="0" type="line"/>
      <point x="1021" y="38" type="line"/>
      <point x="899" y="38"/>
      <point x="880" y="71"/>
      <point x="880" y="207" type="curve" smooth="yes"/>
      <point x="880" y="600" type="line" smooth="yes"/>
      <point x="880" y="806"/>
      <point x="817" y="943"/>
      <point x="639" y="943" type="curve" smooth="yes"/>
      <point x="542" y="943"/>
      <point x="440" y="879"/>
      <point x="331" y="751" type="curve"/>
      <point x="331" y="943" type="line"/>
      <point x="290" y="943" type="line"/>
      <point x="10" y="833" type="line"/>
      <point x="26" y="797" type="line"/>
      <point x="76" y="817"/>
      <point x="112" y="817"/>
      <point x="135" y="798" type="curve" smooth="yes"/>
      <point x="155" y="783"/>
      <point x="164" y="765"/>
      <point x="164" y="549" type="curve" smooth="yes"/>
      <point x="164" y="207" type="line" smooth="yes"/>
      <point x="164" y="67"/>
      <point x="141" y="38"/>
      <point x="26" y="38" type="curve"/>
    </contour>
  </outline>
</glyph>
<glyph name="o" format="1">
  <advance width="1026"/>
  <unicode hex="006F"/>
  <outline>
    <contour>
      <point x="954" y="475" type="curve" smooth="yes"/>
      <point x="954" y="239"/>
      <point x="805" y="-30"/>
      <point x="503" y="-30" type="curve" smooth="yes"/>
      <point x="245" y="-30"/>
      <point x="69" y="195"/>
      <point x="69" y="450" type="curve" smooth="yes"/>
      <point x="69" y="697"/>
      <point x="237" y="943"/>
      <point x="512" y="943" type="curve" smooth="yes"/>
      <point x="777" y="943"/>
      <point x="954" y="738"/>
    </contour>
    <contour>
      <point x="767" y="398" type="curve" smooth="yes"/>
      <point x="767" y="669"/>
      <point x="657" y="880"/>
      <point x="481" y="880" type="curve" smooth="yes"/>
      <point x="377" y="880"/>
      <point x="254" y="798"/>
      <point x="254" y="532" type="curve" smooth="yes"/>
      <point x="254" y="270"/>
      <point x="369" y="43"/>
      <point x="544" y="43" type="curve" smooth="yes"/>
      <point x="678" y="43"/>
      <point x="767" y="136"/>
    </contour>
    <contour>
      <point x="512" y="-100" type="move" name="L"/>
    </contour>
    <contour>
      <point x="512" y="1000" type="move" name="U"/>
    </contour>
  </outline>
</glyph>
<glyph name="p" format="2">
  <advance width="1026"/>
  <unicode hex="0070"/>
  <anchor x="473" y="-500" name="L"/>
  <anchor x="473" y="1000" name="U"/>
  <outline>
    <contour>
      <point x="957" y="493" type="curve" smooth="yes"/>
      <point x="957" y="205"/>
      <point x="785" y="-30"/>
      <point x="536" y="-30" type="curve" smooth="yes"/>
      <point x="480" y="-30"/>
      <point x="402" y="-25"/>
      <point x="319" y="53" type="curve"/>
      <point x="319" y="-224" type="line" smooth="yes"/>
      <point x="319" y="-369"/>
      <point x="326" y="-397"/>
      <point x="474" y="-402" type="curve"/>
      <point x="474" y="-440" type="line"/>
      <point x="-12" y="-440" type="line"/>
      <point x="-12" y="-402" type="line"/>
      <point x="137" y="-397"/>
      <point x="148" y="-373"/>
      <point x="148" y="-220" type="curve" smooth="yes"/>
      <point x="148" y="647" type="line" smooth="yes"/>
      <point x="148" y="750"/>
      <point x="147" y="771"/>
      <point x="115" y="797" type="curve"/>
      <point x="94" y="810"/>
      <point x="63" y="817"/>
      <point x="6" y="792" type="curve"/>
      <point x="-6" y="827" type="line"/>
      <point x="281" y="941" type="line"/>
      <point x="319" y="941" type="line"/>
      <point x="319" y="727" type="line"/>
      <point x="409" y="886"/>
      <point x="505" y="943"/>
      <point x="613" y="943" type="curve" smooth="yes"/>
      <point x="815" y="943"/>
      <point x="957" y="747"/>
    </contour>
    <contour>
      <point x="797" y="398" type="curve" smooth="yes"/>
      <point x="797" y="695"/>
      <point x="675" y="820"/>
      <point x="532" y="820" type="curve" smooth="yes"/>
      <point x="452" y="820"/>
      <point x="401" y="756"/>
      <point x="319" y="666" type="curve"/>
      <point x="319" y="323" type="line" smooth="yes"/>
      <point x="319" y="252"/>
      <point x="322" y="203"/>
      <point x="327" y="177" type="curve"/>
      <point x="348" y="107"/>
      <point x="414" y="32"/>
      <point x="532" y="32" type="curve" smooth="yes"/>
      <point x="690" y="32"/>
      <point x="797" y="171"/>
    </contour>
  </outline>
</glyph>
<glyph name="q" format="1">
  <advance width="1026"/>
  <unicode hex="0071"/>
  <outline>
    <contour>
      <point x="1029" y="-440" type="line"/>
      <point x="562" y="-440" type="line"/>
      <point x="562" y="-402" type="line"/>
      <point x="679" y="-402"/>
      <point x="712" y="-388"/>
      <point x="712" y="-237" type="curve" smooth="yes"/>
      <point x="712" y="160" type="line"/>
      <point x="592" y="16"/>
      <point x="513" y="-30"/>
      <point x="411" y="-30" type="curve" smooth="yes"/>
      <point x="242" y="-30"/>
      <point x="67" y="134"/>
      <point x="67" y="419" type="curve" smooth="yes"/>
      <point x="67" y="725"/>
      <point x="272" y="943"/>
      <point x="540" y="943" type="curve" smooth="yes"/>
      <point x="616" y="943"/>
      <point x="684" y="927"/>
      <point x="729" y="880" type="curve"/>
      <point x="769" y="900"/>
      <point x="811" y="919"/>
      <point x="844" y="943" type="curve"/>
      <point x="880" y="943" type="line"/>
      <point x="880" y="-237" type="line" smooth="yes"/>
      <point x="880" y="-377"/>
      <point x="906" y="-402"/>
      <point x="1029" y="-402" type="curve"/>
    </contour>
    <contour>
      <point x="712" y="220" type="curve"/>
      <point x="712" y="653" type="line" smooth="yes"/>
      <point x="712" y="784"/>
      <point x="645" y="874"/>
      <point x="508" y="874" type="curve" smooth="yes"/>
      <point x="361" y="874"/>
      <point x="237" y="749"/>
      <point x="237" y="491" type="curve" smooth="yes"/>
      <point x="237" y="238"/>
      <point x="367" y="113"/>
      <point x="515" y="113" type="curve" smooth="yes"/>
      <point x="600" y="113"/>
      <point x="650" y="150"/>
    </contour>
    <contour>
      <point x="549" y="-500" type="move" name="L"/>
    </contour>
    <contour>
      <point x="549" y="1000" type="move" name="U"/>
    </contour>
  </outline>
</glyph>
<glyph name="r" format="2">
  <advance width="703"/>
  <unicode hex="0072"/>
  <anchor x="353" y="-100" name="L"/>
  <anchor x="353" y="1000" name="U"/>
  <outline>
    <contour>
      <point x="698" y="833" type="curve" smooth="yes"/>
      <point x="698" y="785"/>
      <point x="658" y="739"/>
      <point x="607" y="739" type="curve" smooth="yes"/>
      <point x="540" y="739"/>
      <point x="509" y="811"/>
      <point x="466" y="811" type="curve" smooth="yes"/>
      <point x="431" y="811"/>
      <point x="382" y="751"/>
      <point x="331" y="654" type="curve"/>
      <point x="331" y="213" type="line" smooth="yes"/>
      <point x="331" y="96"/>
      <point x="362" y="38"/>
      <point x="493" y="38" type="curve"/>
      <point x="493" y="0" type="line"/>
      <point x="17" y="0" type="line"/>
      <point x="17" y="38" type="line"/>
      <point x="131" y="38"/>
      <point x="164" y="50"/>
      <point x="164" y="207" type="curve" smooth="yes"/>
      <point x="164" y="562" type="line" smooth="yes"/>
      <point x="164" y="756"/>
      <point x="157" y="774"/>
      <point x="135" y="798" type="curve"/>
      <point x="104" y="815"/>
      <point x="73" y="820"/>
      <point x="17" y="797" type="curve"/>
      <point x="8" y="833" type="line"/>
      <point x="292" y="943" type="line"/>
      <point x="331" y="943" type="line"/>
      <point x="331" y="737" type="line"/>
      <point x="407" y="874"/>
      <point x="486" y="943"/>
      <point x="568" y="943" type="curve" smooth="yes"/>
      <point x="642" y="943"/>
      <point x="698" y="897"/>
    </contour>
  </outline>
</glyph>
<glyph name="s" format="1">
  <advance width="798"/>
  <unicode hex="0073"/>
  <outline>
    <contour>
      <point x="727" y="231" type="curve" smooth="yes"/>
      <point x="727" y="91"/>
      <point x="582" y="-30"/>
      <point x="420" y="-30" type="curve" smooth="yes"/>
      <point x="321" y="-30"/>
      <point x="234" y="24"/>
      <point x="174" y="32" type="curve"/>
      <point x="158" y="32"/>
      <point x="146" y="4"/>
      <point x="138" y="-13" type="curve"/>
      <point x="105" y="-13" type="line"/>
      <point x="105" y="314" type="line"/>
      <point x="138" y="314" type="line"/>
      <point x="172" y="128"/>
      <point x="290" y="32"/>
      <point x="420" y="32" type="curve" smooth="yes"/>
      <point x="518" y="32"/>
      <point x="577" y="95"/>
      <point x="577" y="167" type="curve"/>
      <point x="580" y="258"/>
      <point x="544" y="311"/>
      <point x="345" y="412" type="curve"/>
      <point x="152" y="514"/>
      <point x="100" y="584"/>
      <point x="100" y="698" type="curve" smooth="yes"/>
      <point x="100" y="834"/>
      <point x="207" y="943"/>
      <point x="398" y="943" type="curve" smooth="yes"/>
      <point x="480" y="943"/>
      <point x="566" y="907"/>
      <point x="598" y="907" type="curve" smooth="yes"/>
      <point x="617" y="907"/>
      <point x="627" y="911"/>
      <point x="643" y="943" type="curve"/>
      <point x="676" y="943" type="line"/>
      <point x="676" y="630" type="line"/>
      <point x="643" y="630" type="line"/>
      <point x="598" y="828"/>
      <point x="507" y="885"/>
      <point x="396" y="885" type="curve" smooth="yes"/>
      <point x="273" y="885"/>
      <point x="218" y="837"/>
      <point x="217" y="766" type="curve"/>
      <point x="214" y="690"/>
      <point x="241" y="636"/>
      <point x="367" y="574" type="curve"/>
      <point x="515" y="504" type="line"/>
      <point x="655" y="441"/>
      <point x="727" y="348"/>
    </contour>
    <contour>
      <point x="413" y="-100" type="move" name="L"/>
    </contour>
    <contour>
      <point x="413" y="1000" type="move" name="U"/>
    </contour>
  </outline>
</glyph>
<glyph name="t" format="2">
  <advance width="570"/>
  <unicode hex="0074"/>
  <anchor x="293" y="-100" name="L"/>
  <anchor x="285" y="1298" name="U"/>
  <outline>
    <contour>
      <point x="343" y="-30" type="curve" smooth="yes"/>
      <point x="422" y="-30"/>
      <point x="531" y="33"/>
      <point x="573" y="167" type="curve"/>
      <point x="532" y="167" type="line"/>
      <point x="508" y="115"/>
      <point x="471" y="82"/>
      <point x="420" y="85" type="curve" smooth="yes"/>
      <point x="369" y="88"/>
      <point x="329" y="118"/>
      <point x="329" y="237" type="curve" smooth="yes"/>
      <point x="329" y="849" type="line"/>
      <point x="544" y="849" type="line"/>
      <point x="544" y="917" type="line"/>
      <point x="329" y="917" type="line"/>
      <point x="329" y="1219" type="line"/>
      <point x="299" y="1219" type="line"/>
      <point x="242" y="1086"/>
      <point x="222" y="1062"/>
      <point x="186" y="1015" type="curve"/>
      <point x="134" y="954"/>
      <point x="70" y="900"/>
      <point x="15" y="880" type="curve"/>
      <point x="15" y="849" type="line"/>
      <point x="162" y="849" type="line"/>
      <point x="162" y="213" type="line" smooth="yes"/>
      <point x="162" y="8"/>
      <point x="256" y="-30"/>
    </contour>
  </outline>
</glyph>
<glyph name="u" format="1">
  <advance width="1026"/>
  <unicode hex="0075"/>
  <outline>
    <contour>
      <point x="1027" y="85" type="line"/>
      <point x="750" y="-30" type="line"/>
      <point x="704" y="-30" type="line"/>
      <point x="704" y="166" type="line"/>
      <point x="550" y="4"/>
      <point x="483" y="-30"/>
      <point x="393" y="-30" type="curve" smooth="yes"/>
      <point x="179" y="-30"/>
      <point x="156" y="181"/>
      <point x="156" y="327" type="curve" smooth="yes"/>
      <point x="156" y="737" type="line" smooth="yes"/>
      <point x="156" y="856"/>
      <point x="116" y="880"/>
      <point x="0" y="880" type="curve"/>
      <point x="0" y="917" type="line"/>
      <point x="323" y="917" type="line"/>
      <point x="323" y="304" type="line" smooth="yes"/>
      <point x="323" y="198"/>
      <point x="344" y="94"/>
      <point x="475" y="94" type="curve" smooth="yes"/>
      <point x="529" y="94"/>
      <point x="602" y="122"/>
      <point x="704" y="224" type="curve"/>
      <point x="704" y="745" type="line" smooth="yes"/>
      <point x="704" y="856"/>
      <point x="661" y="877"/>
      <point x="557" y="880" type="curve"/>
      <point x="557" y="917" type="line"/>
      <point x="872" y="917" type="line"/>
      <point x="872" y="243" type="line" smooth="yes"/>
      <point x="872" y="134"/>
      <point x="890" y="105"/>
      <point x="934" y="105" type="curve" smooth="yes"/>
      <point x="953" y="105"/>
      <point x="984" y="109"/>
      <point x="1013" y="120" type="curve"/>
    </contour>
    <contour>
      <point x="513" y="-100" type="move" name="L"/>
    </contour>
    <contour>
      <point x="513" y="1000" type="move" name="U"/>
    </contour>
  </outline>
</glyph>
<glyph name="v" format="2">
  <advance width="1026"/>
  <unicode hex="0076"/>
  <anchor x="512" y="-100" name="L"/>
  <anchor x="512" y="1000" name="U"/>
  <outline>
    <contour>
      <point x="504" y="-30" type="line"/>
      <point x="546" y="-30" type="line"/>
      <point x="872" y="758" type="line" smooth="yes"/>
      <point x="892" y="807"/>
      <point x="911" y="838"/>
      <point x="934" y="859" type="curve"/>
      <point x="950" y="871"/>
      <point x="972" y="876"/>
      <point x="1009" y="880" type="curve"/>
      <point x="1009" y="917" type="line"/>
      <point x="707" y="917" type="line"/>
      <point x="707" y="880" type="line"/>
      <point x="779" y="880"/>
      <point x="799" y="866"/>
      <point x="805" y="857" type="curve" smooth="yes"/>
      <point x="820" y="833"/>
      <point x="812" y="803"/>
      <point x="789" y="747" type="curve" smooth="yes"/>
      <point x="574" y="220" type="line"/>
      <point x="361" y="727" type="line"/>
      <point x="330" y="792"/>
      <point x="336" y="834"/>
      <point x="361" y="861" type="curve"/>
      <point x="372" y="877"/>
      <point x="395" y="880"/>
      <point x="420" y="880" type="curve" smooth="yes"/>
      <point x="450" y="880" type="line"/>
      <point x="450" y="917" type="line"/>
      <point x="15" y="917" type="line"/>
      <point x="15" y="880" type="line"/>
      <point x="52" y="872"/>
      <point x="73" y="869"/>
      <point x="85" y="864" type="curve"/>
      <point x="120" y="839"/>
      <point x="151" y="815"/>
      <point x="175" y="747" type="curve"/>
    </contour>
  </outline>
</glyph>
<glyph name="w" format="2">
  <advance width="1481"/>
  <unicode hex="0077"/>
  <anchor x="737" y="-100" name="L"/>
  <anchor x="737" y="1000" name="U"/>
  <outline>
    <contour>
      <point x="453" y="-30" type="line"/>
      <point x="491" y="-30" type="line"/>
      <point x="757" y="558" type="line"/>
      <point x="986" y="-30" type="line"/>
      <point x="1027" y="-30" type="line"/>
      <point x="1333" y="764" type="line" smooth="yes"/>
      <point x="1360" y="833"/>
      <point x="1404" y="871"/>
      <point x="1464" y="880" type="curve"/>
      <point x="1464" y="917" type="line"/>
      <point x="1174" y="917" type="line"/>
      <point x="1174" y="880" type="line"/>
      <point x="1258" y="880"/>
      <point x="1270" y="844"/>
      <point x="1270" y="828" type="curve" smooth="yes"/>
      <point x="1270" y="807"/>
      <point x="1263" y="779"/>
      <point x="1248" y="742" type="curve"/>
      <point x="1058" y="237" type="line"/>
      <point x="849" y="764" type="line"/>
      <point x="828" y="796"/>
      <point x="844" y="839"/>
      <point x="859" y="857" type="curve"/>
      <point x="879" y="870"/>
      <point x="913" y="876"/>
      <point x="961" y="880" type="curve"/>
      <point x="961" y="917" type="line"/>
      <point x="526" y="917" type="line"/>
      <point x="526" y="880" type="line"/>
      <point x="565" y="877"/>
      <point x="592" y="872"/>
      <point x="607" y="864" type="curve" smooth="yes"/>
      <point x="633" y="849"/>
      <point x="654" y="821"/>
      <point x="670" y="781" type="curve" smooth="yes"/>
      <point x="722" y="645" type="line"/>
      <point x="526" y="215" type="line"/>
      <point x="327" y="742" type="line" smooth="yes"/>
      <point x="303" y="805"/>
      <point x="304" y="838"/>
      <point x="327" y="861" type="curve"/>
      <point x="339" y="871"/>
      <point x="363" y="877"/>
      <point x="398" y="880" type="curve"/>
      <point x="398" y="917" type="line"/>
      <point x="11" y="917" type="line"/>
      <point x="11" y="880" type="line"/>
      <point x="54" y="872"/>
      <point x="85" y="858"/>
      <point x="100" y="839" type="curve"/>
      <point x="120" y="823"/>
      <point x="138" y="791"/>
      <point x="158" y="742" type="curve"/>
    </contour>
  </outline>
</glyph>
<glyph name="x" format="1">
  <advance width="1026"/>
  <unicode hex="0078"/>
  <outline>
    <contour>
      <point x="1002" y="0" type="line"/>
      <point x="568" y="0" type="line"/>
      <point x="568" y="38" type="line"/>
      <point x="670" y="38"/>
      <point x="664" y="98"/>
      <point x="650" y="126" type="curve"/>
      <point x="459" y="406" type="line"/>
      <point x="260" y="140" type="line"/>
      <point x="235" y="105"/>
      <point x="232" y="41"/>
      <point x="335" y="38" type="curve"/>
      <point x="335" y="0" type="line"/>
      <point x="36" y="0" type="line"/>
      <point x="36" y="38" type="line"/>
      <point x="88" y="41"/>
      <point x="123" y="74"/>
      <point x="224" y="209" type="curve"/>
      <point x="419" y="466" type="line"/>
      <point x="244" y="718" type="line"/>
      <point x="147" y="862"/>
      <point x="113" y="877"/>
      <point x="28" y="880" type="curve"/>
      <point x="28" y="917" type="line"/>
      <point x="459" y="917" type="line"/>
      <point x="459" y="880" type="line"/>
      <point x="382" y="883"/>
      <point x="372" y="832"/>
      <point x="389" y="806" type="curve" smooth="yes"/>
      <point x="520" y="601" type="line"/>
      <point x="654" y="798" type="line" smooth="yes"/>
      <point x="673" y="827"/>
      <point x="676" y="880"/>
      <point x="593" y="880" type="curve"/>
      <point x="593" y="917" type="line"/>
      <point x="904" y="917" type="line"/>
      <point x="904" y="880" type="line"/>
      <point x="819" y="877"/>
      <point x="779" y="834"/>
      <point x="682" y="705" type="curve"/>
      <point x="558" y="536" type="line"/>
      <point x="787" y="209" type="line"/>
      <point x="839" y="131"/>
      <point x="854" y="117"/>
      <point x="907" y="64" type="curve"/>
      <point x="918" y="51"/>
      <point x="962" y="39"/>
      <point x="1002" y="38" type="curve"/>
    </contour>
    <contour>
      <point x="514" y="-100" type="move" name="L"/>
    </contour>
    <contour>
      <point x="514" y="1000" type="move" name="U"/>
    </contour>
  </outline>
</glyph>
<glyph name="y" format="1">
  <advance width="1026"/>
  <unicode hex="0079"/>
  <outline>
    <contour>
      <point x="1013" y="917" type="line"/>
      <point x="1013" y="880" type="line"/>
      <point x="955" y="877"/>
      <point x="929" y="859"/>
      <point x="877" y="742" type="curve"/>
      <point x="504" y="-174" type="line" smooth="yes"/>
      <point x="434" y="-346"/>
      <point x="311" y="-444"/>
      <point x="195" y="-444" type="curve" smooth="yes"/>
      <point x="116" y="-444"/>
      <point x="59" y="-395"/>
      <point x="59" y="-329" type="curve" smooth="yes"/>
      <point x="59" y="-276"/>
      <point x="95" y="-239"/>
      <point x="162" y="-239" type="curve" smooth="yes"/>
      <point x="204" y="-239"/>
      <point x="287" y="-274"/>
      <point x="301" y="-274" type="curve" smooth="yes"/>
      <point x="343" y="-274"/>
      <point x="392" y="-238"/>
      <point x="440" y="-122" type="curve"/>
      <point x="504" y="38" type="line"/>
      <point x="175" y="728" type="line"/>
      <point x="150" y="778"/>
      <point x="113" y="869"/>
      <point x="11" y="880" type="curve"/>
      <point x="11" y="917" type="line"/>
      <point x="440" y="917" type="line"/>
      <point x="440" y="880" type="line"/>
      <point x="419" y="880" type="line" smooth="yes"/>
      <point x="368" y="880"/>
      <point x="327" y="856"/>
      <point x="327" y="812" type="curve" smooth="yes"/>
      <point x="327" y="784"/>
      <point x="338" y="751"/>
      <point x="361" y="704" type="curve" smooth="yes"/>
      <point x="583" y="243" type="line"/>
      <point x="789" y="750" type="line"/>
      <point x="809" y="786"/>
      <point x="816" y="835"/>
      <point x="800" y="858" type="curve"/>
      <point x="792" y="866"/>
      <point x="785" y="880"/>
      <point x="715" y="880" type="curve"/>
      <point x="715" y="917" type="line"/>
    </contour>
    <contour>
      <point x="513" y="-500" type="move" name="L"/>
    </contour>
    <contour>
      <point x="550" y="1000" type="move" name="U"/>
    </contour>
  </outline>
</glyph>
<glyph name="z" format="1">
  <advance width="911"/>
  <unicode hex="007A"/>
  <outline>
    <contour>
      <point x="877" y="880" type="line"/>
      <point x="262" y="67" type="line"/>
      <point x="598" y="67" type="line" smooth="yes"/>
      <point x="667" y="67"/>
      <point x="713" y="73"/>
      <point x="737" y="85" type="curve" smooth="yes"/>
      <point x="782" y="106"/>
      <point x="808" y="111"/>
      <point x="827" y="281" type="curve"/>
      <point x="861" y="281" type="line"/>
      <point x="850" y="0" type="line"/>
      <point x="41" y="0" type="line"/>
      <point x="41" y="38" type="line"/>
      <point x="651" y="849" type="line"/>
      <point x="348" y="849" type="line" smooth="yes"/>
      <point x="285" y="849"/>
      <point x="244" y="841"/>
      <point x="220" y="834" type="curve"/>
      <point x="181" y="815"/>
      <point x="152" y="771"/>
      <point x="141" y="662" type="curve"/>
      <point x="102" y="662" type="line"/>
      <point x="109" y="917" type="line"/>
      <point x="877" y="917" type="line"/>
    </contour>
    <contour>
      <point x="459" y="-100" type="move" name="L"/>
    </contour>
    <contour>
      <point x="459" y="1000" type="move" name="U"/>
    </contour>
  </outline>
</glyph>
<glyph name="braceleft" format="1">
  <advance width="981"/>
  <unicode hex="007B"/>
  <outline>
    <contour>
      <point x="775" y="-443" type="curve"/>
      <point x="775" y="-406" type="line"/>
      <point x="643" y="-373"/>
      <point x="551" y="-289"/>
      <point x="551" y="-141" type="curve" smooth="yes"/>
      <point x="551" y="-47"/>
      <point x="596" y="38"/>
      <point x="596" y="132" type="curve" smooth="yes"/>
      <point x="596" y="312"/>
      <point x="481" y="435"/>
      <point x="321" y="491" type="curve"/>
      <point x="480" y="549"/>
      <point x="596" y="668"/>
      <point x="596" y="846" type="curve" smooth="yes"/>
      <point x="596" y="943"/>
      <point x="551" y="1029"/>
      <point x="551" y="1124" type="curve" smooth="yes"/>
      <point x="551" y="1270"/>
      <point x="643" y="1355"/>
      <point x="775" y="1389" type="curve"/>
      <point x="775" y="1424" type="line"/>
      <point x="589" y="1404"/>
      <point x="402" y="1245"/>
      <point x="402" y="1053" type="curve" smooth="yes"/>
      <point x="402" y="941"/>
      <point x="448" y="825"/>
      <point x="448" y="731" type="curve" smooth="yes"/>
      <point x="448" y="605"/>
      <point x="314" y="528"/>
      <point x="218" y="517" type="curve"/>
      <point x="218" y="466" type="line"/>
      <point x="316" y="453"/>
      <point x="448" y="374"/>
      <point x="448" y="246" type="curve" smooth="yes"/>
      <point x="448" y="158"/>
      <point x="402" y="49"/>
      <point x="402" y="-57" type="curve" smooth="yes"/>
      <point x="402" y="-258"/>
      <point x="583" y="-422"/>
    </contour>
  </outline>
</glyph>
<glyph name="bar" format="2">
  <advance width="660"/>
  <unicode hex="007C"/>
  <outline>
    <contour>
      <point x="281" y="-508" type="line"/>
      <point x="381" y="-508" type="line"/>
      <point x="381" y="1570" type="line"/>
      <point x="281" y="1570" type="line"/>
    </contour>
  </outline>
</glyph>
<glyph name="asciitilde" format="2">
  <advance width="1115"/>
  <unicode hex="007E"/>
  <outline>
    <contour>
      <point x="1076" y="630" type="curve"/>
      <point x="1020" y="705" type="line"/>
      <point x="981" y="627"/>
      <point x="899" y="528"/>
      <point x="805" y="528" type="curve" smooth="yes"/>
      <point x="695" y="528"/>
      <point x="466" y="681"/>
      <point x="323" y="681" type="curve" smooth="yes"/>
      <point x="177" y="681"/>
      <point x="102" y="558"/>
      <point x="39" y="444" type="curve"/>
      <point x="94" y="371" type="line"/>
      <point x="144" y="453"/>
      <point x="204" y="560"/>
      <point x="314" y="560" type="curve" smooth="yes"/>
      <point x="458" y="560"/>
      <point x="637" y="412"/>
      <point x="795" y="412" type="curve" smooth="yes"/>
      <point x="927" y="412"/>
      <point x="1020" y="523"/>
    </contour>
  </outline>
</glyph>
<glyph name="sterling" format="1">
  <advance width="1026"/>
  <unicode hex="00A3"/>
  <outline>
    <contour>
      <point x="979" y="304" type="curve"/>
      <point x="941" y="314" type="line"/>
      <point x="926" y="256"/>
      <point x="889" y="152"/>
      <point x="729" y="152" type="curve" smooth="yes"/>
      <point x="635" y="152"/>
      <point x="535" y="192"/>
      <point x="404" y="235" type="curve"/>
      <point x="481" y="436"/>
      <point x="466" y="613"/>
      <point x="466" y="660" type="curve"/>
      <point x="724" y="660" type="line"/>
      <point x="724" y="756" type="line"/>
      <point x="466" y="756" type="line"/>
      <point x="463" y="777"/>
      <point x="444" y="960"/>
      <point x="444" y="1050" type="curve" smooth="yes"/>
      <point x="444" y="1263"/>
      <point x="521" y="1331"/>
      <point x="626" y="1331" type="curve" smooth="yes"/>
      <point x="712" y="1331"/>
      <point x="747" y="1275"/>
      <point x="747" y="1216" type="curve" smooth="yes"/>
      <point x="747" y="1133"/>
      <point x="784" y="1098"/>
      <point x="827" y="1098" type="curve" smooth="yes"/>
      <point x="866" y="1098"/>
      <point x="904" y="1142"/>
      <point x="904" y="1181" type="curve" smooth="yes"/>
      <point x="904" y="1283"/>
      <point x="805" y="1387"/>
      <point x="651" y="1387" type="curve" smooth="yes"/>
      <point x="481" y="1387"/>
      <point x="278" y="1251"/>
      <point x="278" y="954" type="curve" smooth="yes"/>
      <point x="278" y="920"/>
      <point x="286" y="857"/>
      <point x="292" y="756" type="curve"/>
      <point x="98" y="756" type="line"/>
      <point x="98" y="660" type="line"/>
      <point x="292" y="660" type="line"/>
      <point x="305" y="499"/>
      <point x="320" y="355"/>
      <point x="310" y="252" type="curve"/>
      <point x="292" y="256"/>
      <point x="266" y="260"/>
      <point x="224" y="260" type="curve" smooth="yes"/>
      <point x="169" y="260"/>
      <point x="61" y="233"/>
      <point x="61" y="105" type="curve" smooth="yes"/>
      <point x="61" y="43"/>
      <point x="92" y="-24"/>
      <point x="177" y="-24" type="curve" smooth="yes"/>
      <point x="278" y="-24"/>
      <point x="339" y="85"/>
      <point x="366" y="138" type="curve"/>
      <point x="506" y="34"/>
      <point x="565" y="-24"/>
      <point x="690" y="-24" type="curve" smooth="yes"/>
      <point x="867" y="-24"/>
      <point x="960" y="149"/>
    </contour>
    <contour>
      <point x="299" y="171" type="curve"/>
      <point x="278" y="89"/>
      <point x="239" y="36"/>
      <point x="186" y="36" type="curve" smooth="yes"/>
      <point x="149" y="36"/>
      <point x="118" y="57"/>
      <point x="118" y="113" type="curve" smooth="yes"/>
      <point x="118" y="162"/>
      <point x="149" y="199"/>
      <point x="213" y="199" type="curve" smooth="yes"/>
      <point x="256" y="199"/>
      <point x="286" y="181"/>
    </contour>
  </outline>
</glyph>
<glyph name="currency" format="2">
  <advance width="1203"/>
  <unicode hex="00A4"/>
  <outline>
    <contour>
      <point x="1073" y="316" type="line"/>
      <point x="1143" y="386" type="line"/>
      <point x="941" y="589" type="line"/>
      <point x="999" y="660"/>
      <point x="1027" y="751"/>
      <point x="1027" y="844" type="curve" smooth="yes"/>
      <point x="1027" y="936"/>
      <point x="994" y="1035"/>
      <point x="938" y="1104" type="curve"/>
      <point x="1143" y="1310" type="line"/>
      <point x="1073" y="1381" type="line"/>
      <point x="864" y="1172" type="line"/>
      <point x="797" y="1228"/>
      <point x="705" y="1260"/>
      <point x="615" y="1260" type="curve" smooth="yes"/>
      <point x="523" y="1260"/>
      <point x="427" y="1230"/>
      <point x="358" y="1174" type="curve"/>
      <point x="149" y="1381" type="line"/>
      <point x="79" y="1310" type="line"/>
      <point x="286" y="1103" type="line"/>
      <point x="222" y="1034"/>
      <point x="195" y="934"/>
      <point x="195" y="842" type="curve" smooth="yes"/>
      <point x="195" y="750"/>
      <point x="224" y="660"/>
      <point x="282" y="589" type="curve"/>
      <point x="79" y="386" type="line"/>
      <point x="149" y="316" type="line"/>
      <point x="353" y="520" type="line"/>
      <point x="425" y="455"/>
      <point x="517" y="425"/>
      <point x="615" y="425" type="curve" smooth="yes"/>
      <point x="705" y="425"/>
      <point x="798" y="458"/>
      <point x="869" y="520" type="curve"/>
    </contour>
    <contour>
      <point x="914" y="844" type="curve"/>
      <point x="914" y="678"/>
      <point x="782" y="538"/>
      <point x="615" y="538" type="curve" smooth="yes"/>
      <point x="446" y="538"/>
      <point x="307" y="673"/>
      <point x="307" y="842" type="curve" smooth="yes"/>
      <point x="307" y="1013"/>
      <point x="444" y="1148"/>
      <point x="615" y="1148" type="curve" smooth="yes"/>
      <point x="781" y="1148"/>
      <point x="914" y="1009"/>
    </contour>
  </outline>
</glyph>
<glyph name="yen" format="2">
  <advance width="1026"/>
  <unicode hex="00A5"/>
  <outline>
    <contour>
      <point x="598" y="353" type="line"/>
      <point x="1005" y="353" type="line"/>
      <point x="1005" y="425" type="line"/>
      <point x="598" y="425" type="line"/>
      <point x="598" y="588" type="line"/>
      <point x="605" y="605" type="line"/>
      <point x="1005" y="605" type="line"/>
      <point x="1005" y="678" type="line"/>
      <point x="635" y="678" type="line"/>
      <point x="852" y="1166" type="line" smooth="yes"/>
      <point x="881" y="1230"/>
      <point x="911" y="1274"/>
      <point x="936" y="1296" type="curve" smooth="yes"/>
      <point x="957" y="1313"/>
      <point x="984" y="1320"/>
      <point x="1026" y="1320" type="curve"/>
      <point x="1026" y="1357" type="line"/>
      <point x="678" y="1357" type="line"/>
      <point x="678" y="1320" type="line"/>
      <point x="718" y="1319"/>
      <point x="745" y="1316"/>
      <point x="769" y="1299" type="curve" smooth="yes"/>
      <point x="806" y="1274"/>
      <point x="782" y="1217"/>
      <point x="769" y="1183" type="curve" smooth="yes"/>
      <point x="557" y="678" type="line"/>
      <point x="343" y="1198" type="line" smooth="yes"/>
      <point x="331" y="1230"/>
      <point x="301" y="1266"/>
      <point x="346" y="1296" type="curve" smooth="yes"/>
      <point x="374" y="1313"/>
      <point x="398" y="1318"/>
      <point x="446" y="1320" type="curve"/>
      <point x="446" y="1357" type="line"/>
      <point x="2" y="1357" type="line"/>
      <point x="2" y="1320" type="line"/>
      <point x="39" y="1318"/>
      <point x="69" y="1310"/>
      <point x="92" y="1289" type="curve"/>
      <point x="118" y="1272"/>
      <point x="141" y="1233"/>
      <point x="166" y="1175" type="curve" smooth="yes"/>
      <point x="378" y="678" type="line"/>
      <point x="20" y="678" type="line"/>
      <point x="20" y="605" type="line"/>
      <point x="412" y="605" type="line"/>
      <point x="425" y="570" type="line"/>
      <point x="425" y="425" type="line"/>
      <point x="20" y="425" type="line"/>
      <point x="20" y="353" type="line"/>
      <point x="425" y="353" type="line"/>
      <point x="425" y="244" type="line" smooth="yes"/>
      <point x="425" y="175"/>
      <point x="427" y="107"/>
      <point x="406" y="83" type="curve" smooth="yes"/>
      <point x="376" y="49"/>
      <point x="331" y="41"/>
      <point x="286" y="41" type="curve" smooth="yes"/>
      <point x="252" y="41" type="line"/>
      <point x="252" y="0" type="line"/>
      <point x="769" y="0" type="line"/>
      <point x="769" y="41" type="line"/>
      <point x="728" y="41" type="line" smooth="yes"/>
      <point x="697" y="41"/>
      <point x="647" y="53"/>
      <point x="623" y="80" type="curve" smooth="yes"/>
      <point x="598" y="112"/>
      <point x="598" y="169"/>
      <point x="598" y="244" type="curve" smooth="yes"/>
    </contour>
  </outline>
</glyph>
<glyph name="brokenbar" format="1">
  <advance width="681"/>
  <unicode hex="00A6"/>
  <outline>
    <contour>
      <point x="290" y="662" type="line"/>
      <point x="390" y="662" type="line"/>
      <point x="390" y="1450" type="line"/>
      <point x="290" y="1450" type="line"/>
    </contour>
    <contour>
      <point x="290" y="-391" type="line"/>
      <point x="390" y="-391" type="line"/>
      <point x="390" y="398" type="line"/>
      <point x="290" y="398" type="line"/>
    </contour>
  </outline>
</glyph>
<glyph name="dieresis" format="1">
  <advance width="613"/>
  <unicode hex="00A8"/>
  <outline>
    <contour>
      <point x="613" y="1228" type="curve"/>
      <point x="613" y="1283"/>
      <point x="566" y="1331"/>
      <point x="511" y="1331" type="curve" smooth="yes"/>
      <point x="459" y="1331"/>
      <point x="408" y="1280"/>
      <point x="408" y="1228" type="curve" smooth="yes"/>
      <point x="408" y="1175"/>
      <point x="455" y="1126"/>
      <point x="511" y="1126" type="curve" smooth="yes"/>
      <point x="566" y="1126"/>
      <point x="613" y="1174"/>
    </contour>
    <contour>
      <point x="204" y="1228" type="curve"/>
      <point x="204" y="1283"/>
      <point x="156" y="1331"/>
      <point x="100" y="1331" type="curve" smooth="yes"/>
      <point x="49" y="1331"/>
      <point x="0" y="1280"/>
      <point x="0" y="1228" type="curve" smooth="yes"/>
      <point x="0" y="1175"/>
      <point x="47" y="1126"/>
      <point x="100" y="1126" type="curve" smooth="yes"/>
      <point x="156" y="1126"/>
      <point x="204" y="1174"/>
    </contour>
    <contour>
      <point x="306" y="1375" type="move" name="U"/>
    </contour>
  </outline>
</glyph>
<glyph name="guillemotleft" format="2">
  <advance width="1026"/>
  <unicode hex="00AB"/>
  <outline>
    <contour>
      <point x="904" y="-8" type="line"/>
      <point x="960" y="-8" type="line"/>
      <point x="715" y="466" type="line"/>
      <point x="960" y="935" type="line"/>
      <point x="904" y="935" type="line"/>
      <point x="508" y="466" type="line"/>
    </contour>
    <contour>
      <point x="451" y="-8" type="line"/>
      <point x="506" y="-8" type="line"/>
      <point x="262" y="466" type="line"/>
      <point x="506" y="935" type="line"/>
      <point x="451" y="935" type="line"/>
      <point x="64" y="466" type="line"/>
    </contour>
  </outline>
</glyph>
<glyph name="logicalnot" format="1">
  <advance width="1222"/>
  <unicode hex="00AC"/>
  <outline>
    <contour>
      <point x="1026" y="373" type="line"/>
      <point x="1143" y="373" type="line"/>
      <point x="1143" y="828" type="line"/>
      <point x="79" y="828" type="line"/>
      <point x="79" y="710" type="line"/>
      <point x="1026" y="710" type="line"/>
    </contour>
  </outline>
</glyph>
<glyph name="sfthyphen" format="1">
  <advance width="682"/>
  <unicode hex="00AD"/>
  <outline>
    <contour>
      <point x="83" y="382" type="line"/>
      <point x="600" y="382" type="line"/>
      <point x="600" y="535" type="line"/>
      <point x="83" y="535" type="line"/>
    </contour>
    <contour>
      <point x="343" y="1000" type="move" name="U"/>
    </contour>
  </outline>
</glyph>
<glyph name="registered" format="2">
  <advance width="1558"/>
  <unicode hex="00AE"/>
  <outline>
    <contour>
      <point x="1490" y="678" type="curve"/>
      <point x="1490" y="1076"/>
      <point x="1180" y="1389"/>
      <point x="780" y="1389" type="curve" smooth="yes"/>
      <point x="427" y="1389"/>
      <point x="69" y="1121"/>
      <point x="69" y="678" type="curve" smooth="yes"/>
      <point x="69" y="273"/>
      <point x="389" y="-32"/>
      <point x="780" y="-32" type="curve" smooth="yes"/>
      <point x="1172" y="-32"/>
      <point x="1490" y="278"/>
    </contour>
    <contour>
      <point x="1427" y="678" type="curve"/>
      <point x="1427" y="301"/>
      <point x="1124" y="32"/>
      <point x="780" y="32" type="curve" smooth="yes"/>
      <point x="429" y="32"/>
      <point x="132" y="305"/>
      <point x="132" y="678" type="curve" smooth="yes"/>
      <point x="132" y="1079"/>
      <point x="461" y="1327"/>
      <point x="780" y="1327" type="curve" smooth="yes"/>
      <point x="1136" y="1327"/>
      <point x="1427" y="1043"/>
    </contour>
    <contour>
      <point x="994" y="250" type="line"/>
      <point x="1180" y="250" type="line"/>
      <point x="1180" y="284" type="line"/>
      <point x="1156" y="286"/>
      <point x="1138" y="290"/>
      <point x="1126" y="297" type="curve" smooth="yes"/>
      <point x="1104" y="312"/>
      <point x="1084" y="331"/>
      <point x="1058" y="371" type="curve" smooth="yes"/>
      <point x="850" y="668" type="line"/>
      <point x="929" y="689"/>
      <point x="1071" y="742"/>
      <point x="1071" y="891" type="curve" smooth="yes"/>
      <point x="1071" y="1013"/>
      <point x="964" y="1115"/>
      <point x="774" y="1115" type="curve" smooth="yes"/>
      <point x="386" y="1115" type="line"/>
      <point x="386" y="1079" type="line"/>
      <point x="416" y="1079"/>
      <point x="438" y="1074"/>
      <point x="450" y="1066" type="curve" smooth="yes"/>
      <point x="463" y="1058"/>
      <point x="471" y="1044"/>
      <point x="475" y="1032" type="curve" smooth="yes"/>
      <point x="477" y="1023"/>
      <point x="477" y="994"/>
      <point x="477" y="943" type="curve" smooth="yes"/>
      <point x="477" y="420" type="line" smooth="yes"/>
      <point x="477" y="369"/>
      <point x="477" y="329"/>
      <point x="461" y="310" type="curve" smooth="yes"/>
      <point x="443" y="284"/>
      <point x="406" y="284"/>
      <point x="374" y="284" type="curve"/>
      <point x="374" y="250" type="line"/>
      <point x="742" y="250" type="line"/>
      <point x="742" y="284" type="line"/>
      <point x="698" y="284"/>
      <point x="666" y="289"/>
      <point x="653" y="297" type="curve" smooth="yes"/>
      <point x="639" y="307"/>
      <point x="623" y="323"/>
      <point x="623" y="345" type="curve" smooth="yes"/>
      <point x="623" y="654" type="line"/>
      <point x="700" y="654" type="line"/>
    </contour>
    <contour>
      <point x="911" y="880" type="curve"/>
      <point x="911" y="703"/>
      <point x="710" y="698"/>
      <point x="623" y="698" type="curve"/>
      <point x="623" y="1058" type="line"/>
      <point x="654" y="1066"/>
      <point x="682" y="1071"/>
      <point x="707" y="1071" type="curve" smooth="yes"/>
      <point x="834" y="1071"/>
      <point x="911" y="981"/>
    </contour>
  </outline>
</glyph>
<glyph name="overscore" format="2">
  <advance width="643"/>
  <unicode hex="00AF"/>
  <outline>
    <contour>
      <point x="0" y="1126" type="line"/>
      <point x="643" y="1126" type="line"/>
      <point x="643" y="1236" type="line"/>
      <point x="0" y="1236" type="line"/>
    </contour>
  </outline>
</glyph>
<glyph name="plusminus" format="1">
  <advance width="1972"/>
  <unicode hex="00B1"/>
  <outline>
    <contour>
      <point x="1046" y="705" type="line"/>
      <point x="1577" y="705" type="line"/>
      <point x="1577" y="828" type="line"/>
      <point x="1046" y="828" type="line"/>
      <point x="1046" y="1183" type="line"/>
      <point x="926" y="1183" type="line"/>
      <point x="926" y="828" type="line"/>
      <point x="396" y="828" type="line"/>
      <point x="396" y="705" type="line"/>
      <point x="926" y="705" type="line"/>
      <point x="926" y="351" type="line"/>
      <point x="1046" y="351" type="line"/>
    </contour>
    <contour>
      <point x="396" y="0" type="line"/>
      <point x="1577" y="0" type="line"/>
      <point x="1577" y="122" type="line"/>
      <point x="396" y="122" type="line"/>
    </contour>
  </outline>
</glyph>
<glyph name="acute" format="2">
  <advance width="703"/>
  <unicode hex="00B4"/>
  <anchor x="471" y="1375" name="U"/>
  <outline>
    <contour>
      <point x="703" y="1331" type="curve"/>
      <point x="703" y="1358"/>
      <point x="670" y="1396"/>
      <point x="650" y="1396" type="curve" smooth="yes"/>
      <point x="605" y="1396"/>
      <point x="560" y="1365"/>
      <point x="526" y="1328" type="curve" smooth="yes"/>
      <point x="241" y="1043" type="line"/>
      <point x="323" y="1043" type="line"/>
      <point x="620" y="1230" type="line" smooth="yes"/>
      <point x="662" y="1258"/>
      <point x="703" y="1291"/>
    </contour>
  </outline>
</glyph>
<glyph name="paragraph" format="2">
  <advance width="929"/>
  <unicode hex="00B6"/>
  <outline>
    <contour>
      <point x="800" y="1302" type="line"/>
      <point x="934" y="1302" type="line"/>
      <point x="934" y="1357" type="line"/>
      <point x="438" y="1357" type="line" smooth="yes"/>
      <point x="222" y="1357"/>
      <point x="-13" y="1272"/>
      <point x="-13" y="982" type="curve" smooth="yes"/>
      <point x="-13" y="668"/>
      <point x="237" y="609"/>
      <point x="467" y="604" type="curve"/>
      <point x="467" y="-444" type="line"/>
      <point x="540" y="-444" type="line"/>
      <point x="540" y="1302" type="line"/>
      <point x="727" y="1302" type="line"/>
      <point x="727" y="-444" type="line"/>
      <point x="800" y="-444" type="line"/>
    </contour>
  </outline>
</glyph>
<glyph name="periodcentered" format="1">
  <advance width="371"/>
  <unicode hex="00B7"/>
  <outline>
    <contour>
      <point x="301" y="670" type="curve"/>
      <point x="301" y="735"/>
      <point x="250" y="787"/>
      <point x="186" y="787" type="curve" smooth="yes"/>
      <point x="120" y="787"/>
      <point x="69" y="735"/>
      <point x="69" y="670" type="curve" smooth="yes"/>
      <point x="69" y="605"/>
      <point x="120" y="553"/>
      <point x="186" y="553" type="curve" smooth="yes"/>
      <point x="250" y="553"/>
      <point x="301" y="605"/>
    </contour>
  </outline>
</glyph>
<glyph name="onesuperior" format="1">
  <advance width="737"/>
  <unicode hex="00B9"/>
  <outline>
    <contour>
      <point x="190" y="806" type="line"/>
      <point x="558" y="806" type="line"/>
      <point x="558" y="828" type="line"/>
      <point x="436" y="828"/>
      <point x="436" y="846"/>
      <point x="436" y="950" type="curve" smooth="yes"/>
      <point x="436" y="1639" type="line"/>
      <point x="411" y="1639" type="line"/>
      <point x="174" y="1543" type="line"/>
      <point x="183" y="1523" type="line"/>
      <point x="327" y="1577"/>
      <point x="316" y="1497"/>
      <point x="316" y="1390" type="curve" smooth="yes"/>
      <point x="316" y="950" type="line" smooth="yes"/>
      <point x="316" y="849"/>
      <point x="312" y="828"/>
      <point x="190" y="828" type="curve"/>
    </contour>
    <contour>
      <point x="366" y="750" type="move" name="L"/>
    </contour>
    <contour>
      <point x="366" y="1626" type="move" name="U"/>
    </contour>
  </outline>
</glyph>
<glyph name="ordmasculine" format="1">
  <advance width="751"/>
  <unicode hex="00BA"/>
  <outline>
    <contour>
      <point x="695" y="1092" type="curve"/>
      <point x="695" y="1248"/>
      <point x="566" y="1372"/>
      <point x="376" y="1372" type="curve" smooth="yes"/>
      <point x="177" y="1372"/>
      <point x="57" y="1225"/>
      <point x="57" y="1076" type="curve" smooth="yes"/>
      <point x="57" y="922"/>
      <point x="186" y="789"/>
      <point x="371" y="789" type="curve" smooth="yes"/>
      <point x="585" y="789"/>
      <point x="695" y="950"/>
    </contour>
    <contour>
      <point x="69" y="654" type="line"/>
      <point x="684" y="654" type="line"/>
      <point x="684" y="698" type="line"/>
      <point x="69" y="698" type="line"/>
    </contour>
    <contour>
      <point x="560" y="1044" type="curve"/>
      <point x="560" y="888"/>
      <point x="496" y="833"/>
      <point x="400" y="833" type="curve" smooth="yes"/>
      <point x="274" y="833"/>
      <point x="192" y="968"/>
      <point x="192" y="1126" type="curve" smooth="yes"/>
      <point x="192" y="1286"/>
      <point x="281" y="1335"/>
      <point x="355" y="1335" type="curve" smooth="yes"/>
      <point x="481" y="1335"/>
      <point x="560" y="1209"/>
    </contour>
  </outline>
</glyph>
<glyph name="guillemotright" format="2">
  <advance width="1026"/>
  <unicode hex="00BB"/>
  <outline>
    <contour>
      <point x="574" y="-8" type="line"/>
      <point x="961" y="463" type="line"/>
      <point x="574" y="935" type="line"/>
      <point x="520" y="935" type="line"/>
      <point x="764" y="463" type="line"/>
      <point x="520" y="-8" type="line"/>
    </contour>
    <contour>
      <point x="122" y="-8" type="line"/>
      <point x="517" y="463" type="line"/>
      <point x="122" y="935" type="line"/>
      <point x="66" y="935" type="line"/>
      <point x="310" y="463" type="line"/>
      <point x="66" y="-8" type="line"/>
    </contour>
  </outline>
</glyph>
<glyph name="onequarter" format="1">
  <advance width="1519"/>
  <unicode hex="00BC"/>
  <outline>
    <contour>
      <point x="1243" y="212" type="line"/>
      <point x="1352" y="212" type="line"/>
      <point x="1352" y="296" type="line"/>
      <point x="1243" y="296" type="line"/>
      <point x="1243" y="833" type="line"/>
      <point x="1178" y="833" type="line"/>
      <point x="795" y="286" type="line"/>
      <point x="795" y="212" type="line"/>
      <point x="1143" y="212" type="line"/>
      <point x="1143" y="-8" type="line"/>
      <point x="1243" y="-8" type="line"/>
    </contour>
    <contour>
      <point x="351" y="-15" type="line"/>
      <point x="1278" y="1382" type="line"/>
      <point x="1186" y="1382" type="line"/>
      <point x="252" y="-15" type="line"/>
    </contour>
    <contour>
      <point x="179" y="526" type="line"/>
      <point x="491" y="526" type="line"/>
      <point x="491" y="549" type="line"/>
      <point x="386" y="549"/>
      <point x="386" y="565"/>
      <point x="386" y="670" type="curve" smooth="yes"/>
      <point x="386" y="1365" type="line"/>
      <point x="366" y="1365" type="line"/>
      <point x="166" y="1267" type="line"/>
      <point x="174" y="1245" type="line"/>
      <point x="297" y="1304"/>
      <point x="286" y="1222"/>
      <point x="286" y="1112" type="curve" smooth="yes"/>
      <point x="286" y="670" type="line" smooth="yes"/>
      <point x="286" y="565"/>
      <point x="282" y="549"/>
      <point x="179" y="549" type="curve"/>
    </contour>
    <contour>
      <point x="1143" y="704" type="line"/>
      <point x="1143" y="296" type="line"/>
      <point x="854" y="296" type="line"/>
    </contour>
  </outline>
</glyph>
<glyph name="AE" format="2">
  <advance width="1824"/>
  <unicode hex="00C6"/>
  <anchor x="871" y="-100" name="L"/>
  <anchor x="871" y="1435" name="U"/>
  <outline>
    <contour>
      <point x="1658" y="0" type="line"/>
      <point x="1765" y="343" type="line"/>
      <point x="1728" y="343" type="line"/>
      <point x="1636" y="152"/>
      <point x="1551" y="74"/>
      <point x="1325" y="74" type="curve" smooth="yes"/>
      <point x="1143" y="74" type="line" smooth="yes"/>
      <point x="1065" y="74"/>
      <point x="1046" y="97"/>
      <point x="1035" y="115" type="curve" smooth="yes"/>
      <point x="1026" y="128"/>
      <point x="1027" y="169"/>
      <point x="1027" y="222" type="curve" smooth="yes"/>
      <point x="1027" y="673" type="line"/>
      <point x="1286" y="673" type="line" smooth="yes"/>
      <point x="1457" y="673"/>
      <point x="1482" y="632"/>
      <point x="1503" y="474" type="curve"/>
      <point x="1538" y="474" type="line"/>
      <point x="1538" y="943" type="line"/>
      <point x="1503" y="943" type="line"/>
      <point x="1490" y="798"/>
      <point x="1442" y="747"/>
      <point x="1286" y="747" type="curve" smooth="yes"/>
      <point x="1027" y="747" type="line"/>
      <point x="1027" y="1283" type="line"/>
      <point x="1360" y="1283" type="line" smooth="yes"/>
      <point x="1564" y="1283"/>
      <point x="1586" y="1245"/>
      <point x="1626" y="1061" type="curve"/>
      <point x="1658" y="1061" type="line"/>
      <point x="1643" y="1357" type="line"/>
      <point x="530" y="1357" type="line"/>
      <point x="530" y="1320" type="line"/>
      <point x="673" y="1313"/>
      <point x="704" y="1283"/>
      <point x="704" y="1239" type="curve" smooth="yes"/>
      <point x="704" y="1206"/>
      <point x="678" y="1140"/>
      <point x="627" y="1044" type="curve" smooth="yes"/>
      <point x="213" y="274" type="line" smooth="yes"/>
      <point x="136" y="132"/>
      <point x="90" y="79"/>
      <point x="51" y="55" type="curve" smooth="yes"/>
      <point x="32" y="43"/>
      <point x="6" y="38"/>
      <point x="-24" y="38" type="curve"/>
      <point x="-24" y="0" type="line"/>
      <point x="402" y="0" type="line"/>
      <point x="402" y="38" type="line"/>
      <point x="337" y="43"/>
      <point x="296" y="53"/>
      <point x="274" y="67" type="curve" smooth="yes"/>
      <point x="220" y="100"/>
      <point x="241" y="154"/>
      <point x="316" y="292" type="curve" smooth="yes"/>
      <point x="440" y="526" type="line"/>
      <point x="835" y="526" type="line"/>
      <point x="835" y="241" type="line" smooth="yes"/>
      <point x="835" y="158"/>
      <point x="828" y="107"/>
      <point x="812" y="87" type="curve" smooth="yes"/>
      <point x="784" y="53"/>
      <point x="745" y="38"/>
      <point x="689" y="38" type="curve" smooth="yes"/>
      <point x="639" y="38" type="line"/>
      <point x="639" y="0" type="line"/>
    </contour>
    <contour>
      <point x="835" y="1283" type="line"/>
      <point x="835" y="600" type="line"/>
      <point x="477" y="600" type="line"/>
    </contour>
  </outline>
</glyph>
<glyph name="multiply" format="2">
  <advance width="1972"/>
  <unicode hex="00D7"/>
  <outline>
    <contour>
      <point x="1442" y="59" type="line"/>
      <point x="1519" y="136" type="line"/>
      <point x="1065" y="591" type="line"/>
      <point x="1519" y="1046" type="line"/>
      <point x="1442" y="1124" type="line"/>
      <point x="986" y="666" type="line"/>
      <point x="530" y="1124" type="line"/>
      <point x="453" y="1046" type="line"/>
      <point x="907" y="591" type="line"/>
      <point x="453" y="136" type="line"/>
      <point x="530" y="59" type="line"/>
      <point x="986" y="517" type="line"/>
    </contour>
  </outline>
</glyph>
<glyph name="Oslash" format="2">
  <advance width="1481"/>
  <unicode hex="00D8"/>
  <anchor x="737" y="-100" name="L"/>
  <anchor x="737" y="1435" name="U"/>
  <outline>
    <contour>
      <point x="751" y="1389" type="curve" smooth="yes"/>
      <point x="366" y="1389"/>
      <point x="71" y="1089"/>
      <point x="71" y="682" type="curve" smooth="yes"/>
      <point x="71" y="466"/>
      <point x="146" y="285"/>
      <point x="270" y="158" type="curve"/>
      <point x="141" y="0" type="line"/>
      <point x="201" y="-47" type="line"/>
      <point x="327" y="107" type="line"/>
      <point x="442" y="15"/>
      <point x="583" y="-32"/>
      <point x="734" y="-32" type="curve" smooth="yes"/>
      <point x="1112" y="-32"/>
      <point x="1400" y="276"/>
      <point x="1400" y="687" type="curve" smooth="yes"/>
      <point x="1400" y="890"/>
      <point x="1325" y="1067"/>
      <point x="1205" y="1191" type="curve"/>
      <point x="1340" y="1357" type="line"/>
      <point x="1280" y="1400" type="line"/>
      <point x="1151" y="1243" type="line"/>
      <point x="1041" y="1336"/>
      <point x="903" y="1389"/>
    </contour>
    <contour>
      <point x="729" y="1318" type="curve"/>
      <point x="881" y="1317"/>
      <point x="991" y="1256"/>
      <point x="1067" y="1140" type="curve"/>
      <point x="375" y="287" type="line"/>
      <point x="321" y="414"/>
      <point x="301" y="540"/>
      <point x="301" y="689" type="curve" smooth="yes"/>
      <point x="301" y="1078"/>
      <point x="458" y="1318"/>
    </contour>
    <contour>
      <point x="731" y="39" type="curve"/>
      <point x="596" y="40"/>
      <point x="488" y="103"/>
      <point x="413" y="215" type="curve"/>
      <point x="1105" y="1068" type="line"/>
      <point x="1158" y="937"/>
      <point x="1175" y="816"/>
      <point x="1174" y="660" type="curve" smooth="yes"/>
      <point x="1171" y="233"/>
      <point x="991" y="39"/>
    </contour>
  </outline>
</glyph>
<glyph name="Thorn" format="1">
  <advance width="1140"/>
  <unicode hex="00DE"/>
  <outline>
    <contour>
      <point x="1063" y="681" type="curve"/>
      <point x="1063" y="812"/>
      <point x="991" y="910"/>
      <point x="899" y="973" type="curve" smooth="yes"/>
      <point x="814" y="1029"/>
      <point x="735" y="1050"/>
      <point x="496" y="1050" type="curve" smooth="yes"/>
      <point x="420" y="1050" type="line"/>
      <point x="420" y="1115" type="line" smooth="yes"/>
      <point x="420" y="1181"/>
      <point x="423" y="1204"/>
      <point x="438" y="1248" type="curve" smooth="yes"/>
      <point x="455" y="1302"/>
      <point x="530" y="1320"/>
      <point x="574" y="1320" type="curve" smooth="yes"/>
      <point x="615" y="1320" type="line"/>
      <point x="615" y="1357" type="line"/>
      <point x="38" y="1357" type="line"/>
      <point x="38" y="1320" type="line"/>
      <point x="75" y="1320" type="line" smooth="yes"/>
      <point x="149" y="1320"/>
      <point x="204" y="1288"/>
      <point x="215" y="1248" type="curve"/>
      <point x="222" y="1233"/>
      <point x="227" y="1186"/>
      <point x="227" y="1111" type="curve" smooth="yes"/>
      <point x="227" y="241" type="line" smooth="yes"/>
      <point x="227" y="160"/>
      <point x="220" y="112"/>
      <point x="207" y="92" type="curve" smooth="yes"/>
      <point x="181" y="55"/>
      <point x="138" y="38"/>
      <point x="74" y="38" type="curve" smooth="yes"/>
      <point x="38" y="38" type="line"/>
      <point x="38" y="0" type="line"/>
      <point x="615" y="0" type="line"/>
      <point x="615" y="38" type="line"/>
      <point x="574" y="38" type="line" smooth="yes"/>
      <point x="517" y="38"/>
      <point x="480" y="49"/>
      <point x="455" y="75" type="curve" smooth="yes"/>
      <point x="432" y="102"/>
      <point x="420" y="158"/>
      <point x="420" y="244" type="curve" smooth="yes"/>
      <point x="420" y="305" type="line"/>
      <point x="491" y="305" type="line" smooth="yes"/>
      <point x="811" y="305"/>
      <point x="883" y="355"/>
      <point x="954" y="425" type="curve" smooth="yes"/>
      <point x="1020" y="491"/>
      <point x="1063" y="581"/>
    </contour>
    <contour>
      <point x="830" y="678" type="curve"/>
      <point x="830" y="506"/>
      <point x="731" y="374"/>
      <point x="466" y="374" type="curve" smooth="yes"/>
      <point x="420" y="374" type="line"/>
      <point x="420" y="973" type="line"/>
      <point x="467" y="973" type="line" smooth="yes"/>
      <point x="650" y="973"/>
      <point x="665" y="952"/>
      <point x="718" y="914" type="curve" smooth="yes"/>
      <point x="790" y="861"/>
      <point x="830" y="775"/>
    </contour>
    <contour>
      <point x="550" y="-100" type="move" name="L"/>
    </contour>
    <contour>
      <point x="550" y="1435" type="move" name="U"/>
    </contour>
  </outline>
</glyph>
<glyph name="germandbls" format="1">
  <advance width="1026"/>
  <unicode hex="00DF"/>
  <outline>
    <contour>
      <point x="960" y="422" type="curve"/>
      <point x="960" y="643"/>
      <point x="859" y="774"/>
      <point x="687" y="822" type="curve"/>
      <point x="849" y="889"/>
      <point x="877" y="996"/>
      <point x="877" y="1098" type="curve" smooth="yes"/>
      <point x="877" y="1291"/>
      <point x="737" y="1424"/>
      <point x="526" y="1424" type="curve" smooth="yes"/>
      <point x="292" y="1424"/>
      <point x="167" y="1294"/>
      <point x="167" y="968" type="curve" smooth="yes"/>
      <point x="167" y="224" type="line" smooth="yes"/>
      <point x="167" y="71"/>
      <point x="140" y="39"/>
      <point x="36" y="38" type="curve"/>
      <point x="36" y="0" type="line"/>
      <point x="335" y="0" type="line"/>
      <point x="335" y="1037" type="line" smooth="yes"/>
      <point x="335" y="1304"/>
      <point x="412" y="1357"/>
      <point x="517" y="1357" type="curve" smooth="yes"/>
      <point x="630" y="1357"/>
      <point x="710" y="1286"/>
      <point x="710" y="1104" type="curve" smooth="yes"/>
      <point x="710" y="899"/>
      <point x="628" y="833"/>
      <point x="496" y="833" type="curve"/>
      <point x="496" y="775" type="line"/>
      <point x="698" y="758"/>
      <point x="789" y="588"/>
      <point x="789" y="314" type="curve" smooth="yes"/>
      <point x="789" y="135"/>
      <point x="728" y="43"/>
      <point x="639" y="43" type="curve"/>
      <point x="604" y="47"/>
      <point x="581" y="59"/>
      <point x="581" y="90" type="curve" smooth="yes"/>
      <point x="581" y="102"/>
      <point x="596" y="140"/>
      <point x="593" y="158" type="curve" smooth="yes"/>
      <point x="591" y="205"/>
      <point x="562" y="237"/>
      <point x="511" y="237" type="curve" smooth="yes"/>
      <point x="459" y="237"/>
      <point x="427" y="201"/>
      <point x="429" y="149" type="curve" smooth="yes"/>
      <point x="432" y="55"/>
      <point x="512" y="-12"/>
      <point x="623" y="-12" type="curve" smooth="yes"/>
      <point x="833" y="-12"/>
      <point x="960" y="193"/>
    </contour>
    <contour>
      <point x="498" y="-100" type="move" name="L"/>
    </contour>
    <contour>
      <point x="498" y="1435" type="move" name="U"/>
    </contour>
  </outline>
</glyph>
<glyph name="eth" format="1">
  <advance width="1005"/>
  <unicode hex="00F0"/>
  <outline>
    <contour>
      <point x="950" y="474" type="curve"/>
      <point x="950" y="728"/>
      <point x="812" y="1004"/>
      <point x="566" y="1222" type="curve"/>
      <point x="797" y="1352" type="line"/>
      <point x="761" y="1408" type="line"/>
      <point x="512" y="1270" type="line"/>
      <point x="425" y="1333"/>
      <point x="345" y="1385"/>
      <point x="264" y="1424" type="curve"/>
      <point x="239" y="1381" type="line"/>
      <point x="314" y="1327"/>
      <point x="339" y="1310"/>
      <point x="425" y="1222" type="curve"/>
      <point x="193" y="1090" type="line"/>
      <point x="220" y="1035" type="line"/>
      <point x="469" y="1172" type="line"/>
      <point x="544" y="1084"/>
      <point x="605" y="986"/>
      <point x="658" y="877" type="curve"/>
      <point x="580" y="935"/>
      <point x="546" y="935"/>
      <point x="489" y="935" type="curve" smooth="yes"/>
      <point x="244" y="935"/>
      <point x="67" y="698"/>
      <point x="67" y="443" type="curve" smooth="yes"/>
      <point x="67" y="174"/>
      <point x="258" y="-30"/>
      <point x="500" y="-30" type="curve" smooth="yes"/>
      <point x="784" y="-30"/>
      <point x="950" y="220"/>
    </contour>
    <contour>
      <point x="766" y="376" type="curve"/>
      <point x="766" y="140"/>
      <point x="673" y="43"/>
      <point x="549" y="43" type="curve" smooth="yes"/>
      <point x="369" y="43"/>
      <point x="250" y="254"/>
      <point x="252" y="520" type="curve" smooth="yes"/>
      <point x="254" y="790"/>
      <point x="363" y="875"/>
      <point x="480" y="875" type="curve" smooth="yes"/>
      <point x="651" y="875"/>
      <point x="766" y="681"/>
    </contour>
    <contour>
      <point x="508" y="-100" type="move" name="L"/>
    </contour>
    <contour>
      <point x="508" y="1435" type="move" name="U"/>
    </contour>
  </outline>
</glyph>
<glyph name="divide" format="2">
  <advance width="1972"/>
  <unicode hex="00F7"/>
  <outline>
    <contour>
      <point x="1104" y="910" type="curve"/>
      <point x="1104" y="974"/>
      <point x="1051" y="1027"/>
      <point x="986" y="1027" type="curve" smooth="yes"/>
      <point x="920" y="1027"/>
      <point x="867" y="974"/>
      <point x="867" y="910" type="curve" smooth="yes"/>
      <point x="867" y="842"/>
      <point x="920" y="790"/>
      <point x="986" y="790" type="curve" smooth="yes"/>
      <point x="1051" y="790"/>
      <point x="1104" y="842"/>
    </contour>
    <contour>
      <point x="396" y="530" type="line"/>
      <point x="1577" y="530" type="line"/>
      <point x="1577" y="653" type="line"/>
      <point x="396" y="653" type="line"/>
    </contour>
    <contour>
      <point x="1104" y="274" type="curve"/>
      <point x="1104" y="342"/>
      <point x="1051" y="393"/>
      <point x="986" y="393" type="curve" smooth="yes"/>
      <point x="920" y="393"/>
      <point x="867" y="342"/>
      <point x="867" y="274" type="curve" smooth="yes"/>
      <point x="867" y="209"/>
      <point x="920" y="158"/>
      <point x="986" y="158" type="curve" smooth="yes"/>
      <point x="1051" y="158"/>
      <point x="1104" y="209"/>
    </contour>
  </outline>
</glyph>
<glyph name="thorn" format="2">
  <advance width="1005"/>
  <unicode hex="00FE"/>
  <anchor x="474" y="-500" name="L"/>
  <anchor x="474" y="1435" name="U"/>
  <outline>
    <contour>
      <point x="957" y="493" type="curve"/>
      <point x="957" y="747"/>
      <point x="816" y="943"/>
      <point x="613" y="943" type="curve" smooth="yes"/>
      <point x="503" y="943"/>
      <point x="412" y="888"/>
      <point x="319" y="727" type="curve"/>
      <point x="319" y="1424" type="line"/>
      <point x="281" y="1424" type="line"/>
      <point x="-2" y="1312" type="line"/>
      <point x="10" y="1278" type="line"/>
      <point x="71" y="1302"/>
      <point x="98" y="1294"/>
      <point x="118" y="1280" type="curve" smooth="yes"/>
      <point x="146" y="1265"/>
      <point x="152" y="1251"/>
      <point x="152" y="1130" type="curve" smooth="yes"/>
      <point x="152" y="-220" type="line" smooth="yes"/>
      <point x="152" y="-384"/>
      <point x="135" y="-393"/>
      <point x="-8" y="-400" type="curve"/>
      <point x="-8" y="-438" type="line"/>
      <point x="474" y="-438" type="line"/>
      <point x="474" y="-400" type="line"/>
      <point x="329" y="-393"/>
      <point x="319" y="-369"/>
      <point x="319" y="-224" type="curve" smooth="yes"/>
      <point x="319" y="53" type="line"/>
      <point x="404" y="-24"/>
      <point x="455" y="-30"/>
      <point x="536" y="-30" type="curve" smooth="yes"/>
      <point x="790" y="-26"/>
      <point x="957" y="205"/>
    </contour>
    <contour>
      <point x="777" y="398" type="curve"/>
      <point x="777" y="171"/>
      <point x="682" y="30"/>
      <point x="532" y="32" type="curve" smooth="yes"/>
      <point x="414" y="34"/>
      <point x="345" y="107"/>
      <point x="327" y="177" type="curve" smooth="yes"/>
      <point x="321" y="204"/>
      <point x="319" y="250"/>
      <point x="319" y="323" type="curve" smooth="yes"/>
      <point x="319" y="666" type="line"/>
      <point x="446" y="798"/>
      <point x="475" y="800"/>
      <point x="532" y="800" type="curve" smooth="yes"/>
      <point x="682" y="800"/>
      <point x="777" y="630"/>
    </contour>
  </outline>
</glyph>
<glyph name="oe" format="1">
  <advance width="1481"/>
  <unicode hex="0153"/>
  <outline>
    <contour>
      <point x="1413" y="339" type="curve"/>
      <point x="1381" y="355" type="line"/>
      <point x="1322" y="193"/>
      <point x="1243" y="138"/>
      <point x="1140" y="138" type="curve" smooth="yes"/>
      <point x="968" y="138"/>
      <point x="852" y="305"/>
      <point x="866" y="574" type="curve"/>
      <point x="1413" y="574" type="line"/>
      <point x="1419" y="800"/>
      <point x="1294" y="944"/>
      <point x="1087" y="944" type="curve" smooth="yes"/>
      <point x="961" y="944"/>
      <point x="874" y="894"/>
      <point x="805" y="784" type="curve"/>
      <point x="737" y="881"/>
      <point x="630" y="943"/>
      <point x="491" y="943" type="curve" smooth="yes"/>
      <point x="252" y="943"/>
      <point x="67" y="750"/>
      <point x="67" y="444" type="curve" smooth="yes"/>
      <point x="67" y="156"/>
      <point x="250" y="-32"/>
      <point x="483" y="-30" type="curve" smooth="yes"/>
      <point x="627" y="-28"/>
      <point x="727" y="32"/>
      <point x="805" y="135" type="curve"/>
      <point x="849" y="43"/>
      <point x="946" y="-32"/>
      <point x="1073" y="-30" type="curve" smooth="yes"/>
      <point x="1245" y="-28"/>
      <point x="1365" y="89"/>
    </contour>
    <contour>
      <point x="1217" y="639" type="curve"/>
      <point x="866" y="639" type="line"/>
      <point x="869" y="804"/>
      <point x="961" y="877"/>
      <point x="1038" y="877" type="curve" smooth="yes"/>
      <point x="1174" y="877"/>
      <point x="1217" y="747"/>
    </contour>
    <contour>
      <point x="715" y="378" type="curve"/>
      <point x="715" y="128"/>
      <point x="627" y="43"/>
      <point x="511" y="43" type="curve" smooth="yes"/>
      <point x="351" y="43"/>
      <point x="254" y="260"/>
      <point x="254" y="540" type="curve" smooth="yes"/>
      <point x="254" y="798"/>
      <point x="345" y="888"/>
      <point x="453" y="888" type="curve" smooth="yes"/>
      <point x="632" y="888"/>
      <point x="715" y="676"/>
    </contour>
    <contour>
      <point x="802" y="0" type="move" name="H"/>
    </contour>
    <contour>
      <point x="741" y="-100" type="move" name="L"/>
    </contour>
    <contour>
      <point x="1229" y="0" type="move" name="O"/>
    </contour>
    <contour>
      <point x="1481" y="900" type="move" name="R"/>
    </contour>
    <contour>
      <point x="741" y="1000" type="move" name="U"/>
    </contour>
  </outline>
</glyph>
<glyph name="florin" format="2">
  <advance width="682"/>
  <unicode hex="0192"/>
  <anchor x="460" y="-100" name="L"/>
  <anchor x="460" y="1435" name="U"/>
  <outline>
    <contour>
      <point x="891" y="1251" type="curve" smooth="yes"/>
      <point x="891" y="1216"/>
      <point x="856" y="1168"/>
      <point x="810" y="1168" type="curve"/>
      <point x="707" y="1164"/>
      <point x="699" y="1348"/>
      <point x="560" y="1348" type="curve" smooth="yes"/>
      <point x="432" y="1348"/>
      <point x="422" y="1240"/>
      <point x="422" y="982" type="curve" smooth="yes"/>
      <point x="422" y="916" type="line"/>
      <point x="658" y="916" type="line"/>
      <point x="658" y="844" type="line"/>
      <point x="422" y="844" type="line"/>
      <point x="422" y="4" type="line" smooth="yes"/>
      <point x="422" y="-410"/>
      <point x="144" y="-442"/>
      <point x="79" y="-442" type="curve" smooth="yes"/>
      <point x="-38" y="-442"/>
      <point x="-130" y="-361"/>
      <point x="-130" y="-270" type="curve" smooth="yes"/>
      <point x="-130" y="-235"/>
      <point x="-98" y="-188"/>
      <point x="-53" y="-188" type="curve" smooth="yes"/>
      <point x="80" y="-188"/>
      <point x="11" y="-367"/>
      <point x="141" y="-367" type="curve" smooth="yes"/>
      <point x="237" y="-367"/>
      <point x="254" y="-259"/>
      <point x="254" y="0" type="curve" smooth="yes"/>
      <point x="254" y="844" type="line"/>
      <point x="75" y="844" type="line"/>
      <point x="75" y="916" type="line"/>
      <point x="254" y="916" type="line"/>
      <point x="254" y="978" type="line" smooth="yes"/>
      <point x="254" y="1392"/>
      <point x="575" y="1423"/>
      <point x="639" y="1423" type="curve" smooth="yes"/>
      <point x="755" y="1423"/>
      <point x="891" y="1343"/>
    </contour>
  </outline>
</glyph>
<glyph name="ModMacron" format="2">
  <advance width="739"/>
  <unicode hex="02C9"/>
  <anchor x="370" y="1570" name="U"/>
  <outline>
    <contour>
      <point x="0" y="1294" type="line"/>
      <point x="739" y="1294" type="line"/>
      <point x="739" y="1421" type="line"/>
      <point x="0" y="1421" type="line"/>
    </contour>
  </outline>
</glyph>
<glyph name="uni02D0" format="2">
  <advance width="427"/>
  <unicode hex="02D0"/>
  <anchor x="215" y="-100" name="L"/>
  <anchor x="215" y="1000" name="U"/>
  <outline>
    <contour>
      <point x="262" y="604" type="line"/>
      <point x="353" y="917" type="line"/>
      <point x="75" y="917" type="line"/>
      <point x="167" y="604" type="line"/>
    </contour>
    <contour>
      <point x="75" y="0" type="line"/>
      <point x="353" y="0" type="line"/>
      <point x="262" y="314" type="line"/>
      <point x="167" y="314" type="line"/>
    </contour>
  </outline>
</glyph>
<glyph name="breve" format="1">
  <advance width="580"/>
  <unicode hex="02D8"/>
  <outline>
    <contour>
      <point x="580" y="1366" type="curve"/>
      <point x="520" y="1366" type="line"/>
      <point x="493" y="1255"/>
      <point x="412" y="1166"/>
      <point x="286" y="1166" type="curve" smooth="yes"/>
      <point x="189" y="1166"/>
      <point x="85" y="1257"/>
      <point x="61" y="1366" type="curve"/>
      <point x="0" y="1366" type="line"/>
      <point x="-6" y="1189"/>
      <point x="100" y="1043"/>
      <point x="286" y="1043" type="curve" smooth="yes"/>
      <point x="480" y="1043"/>
      <point x="568" y="1189"/>
    </contour>
    <contour>
      <point x="289" y="1375" type="move" name="U"/>
    </contour>
  </outline>
</glyph>
<glyph name="dotaccent" format="1">
  <advance width="205"/>
  <unicode hex="02D9"/>
  <outline>
    <contour>
      <point x="205" y="1228" type="curve"/>
      <point x="205" y="1291"/>
      <point x="167" y="1331"/>
      <point x="102" y="1331" type="curve" smooth="yes"/>
      <point x="41" y="1331"/>
      <point x="0" y="1289"/>
      <point x="0" y="1228" type="curve" smooth="yes"/>
      <point x="0" y="1166"/>
      <point x="41" y="1126"/>
      <point x="102" y="1126" type="curve" smooth="yes"/>
      <point x="167" y="1126"/>
      <point x="205" y="1164"/>
    </contour>
  </outline>
</glyph>
<glyph name="Ogonek" format="1">
  <advance width="389"/>
  <unicode hex="02DB"/>
  <outline>
    <contour>
      <point x="527" y="-174" type="curve"/>
      <point x="527" y="-120" type="line"/>
      <point x="480" y="-163"/>
      <point x="429" y="-184"/>
      <point x="389" y="-184" type="curve" smooth="yes"/>
      <point x="342" y="-184"/>
      <point x="313" y="-136"/>
      <point x="313" y="-99" type="curve" smooth="yes"/>
      <point x="313" y="0"/>
      <point x="389" y="70"/>
      <point x="437" y="100" type="curve"/>
      <point x="360" y="100" type="line"/>
      <point x="244" y="36"/>
      <point x="197" y="-40"/>
      <point x="197" y="-135" type="curve" smooth="yes"/>
      <point x="197" y="-212"/>
      <point x="255" y="-277"/>
      <point x="340" y="-277" type="curve" smooth="yes"/>
      <point x="428" y="-277"/>
      <point x="482" y="-220"/>
    </contour>
    <contour>
      <point x="235" y="-500" type="move" name="L"/>
    </contour>
  </outline>
</glyph>
<glyph name="tilde" format="2">
  <advance width="682"/>
  <unicode hex="02DC"/>
  <outline>
    <contour>
      <point x="628" y="1344" type="line"/>
      <point x="612" y="1280"/>
      <point x="554" y="1243"/>
      <point x="488" y="1243" type="curve" smooth="yes"/>
      <point x="382" y="1243"/>
      <point x="330" y="1335"/>
      <point x="227" y="1335" type="curve" smooth="yes"/>
      <point x="97" y="1335"/>
      <point x="30" y="1244"/>
      <point x="0" y="1126" type="curve"/>
      <point x="53" y="1126" type="line"/>
      <point x="58" y="1171"/>
      <point x="116" y="1220"/>
      <point x="169" y="1220" type="curve" smooth="yes"/>
      <point x="301" y="1220"/>
      <point x="315" y="1126"/>
      <point x="466" y="1126" type="curve" smooth="yes"/>
      <point x="579" y="1126"/>
      <point x="671" y="1236"/>
      <point x="682" y="1344" type="curve"/>
    </contour>
  </outline>
</glyph>
<glyph name="gravecomb" format="1">
  <advance width="0"/>
  <unicode hex="0300"/>
  <outline>
    <contour>
      <point x="-419" y="1043" type="line"/>
      <point x="-335" y="1043" type="line"/>
      <point x="-620" y="1328" type="line" smooth="yes"/>
      <point x="-657" y="1366"/>
      <point x="-704" y="1396"/>
      <point x="-738" y="1396" type="curve" smooth="yes"/>
      <point x="-779" y="1396"/>
      <point x="-803" y="1366"/>
      <point x="-803" y="1319" type="curve" smooth="yes"/>
      <point x="-803" y="1283"/>
      <point x="-747" y="1251"/>
      <point x="-713" y="1230" type="curve" smooth="yes"/>
    </contour>
    <contour>
      <point x="-512" y="1435" type="move" name="U"/>
    </contour>
    <contour>
      <point x="-512" y="1000" type="move" name="_U"/>
    </contour>
  </outline>
</glyph>
<glyph name="acutecomb" format="2">
  <unicode hex="0301"/>
  <anchor x="-512" y="1435" name="U"/>
  <anchor x="-512" y="1000" name="_U"/>
  <outline>
    <contour>
      <point x="-225" y="1331" type="curve"/>
      <point x="-225" y="1358"/>
      <point x="-258" y="1396"/>
      <point x="-278" y="1396" type="curve" smooth="yes"/>
      <point x="-322" y="1396"/>
      <point x="-367" y="1365"/>
      <point x="-402" y="1328" type="curve" smooth="yes"/>
      <point x="-687" y="1043" type="line"/>
      <point x="-604" y="1043" type="line"/>
      <point x="-308" y="1230" type="line" smooth="yes"/>
      <point x="-266" y="1258"/>
      <point x="-225" y="1291"/>
    </contour>
  </outline>
</glyph>
<glyph name="uni0302" format="1">
  <advance width="0"/>
  <unicode hex="0302"/>
  <outline>
    <contour>
      <point x="-190" y="1043" type="line"/>
      <point x="-261" y="1043" type="line"/>
      <point x="-512" y="1257" type="line"/>
      <point x="-762" y="1043" type="line"/>
      <point x="-834" y="1043" type="line"/>
      <point x="-575" y="1387" type="line"/>
      <point x="-447" y="1387" type="line"/>
    </contour>
    <contour>
      <point x="-512" y="1435" type="move" name="U"/>
    </contour>
    <contour>
      <point x="-512" y="1000" type="move" name="_U"/>
    </contour>
  </outline>
</glyph>
<glyph name="uni0308" format="2">
  <unicode hex="0308"/>
  <anchor x="-512" y="1435" name="U"/>
  <anchor x="-512" y="1000" name="_U"/>
  <outline>
    <contour>
      <point x="-205" y="1228" type="curve"/>
      <point x="-205" y="1283"/>
      <point x="-252" y="1331"/>
      <point x="-308" y="1331" type="curve" smooth="yes"/>
      <point x="-359" y="1331"/>
      <point x="-411" y="1280"/>
      <point x="-411" y="1228" type="curve" smooth="yes"/>
      <point x="-411" y="1175"/>
      <point x="-363" y="1126"/>
      <point x="-308" y="1126" type="curve" smooth="yes"/>
      <point x="-252" y="1126"/>
      <point x="-205" y="1174"/>
    </contour>
    <contour>
      <point x="-615" y="1228" type="curve"/>
      <point x="-615" y="1283"/>
      <point x="-662" y="1331"/>
      <point x="-719" y="1331" type="curve" smooth="yes"/>
      <point x="-769" y="1331"/>
      <point x="-819" y="1280"/>
      <point x="-819" y="1228" type="curve" smooth="yes"/>
      <point x="-819" y="1175"/>
      <point x="-772" y="1126"/>
      <point x="-719" y="1126" type="curve" smooth="yes"/>
      <point x="-662" y="1126"/>
      <point x="-615" y="1174"/>
    </contour>
  </outline>
</glyph>
<glyph name="uni030A" format="2">
  <unicode hex="030A"/>
  <anchor x="-512" y="1435" name="U"/>
  <anchor x="-512" y="1000" name="_U"/>
  <outline>
    <contour>
      <point x="-321" y="1235" type="curve"/>
      <point x="-321" y="1352"/>
      <point x="-415" y="1426"/>
      <point x="-511" y="1426" type="curve" smooth="yes"/>
      <point x="-613" y="1426"/>
      <point x="-704" y="1349"/>
      <point x="-704" y="1235" type="curve" smooth="yes"/>
      <point x="-704" y="1120"/>
      <point x="-605" y="1043"/>
      <point x="-511" y="1043" type="curve" smooth="yes"/>
      <point x="-415" y="1043"/>
      <point x="-321" y="1120"/>
    </contour>
    <contour>
      <point x="-389" y="1235" type="curve"/>
      <point x="-389" y="1168"/>
      <point x="-443" y="1112"/>
      <point x="-511" y="1112" type="curve" smooth="yes"/>
      <point x="-574" y="1112"/>
      <point x="-635" y="1158"/>
      <point x="-635" y="1235" type="curve" smooth="yes"/>
      <point x="-635" y="1308"/>
      <point x="-577" y="1357"/>
      <point x="-511" y="1357" type="curve" smooth="yes"/>
      <point x="-450" y="1357"/>
      <point x="-389" y="1308"/>
    </contour>
  </outline>
</glyph>
<glyph name="uni0327" format="1">
  <advance width="0"/>
  <unicode hex="0327"/>
  <outline>
    <contour>
      <point x="-297" y="-270" type="curve" smooth="yes"/>
      <point x="-297" y="-171"/>
      <point x="-381" y="-128"/>
      <point x="-468" y="-128" type="curve" smooth="yes"/>
      <point x="-489" y="-128"/>
      <point x="-509" y="-130"/>
      <point x="-527" y="-135" type="curve"/>
      <point x="-465" y="25" type="line"/>
      <point x="-537" y="25" type="line"/>
      <point x="-635" y="-204" type="line"/>
      <point x="-618" y="-215" type="line"/>
      <point x="-590" y="-207"/>
      <point x="-558" y="-202"/>
      <point x="-526" y="-205" type="curve" smooth="yes"/>
      <point x="-481" y="-209"/>
      <point x="-451" y="-237"/>
      <point x="-451" y="-284" type="curve" smooth="yes"/>
      <point x="-451" y="-342"/>
      <point x="-494" y="-371"/>
      <point x="-570" y="-371" type="curve" smooth="yes"/>
      <point x="-604" y="-371"/>
      <point x="-661" y="-359"/>
      <point x="-697" y="-345" type="curve"/>
      <point x="-727" y="-411" type="line"/>
      <point x="-675" y="-427"/>
      <point x="-616" y="-443"/>
      <point x="-560" y="-443" type="curve" smooth="yes"/>
      <point x="-431" y="-443"/>
      <point x="-297" y="-379"/>
    </contour>
    <contour>
      <point x="-512" y="-600" type="move" name="L"/>
    </contour>
    <contour>
      <point x="-512" y="0" type="move" name="_H"/>
    </contour>
  </outline>
</glyph>
<glyph name="absAfghaniSign" format="2">
  <advance width="1283"/>
  <unicode hex="060B"/>
  <outline>
    <contour>
      <point x="815" y="1331" type="curve" smooth="yes"/>
      <point x="614" y="1331"/>
      <point x="477" y="867"/>
      <point x="477" y="708" type="curve" smooth="yes"/>
      <point x="477" y="329"/>
      <point x="964" y="535"/>
      <point x="1092" y="741" type="curve" smooth="yes"/>
      <point x="1130" y="802"/>
      <point x="1018" y="1041"/>
      <point x="998" y="994" type="curve" smooth="yes"/>
      <point x="923" y="819"/>
      <point x="577" y="660"/>
      <point x="597" y="904" type="curve" smooth="yes"/>
      <point x="601" y="953"/>
      <point x="621" y="1041"/>
      <point x="711" y="1041" type="curve" smooth="yes"/>
      <point x="863" y="1041"/>
      <point x="1089" y="888"/>
      <point x="1089" y="530" type="curve" smooth="yes"/>
      <point x="1089" y="309"/>
      <point x="346" y="238"/>
      <point x="219" y="326" type="curve" smooth="yes"/>
      <point x="170" y="360"/>
      <point x="50" y="0"/>
      <point x="132" y="0" type="curve" smooth="yes"/>
      <point x="848" y="0"/>
      <point x="1179" y="219"/>
      <point x="1179" y="636" type="curve" smooth="yes"/>
      <point x="1179" y="1058"/>
      <point x="932" y="1331"/>
    </contour>
    <component base="_nukta" xOffset="406" yOffset="1850"/>
    <component base="nlqKharizabar" xOffset="745" yOffset="-1120"/>
  </outline>
</glyph>
<glyph name="absComma" format="2">
  <advance width="661"/>
  <unicode hex="060C"/>
  <outline>
    <contour>
      <point x="317" y="680" type="curve" smooth="yes"/>
      <point x="28" y="236"/>
      <point x="149" y="-32"/>
      <point x="332" y="-32" type="curve" smooth="yes"/>
      <point x="557" y="-32"/>
      <point x="563" y="354"/>
      <point x="419" y="354" type="curve" smooth="yes"/>
      <point x="308" y="354"/>
      <point x="321" y="231"/>
      <point x="364" y="213" type="curve"/>
      <point x="247" y="213"/>
      <point x="222" y="425"/>
      <point x="352" y="673" type="curve" smooth="yes"/>
      <point x="357" y="684"/>
      <point x="326" y="693"/>
    </contour>
  </outline>
</glyph>
<glyph name="absDateSeparator" format="2">
  <advance width="1026"/>
  <unicode hex="060D"/>
  <outline>
    <contour>
      <point x="788" y="868" type="curve" smooth="yes"/>
      <point x="536" y="727"/>
      <point x="286" y="291"/>
      <point x="200" y="-50" type="curve" smooth="yes"/>
      <point x="191" y="-86"/>
      <point x="264" y="-59"/>
      <point x="278" y="-19" type="curve" smooth="yes"/>
      <point x="351" y="190"/>
      <point x="559" y="408"/>
      <point x="714" y="496" type="curve" smooth="yes"/>
      <point x="787" y="537"/>
      <point x="879" y="918"/>
    </contour>
  </outline>
</glyph>
<glyph name="absSmallHighSadMark" format="1">
  <advance width="0"/>
  <unicode hex="0610"/>
  <outline>
    <contour>
      <point x="283" y="529" type="curve" smooth="yes"/>
      <point x="283" y="596"/>
      <point x="256" y="634"/>
      <point x="197" y="634" type="curve" smooth="yes"/>
      <point x="89" y="634"/>
      <point x="-7" y="519"/>
      <point x="-73" y="377" type="curve" smooth="yes"/>
      <point x="-88" y="345"/>
      <point x="-43" y="345"/>
      <point x="-28" y="373" type="curve" smooth="yes"/>
      <point x="30" y="480"/>
      <point x="124" y="511"/>
      <point x="175" y="511" type="curve" smooth="yes"/>
      <point x="200" y="511"/>
      <point x="214" y="498"/>
      <point x="214" y="477" type="curve" smooth="yes"/>
      <point x="214" y="421"/>
      <point x="63" y="390"/>
      <point x="-35" y="390" type="curve" smooth="yes"/>
      <point x="-136" y="390"/>
      <point x="-167" y="440"/>
      <point x="-167" y="511" type="curve" smooth="yes"/>
      <point x="-167" y="516"/>
      <point x="-183" y="490"/>
      <point x="-183" y="483" type="curve" smooth="yes"/>
      <point x="-190" y="356"/>
      <point x="-231" y="204"/>
      <point x="-88" y="204" type="curve" smooth="yes"/>
      <point x="65" y="204"/>
      <point x="283" y="361"/>
    </contour>
    <component base="nlqKharizabar" xScale="0.77" yScale="0.77" xOffset="-239" yOffset="-71"/>
    <contour>
      <point x="2" y="5" type="move" name="_honorific"/>
    </contour>
    <contour>
      <point x="6" y="1" type="move" name="_mUpper"/>
    </contour>
    <contour>
      <point x="0" y="857" type="move" name="mUpper"/>
    </contour>
  </outline>
</glyph>
<glyph name="absNameMarker" format="2">
  <advance width="2"/>
  <unicode hex="0614"/>
  <anchor x="182" y="-411" name="_mUpper"/>
  <anchor x="149" y="650" name="mUpper"/>
  <outline>
    <contour>
      <point x="338" y="242" type="curve" smooth="yes"/>
      <point x="210" y="242"/>
      <point x="97" y="122"/>
      <point x="-730" y="156" type="curve" smooth="yes"/>
      <point x="-754" y="157"/>
      <point x="-791" y="91"/>
      <point x="-760" y="79" type="curve" smooth="yes"/>
      <point x="-317" y="-93"/>
      <point x="238" y="1"/>
      <point x="302" y="1" type="curve" smooth="yes"/>
      <point x="385" y="1"/>
      <point x="404" y="-138"/>
      <point x="504" y="-138" type="curve" smooth="yes"/>
      <point x="610" y="-138"/>
      <point x="798" y="115"/>
      <point x="798" y="220" type="curve" smooth="yes"/>
      <point x="798" y="248"/>
      <point x="728" y="299"/>
      <point x="710" y="262" type="curve" smooth="yes"/>
      <point x="665" y="169"/>
      <point x="581" y="72"/>
      <point x="534" y="72" type="curve" smooth="yes"/>
      <point x="438" y="72"/>
      <point x="412" y="242"/>
    </contour>
  </outline>
</glyph>
<glyph name="absSemicolon" format="2">
  <advance width="589"/>
  <unicode hex="061B"/>
  <outline>
    <contour>
      <point x="446" y="651" type="curve" smooth="yes"/>
      <point x="446" y="671"/>
      <point x="292" y="736"/>
      <point x="292" y="858" type="curve" smooth="yes"/>
      <point x="292" y="898"/>
      <point x="308" y="945"/>
      <point x="347" y="999" type="curve" smooth="yes"/>
      <point x="359" y="1014"/>
      <point x="326" y="1043"/>
      <point x="315" y="1031" type="curve" smooth="yes"/>
      <point x="211" y="918"/>
      <point x="140" y="806"/>
      <point x="140" y="705" type="curve" smooth="yes"/>
      <point x="140" y="595"/>
      <point x="271" y="493"/>
      <point x="298" y="493" type="curve" smooth="yes"/>
      <point x="324" y="493"/>
      <point x="446" y="622"/>
    </contour>
    <component base="_nukta" xScale="0.8" yScale="0.8" xOffset="-11" yOffset="173"/>
  </outline>
</glyph>
<glyph name="absQuestionMark" format="2">
  <advance width="680"/>
  <unicode hex="061F"/>
  <anchor x="512" y="468" name="kernBbRight"/>
  <outline>
    <contour>
      <point x="849" y="1380" type="curve" smooth="yes"/>
      <point x="966" y="1718"/>
      <point x="103" y="1658"/>
      <point x="103" y="1190" type="curve" smooth="yes"/>
      <point x="103" y="867"/>
      <point x="483" y="793"/>
      <point x="368" y="392" type="curve" smooth="yes"/>
      <point x="359" y="360"/>
      <point x="463" y="391"/>
      <point x="471" y="420" type="curve" smooth="yes"/>
      <point x="613" y="927"/>
      <point x="344" y="918"/>
      <point x="344" y="1163" type="curve" smooth="yes"/>
      <point x="344" y="1580"/>
      <point x="825" y="1607"/>
      <point x="692" y="1309" type="curve" smooth="yes"/>
      <point x="670" y="1259"/>
      <point x="837" y="1345"/>
    </contour>
    <component base="_nukta" xScale="0.64" yScale="0.64" xOffset="159" yOffset="108"/>
  </outline>
</glyph>
<glyph name="absKashmiriYeh" format="2">
  <advance width="1358"/>
  <unicode hex="0620"/>
  <anchor x="236" y="1411" name="alef"/>
  <anchor x="-51" y="1396" name="honorific"/>
  <anchor x="240" y="-920" name="mLower"/>
  <anchor x="238" y="1295" name="mUpper"/>
  <outline>
    <contour>
      <point x="160" y="-600" type="curve" smooth="yes"/>
      <point x="830" y="-600"/>
      <point x="1209" y="547"/>
      <point x="1045" y="684" type="curve" smooth="yes"/>
      <point x="974" y="744"/>
      <point x="654" y="757"/>
      <point x="654" y="843" type="curve" smooth="yes"/>
      <point x="654" y="1002"/>
      <point x="979" y="1367"/>
      <point x="1097" y="1367" type="curve" smooth="yes"/>
      <point x="1114" y="1367"/>
      <point x="1120" y="1362"/>
      <point x="1129" y="1362" type="curve" smooth="yes"/>
      <point x="1159" y="1362"/>
      <point x="1313" y="1715"/>
      <point x="1228" y="1715" type="curve" smooth="yes"/>
      <point x="1045" y="1715"/>
      <point x="584" y="1202"/>
      <point x="584" y="745" type="curve" smooth="yes"/>
      <point x="584" y="289"/>
      <point x="981" y="428"/>
      <point x="981" y="336" type="curve" smooth="yes"/>
      <point x="981" y="116"/>
      <point x="451" y="-322"/>
      <point x="248" y="-253" type="curve" smooth="yes"/>
      <point x="171" y="-226"/>
      <point x="54" y="-600"/>
    </contour>
  </outline>
</glyph>
<glyph name="absAlefMaddaAbove" format="1">
  <advance width="465"/>
  <unicode hex="0622"/>
  <outline>
    <component base="absAlef"/>
    <component base="absMaddaAbove" yOffset="-318"/>
    <contour>
      <point x="-192" y="2589" type="move" name="honorific"/>
    </contour>
    <contour>
      <point x="161" y="1150" type="move" name="kernBbLeft"/>
    </contour>
    <contour>
      <point x="327" y="1156" type="move" name="kernBbRight"/>
    </contour>
    <contour>
      <point x="239" y="-164" type="move" name="mLower"/>
    </contour>
    <contour>
      <point x="253" y="2488" type="move" name="mUpper"/>
    </contour>
  </outline>
</glyph>
<glyph name="absAlefHamzaAbove" format="1">
  <advance width="465"/>
  <unicode hex="0623"/>
  <outline>
    <component base="absAlef"/>
    <component base="_hamza" xOffset="253" yOffset="710"/>
    <contour>
      <point x="72" y="2850" type="move" name="honorific"/>
    </contour>
    <contour>
      <point x="252" y="2675" type="move" name="mUpper"/>
    </contour>
  </outline>
</glyph>
<glyph name="absYehHamzaAbove" format="1">
  <advance width="1812"/>
  <unicode hex="0626"/>
  <outline>
    <component base="nlqChotiyeh"/>
    <component base="_hamza" xOffset="834" yOffset="128"/>
    <contour>
      <point x="67" y="1393" type="move" name="honorific"/>
    </contour>
    <contour>
      <point x="635" y="-920" type="move" name="mLower"/>
    </contour>
    <contour>
      <point x="816" y="1953" type="move" name="mUpper"/>
    </contour>
  </outline>
</glyph>
<glyph name="absAlef" format="2">
  <advance width="478"/>
  <unicode hex="0627"/>
  <anchor x="184" y="-80" name="hamzaLower"/>
  <anchor x="242" y="2067" name="hamzaUpper"/>
  <anchor x="23" y="1939" name="honorific"/>
  <anchor x="174" y="1519" name="kernBbLeft"/>
  <anchor x="327" y="987" name="kernBbRight"/>
  <anchor x="205" y="-60" name="mLower"/>
  <anchor x="255" y="2057" name="mUpper"/>
  <outline>
    <contour>
      <point x="183" y="1366" type="curve" smooth="yes"/>
      <point x="162" y="1055"/>
      <point x="189" y="753"/>
      <point x="173" y="482" type="curve" smooth="yes"/>
      <point x="162" y="293"/>
      <point x="122" y="231"/>
      <point x="113" y="194" type="curve" smooth="yes"/>
      <point x="109" y="176"/>
      <point x="141" y="136"/>
      <point x="155" y="156" type="curve" smooth="yes"/>
      <point x="201" y="220"/>
      <point x="293" y="516"/>
      <point x="314" y="860" type="curve" smooth="yes"/>
      <point x="325" y="1042"/>
      <point x="327" y="1237"/>
      <point x="327" y="1463" type="curve" smooth="yes"/>
      <point x="327" y="1615"/>
      <point x="358" y="1658"/>
      <point x="365" y="1689" type="curve" smooth="yes"/>
      <point x="370" y="1707"/>
      <point x="352" y="1756"/>
      <point x="332" y="1734" type="curve" smooth="yes"/>
      <point x="291" y="1692"/>
      <point x="194" y="1532"/>
    </contour>
  </outline>
</glyph>
<glyph name="absTehMarbuta" format="1">
  <advance width="691"/>
  <unicode hex="0629"/>
  <outline>
    <component base="absHehGoal"/>
    <component base="_nukta2" xOffset="-298" yOffset="1418"/>
    <contour>
      <point x="-275" y="2001" type="move" name="honorific"/>
    </contour>
    <contour>
      <point x="103" y="404" type="move" name="kernBbLeft"/>
    </contour>
    <contour>
      <point x="589" y="220" type="move" name="kernBbRight"/>
    </contour>
    <contour>
      <point x="310" y="-320" type="move" name="mLower"/>
    </contour>
    <contour>
      <point x="346" y="1841" type="move" name="mUpper"/>
    </contour>
  </outline>
</glyph>
<glyph name="absTeh" format="1">
  <advance width="2583"/>
  <unicode hex="062A"/>
  <outline>
    <component base="_beh"/>
    <component base="_nukta2" xOffset="573" yOffset="910"/>
    <contour>
      <point x="178" y="1640" type="move" name="honorific"/>
    </contour>
    <contour>
      <point x="1212" y="-357" type="move" name="mLower"/>
    </contour>
    <contour>
      <point x="1207" y="1327" type="move" name="mUpper"/>
    </contour>
  </outline>
</glyph>
<glyph name="absTheh" format="1">
  <advance width="2583"/>
  <unicode hex="062B"/>
  <outline>
    <component base="_beh"/>
    <component base="_nukta3inv" xOffset="655" yOffset="1059"/>
    <contour>
      <point x="178" y="1640" type="move" name="honorific"/>
    </contour>
    <contour>
      <point x="1212" y="-335" type="move" name="mLower"/>
    </contour>
    <contour>
      <point x="1245" y="1738" type="move" name="mUpper"/>
    </contour>
  </outline>
</glyph>
